<?xml version="1.0" standalone="no"?>
<!DOCTYPE svg PUBLIC "-//W3C//DTD SVG 1.1//EN" "http://www.w3.org/Graphics/SVG/1.1/DTD/svg11.dtd" >
<svg xmlns="http://www.w3.org/2000/svg" xmlns:xlink="http://www.w3.org/1999/xlink" version="1.1">
<metadata>
Created by FontForge 20170731 at Thu Mar 31 07:48:36 2016
 By Aleksey,,,
Mathieu Reguer for Nescafe
</metadata>
<defs>
<font id="NescafeSans-Normal" horiz-adv-x="511" >
  <font-face 
    font-family="Nescafe Sans Normal"
    font-weight="400"
    font-style="italic"
    font-stretch="normal"
    units-per-em="1000"
    panose-1="0 0 5 0 0 0 0 0 0 0"
    ascent="750"
    descent="-250"
    x-height="528"
    cap-height="700"
    bbox="-433 -250 3006 1010"
    underline-thickness="58"
    underline-position="-224"
    slope="-11"
    unicode-range="U+0020-F6C3"
  />
<missing-glyph horiz-adv-x="476" 
d="M561 750l-194 -1000h-475l193 1000h476zM178 212q98 27 135.5 44.5t64.5 40.5q29 25 48.5 80.5t19.5 104.5q0 54 -26 91q-20 26 -61 39t-93 13q-80 0 -152 -19l-12 -67q90 18 154 18q80 0 103 -30q15 -21 15 -54t-14.5 -74.5t-32.5 -57.5q-21 -19 -63 -36.5t-146 -43.5
l-27 -143h67zM99 0q-53 0 -53 -64q0 -32 41 -32q25 0 38.5 16t13.5 48t-40 32z" />
    <glyph glyph-name="f_b" unicode="fb" horiz-adv-x="943" 
d="M-114 -194l11 63q14 -6 31.5 -10.5t33.5 -4.5q35 0 52 15q12 11 20 36t20 88l89 469h-74l13 66h74l5 28q12 62 28 99.5t38 56.5q42 38 119 38q56 0 83 -12l-12 -66q-30 10 -66 10q-50 0 -74 -21q-11 -11 -20 -33.5t-18 -71.5l-5 -28h134l-13 -66h-134l-89 -469
q-15 -78 -29 -114.5t-36 -58.5q-30 -30 -101 -30q-42 0 -80 16zM538.5 7q-48.5 22 -78.5 63l-13 -70h-78l142 735h78l-52 -271q41 38 88.5 58.5t92.5 20.5q44 0 81 -15t57 -42q18 -23 25.5 -53t7.5 -72q0 -54 -14 -120t-38 -122.5t-52 -82.5q-54 -51 -137 -51
q-61 0 -109.5 22zM726 87q34 31 59 118t25 156q0 45 -18 69q-32 43 -99 43q-74 0 -167 -63l-56 -292q66 -62 166 -62q54 0 90 31z" />
    <glyph glyph-name="f_f" unicode="ff" horiz-adv-x="720" 
d="M-114 -194l11 63q14 -6 31.5 -10.5t33.5 -4.5q35 0 52 15q12 11 20 36t20 88l89 469h-74l13 66h74l5 28q12 62 28 99.5t38 56.5q42 38 119 38q56 0 83 -12l-12 -66q-30 10 -66 10q-50 0 -74 -21q-11 -11 -20 -33.5t-18 -71.5l-5 -28h114l-13 -66h-114l-89 -469
q-15 -78 -29 -114.5t-36 -58.5q-30 -30 -101 -30q-42 0 -80 16zM226 -194l11 63q14 -6 31.5 -10.5t33.5 -4.5q35 0 52 15q12 11 20 36t20 88l89 469h-74l13 66h74l5 28q12 62 28 99.5t38 56.5q42 38 125 38q68 0 107 -18l-12 -66q-17 7 -41.5 11.5t-48.5 4.5q-56 0 -80 -21
q-11 -11 -20 -33.5t-18 -71.5l-5 -28h164l-13 -66h-164l-89 -469q-15 -78 -29 -114.5t-36 -58.5q-30 -30 -101 -30q-42 0 -80 16z" />
    <glyph glyph-name="f_h" unicode="fh" horiz-adv-x="938" 
d="M-114 -194l11 63q14 -6 31.5 -10.5t33.5 -4.5q35 0 52 15q12 11 20 36t20 88l89 469h-74l13 66h74l5 28q12 62 28 99.5t38 56.5q42 38 119 38q56 0 83 -12l-12 -66q-30 10 -66 10q-50 0 -74 -21q-11 -11 -20 -33.5t-18 -71.5l-5 -28h134l-13 -66h-134l-89 -469
q-15 -78 -29 -114.5t-36 -58.5q-30 -30 -101 -30q-42 0 -80 16zM619.5 455q-48.5 -18 -94.5 -50l-78 -405h-78l142 735h78l-54 -281q42 40 99 64.5t110 24.5q42 0 71.5 -13.5t43.5 -32.5q22 -30 22 -75q0 -26 -5 -49l-72 -373h-78l66 342q8 42 8 63q0 26 -10 41
q-11 14 -30 20.5t-53 6.5q-39 0 -87.5 -18z" />
    <glyph glyph-name="f_i" unicode="fi" horiz-adv-x="574" 
d="M-114 -194l11 63q14 -6 31.5 -10.5t33.5 -4.5q35 0 52 15q12 11 20 36t20 88l89 469h-74l13 66h74l5 28q12 62 28 99.5t38 56.5q42 38 119 38q56 0 83 -12l-12 -66q-30 10 -66 10q-50 0 -74 -21q-11 -11 -20 -33.5t-18 -71.5l-5 -28h134l-13 -66h-134l-89 -469
q-15 -78 -29 -114.5t-36 -58.5q-30 -30 -101 -30q-42 0 -80 16zM489 696q0 24 13 39t41 15q17 0 27 -8t10 -23q0 -56 -52 -56q-39 0 -39 33zM539 528l-102 -528h-78l102 528h78z" />
    <glyph glyph-name="f_j" unicode="fj" horiz-adv-x="575" 
d="M-114 -194l11 63q14 -6 31.5 -10.5t33.5 -4.5q35 0 52 15q12 11 20 36t20 88l89 469h-74l13 66h74l5 28q12 62 28 99.5t38 56.5q42 38 119 38q56 0 83 -12l-12 -66q-30 10 -66 10q-50 0 -74 -21q-11 -11 -20 -33.5t-18 -71.5l-5 -28h134l-13 -66h-134l-89 -469
q-15 -78 -29 -114.5t-36 -58.5q-30 -30 -101 -30q-42 0 -80 16zM489 696q0 24 13 39t41 15q17 0 27 -8t10 -23q0 -56 -52 -56q-39 0 -39 33zM189 -194l11 63q14 -6 31.5 -10.5t33.5 -4.5q35 0 52 15q12 11 20 36t20 88l104 535h78l-104 -535q-15 -78 -29 -114.5t-36 -58.5
q-30 -30 -101 -30q-42 0 -80 16z" />
    <glyph glyph-name="f_k" unicode="fk" horiz-adv-x="876" 
d="M-114 -194l11 63q14 -6 31.5 -10.5t33.5 -4.5q35 0 52 15q12 11 20 36t20 88l89 469h-74l13 66h74l5 28q12 62 28 99.5t38 56.5q42 38 119 38q56 0 83 -12l-12 -66q-30 10 -66 10q-50 0 -74 -21q-11 -11 -20 -33.5t-18 -71.5l-5 -28h134l-13 -66h-134l-89 -469
q-15 -78 -29 -114.5t-36 -58.5q-30 -30 -101 -30q-42 0 -80 16zM447 0h-78l142 735h78l-81 -422l278 215h101l-314 -243l214 -285h-91l-198 263z" />
    <glyph glyph-name="f_l" unicode="fl" horiz-adv-x="683" 
d="M-114 -194l11 63q14 -6 31.5 -10.5t33.5 -4.5q35 0 52 15q12 11 20 36t20 88l89 469h-74l13 66h74l5 28q12 62 28 99.5t38 56.5q42 38 119 38q56 0 83 -12l-12 -66q-30 10 -66 10q-50 0 -74 -21q-11 -11 -20 -33.5t-18 -71.5l-5 -28h134l-13 -66h-134l-89 -469
q-15 -78 -29 -114.5t-36 -58.5q-30 -30 -101 -30q-42 0 -80 16zM469 99q0 -17 6 -26q16 -19 51 -19q43 0 80 16l-12 -66q-34 -19 -88 -19q-75 0 -99 37q-15 21 -15 67t12 106l105 540h79l-105 -543q-14 -69 -14 -93z" />
    <glyph glyph-name="f_f_b" unicode="ffb" horiz-adv-x="1283" 
d="M-114 -194l11 63q14 -6 31.5 -10.5t33.5 -4.5q35 0 52 15q12 11 20 36t20 88l89 469h-74l13 66h74l5 28q12 62 28 99.5t38 56.5q42 38 119 38q56 0 83 -12l-12 -66q-30 10 -66 10q-50 0 -74 -21q-11 -11 -20 -33.5t-18 -71.5l-5 -28h114l-13 -66h-114l-89 -469
q-15 -78 -29 -114.5t-36 -58.5q-30 -30 -101 -30q-42 0 -80 16zM226 -194l11 63q14 -6 31.5 -10.5t33.5 -4.5q35 0 52 15q12 11 20 36t20 88l89 469h-74l13 66h74l5 28q12 62 28 99.5t38 56.5q42 38 119 38q56 0 83 -12l-12 -66q-30 10 -66 10q-50 0 -74 -21
q-11 -11 -20 -33.5t-18 -71.5l-5 -28h134l-13 -66h-134l-89 -469q-15 -78 -29 -114.5t-36 -58.5q-30 -30 -101 -30q-42 0 -80 16zM878.5 7q-48.5 22 -78.5 63l-13 -70h-78l142 735h78l-52 -271q41 38 88.5 58.5t92.5 20.5q44 0 81 -15t57 -42q18 -23 25.5 -53t7.5 -72
q0 -54 -14 -120t-38 -122.5t-52 -82.5q-54 -51 -137 -51q-61 0 -109.5 22zM1066 87q34 31 59 118t25 156q0 45 -18 69q-32 43 -99 43q-74 0 -167 -63l-56 -292q66 -62 166 -62q54 0 90 31z" />
    <glyph glyph-name="f_f_h" unicode="ffh" horiz-adv-x="1278" 
d="M-114 -194l11 63q14 -6 31.5 -10.5t33.5 -4.5q35 0 52 15q12 11 20 36t20 88l89 469h-74l13 66h74l5 28q12 62 28 99.5t38 56.5q42 38 119 38q56 0 83 -12l-12 -66q-30 10 -66 10q-50 0 -74 -21q-11 -11 -20 -33.5t-18 -71.5l-5 -28h114l-13 -66h-114l-89 -469
q-15 -78 -29 -114.5t-36 -58.5q-30 -30 -101 -30q-42 0 -80 16zM226 -194l11 63q14 -6 31.5 -10.5t33.5 -4.5q35 0 52 15q12 11 20 36t20 88l89 469h-74l13 66h74l5 28q12 62 28 99.5t38 56.5q42 38 119 38q56 0 83 -12l-12 -66q-30 10 -66 10q-50 0 -74 -21
q-11 -11 -20 -33.5t-18 -71.5l-5 -28h134l-13 -66h-134l-89 -469q-15 -78 -29 -114.5t-36 -58.5q-30 -30 -101 -30q-42 0 -80 16zM959.5 455q-48.5 -18 -94.5 -50l-78 -405h-78l142 735h78l-54 -281q42 40 99 64.5t110 24.5q42 0 71.5 -13.5t43.5 -32.5q22 -30 22 -75
q0 -26 -5 -49l-72 -373h-78l66 342q8 42 8 63q0 26 -10 41q-11 14 -30 20.5t-53 6.5q-39 0 -87.5 -18z" />
    <glyph glyph-name="f_f_i" unicode="ffi" horiz-adv-x="915" 
d="M-114 -194l11 63q14 -6 31.5 -10.5t33.5 -4.5q35 0 52 15q12 11 20 36t20 88l89 469h-74l13 66h74l5 28q12 62 28 99.5t38 56.5q42 38 119 38q56 0 83 -12l-12 -66q-30 10 -66 10q-50 0 -74 -21q-11 -11 -20 -33.5t-18 -71.5l-5 -28h114l-13 -66h-114l-89 -469
q-15 -78 -29 -114.5t-36 -58.5q-30 -30 -101 -30q-42 0 -80 16zM226 -194l11 63q14 -6 31.5 -10.5t33.5 -4.5q35 0 52 15q12 11 20 36t20 88l89 469h-74l13 66h74l5 28q12 62 28 99.5t38 56.5q42 38 119 38q56 0 83 -12l-12 -66q-30 10 -66 10q-50 0 -74 -21
q-11 -11 -20 -33.5t-18 -71.5l-5 -28h134l-13 -66h-134l-89 -469q-15 -78 -29 -114.5t-36 -58.5q-30 -30 -101 -30q-42 0 -80 16zM829 696q0 24 13 39t41 15q17 0 27 -8t10 -23q0 -56 -52 -56q-39 0 -39 33zM879 528l-102 -528h-78l102 528h78z" />
    <glyph glyph-name="f_f_j" unicode="ffj" horiz-adv-x="916" 
d="M-114 -194l11 63q14 -6 31.5 -10.5t33.5 -4.5q35 0 52 15q12 11 20 36t20 88l89 469h-74l13 66h74l5 28q12 62 28 99.5t38 56.5q42 38 119 38q56 0 83 -12l-12 -66q-30 10 -66 10q-50 0 -74 -21q-11 -11 -20 -33.5t-18 -71.5l-5 -28h114l-13 -66h-114l-89 -469
q-15 -78 -29 -114.5t-36 -58.5q-30 -30 -101 -30q-42 0 -80 16zM226 -194l11 63q14 -6 31.5 -10.5t33.5 -4.5q35 0 52 15q12 11 20 36t20 88l89 469h-74l13 66h74l5 28q12 62 28 99.5t38 56.5q42 38 119 38q56 0 83 -12l-12 -66q-30 10 -66 10q-50 0 -74 -21
q-11 -11 -20 -33.5t-18 -71.5l-5 -28h134l-13 -66h-134l-89 -469q-15 -78 -29 -114.5t-36 -58.5q-30 -30 -101 -30q-42 0 -80 16zM829 696q0 24 13 39t41 15q17 0 27 -8t10 -23q0 -56 -52 -56q-39 0 -39 33zM529 -194l11 63q14 -6 31.5 -10.5t33.5 -4.5q35 0 52 15
q12 11 20 36t20 88l104 535h78l-104 -535q-15 -78 -29 -114.5t-36 -58.5q-30 -30 -101 -30q-42 0 -80 16z" />
    <glyph glyph-name="f_f_k" unicode="ffk" horiz-adv-x="1216" 
d="M-114 -194l11 63q14 -6 31.5 -10.5t33.5 -4.5q35 0 52 15q12 11 20 36t20 88l89 469h-74l13 66h74l5 28q12 62 28 99.5t38 56.5q42 38 119 38q56 0 83 -12l-12 -66q-30 10 -66 10q-50 0 -74 -21q-11 -11 -20 -33.5t-18 -71.5l-5 -28h114l-13 -66h-114l-89 -469
q-15 -78 -29 -114.5t-36 -58.5q-30 -30 -101 -30q-42 0 -80 16zM226 -194l11 63q14 -6 31.5 -10.5t33.5 -4.5q35 0 52 15q12 11 20 36t20 88l89 469h-74l13 66h74l5 28q12 62 28 99.5t38 56.5q42 38 119 38q56 0 83 -12l-12 -66q-30 10 -66 10q-50 0 -74 -21
q-11 -11 -20 -33.5t-18 -71.5l-5 -28h134l-13 -66h-134l-89 -469q-15 -78 -29 -114.5t-36 -58.5q-30 -30 -101 -30q-42 0 -80 16zM787 0h-78l142 735h78l-81 -422l278 215h101l-314 -243l214 -285h-91l-198 263z" />
    <glyph glyph-name="f_f_l" unicode="ffl" horiz-adv-x="1023" 
d="M-114 -194l11 63q14 -6 31.5 -10.5t33.5 -4.5q35 0 52 15q12 11 20 36t20 88l89 469h-74l13 66h74l5 28q12 62 28 99.5t38 56.5q42 38 119 38q56 0 83 -12l-12 -66q-30 10 -66 10q-50 0 -74 -21q-11 -11 -20 -33.5t-18 -71.5l-5 -28h114l-13 -66h-114l-89 -469
q-15 -78 -29 -114.5t-36 -58.5q-30 -30 -101 -30q-42 0 -80 16zM226 -194l11 63q14 -6 31.5 -10.5t33.5 -4.5q35 0 52 15q12 11 20 36t20 88l89 469h-74l13 66h74l5 28q12 62 28 99.5t38 56.5q42 38 119 38q56 0 83 -12l-12 -66q-30 10 -66 10q-50 0 -74 -21
q-11 -11 -20 -33.5t-18 -71.5l-5 -28h134l-13 -66h-134l-89 -469q-15 -78 -29 -114.5t-36 -58.5q-30 -30 -101 -30q-42 0 -80 16zM809 99q0 -17 6 -26q16 -19 51 -19q43 0 80 16l-12 -66q-34 -19 -88 -19q-75 0 -99 37q-15 21 -15 67t12 106l105 540h79l-105 -543
q-14 -69 -14 -93z" />
    <glyph glyph-name=".notdef" horiz-adv-x="476" 
d="M561 750l-194 -1000h-475l193 1000h476zM178 212q98 27 135.5 44.5t64.5 40.5q29 25 48.5 80.5t19.5 104.5q0 54 -26 91q-20 26 -61 39t-93 13q-80 0 -152 -19l-12 -67q90 18 154 18q80 0 103 -30q15 -21 15 -54t-14.5 -74.5t-32.5 -57.5q-21 -19 -63 -36.5t-146 -43.5
l-27 -143h67zM99 0q-53 0 -53 -64q0 -32 41 -32q25 0 38.5 16t13.5 48t-40 32z" />
    <glyph glyph-name=".null" horiz-adv-x="0" 
 />
    <glyph glyph-name="nonmarkingreturn" horiz-adv-x="333" 
 />
    <glyph glyph-name="space" unicode=" " horiz-adv-x="255" 
 />
    <glyph glyph-name="exclam" unicode="!" horiz-adv-x="255" 
d="M245 700l-104 -483h-64l86 483h82zM122 58q0 -32 -13.5 -48t-38.5 -16q-41 0 -41 32q0 64 53 64q40 0 40 -32z" />
    <glyph glyph-name="quotedbl" unicode="&#x22;" horiz-adv-x="407" 
d="M239 700l-55 -236h-49l36 236h68zM389 700l-55 -236h-49l36 236h68z" />
    <glyph glyph-name="numbersign" unicode="#" 
d="M151 150l-57 -150h-65l57 150h-61l11 59h73l42 110h-94l12 59h105l57 150h63l-57 -150h105l57 150h64l-57 -150h63l-12 -59h-74l-41 -110h94l-11 -59h-106l-57 -150h-64l57 150h-104zM215 319l-42 -110h105l41 110h-104z" />
    <glyph glyph-name="dollar" unicode="$" 
d="M61.5 3.5q-44.5 9.5 -72.5 24.5l13 68q87 -31 174 -34l51 265q-55 18 -89.5 34t-48.5 38q-17 22 -17 61q0 50 17 108t42 83q60 55 179 58l16 81h63l-16 -82q89 -6 144 -33l-12 -67q-69 26 -146 29l-50 -255q54 -18 86 -32.5t43 -31.5q18 -28 18 -66q0 -55 -19 -117.5
t-47 -87.5q-49 -48 -165 -55l-15 -79h-63l15 79q-56 2 -100.5 11.5zM250 401l46 236q-72 -6 -106 -38q-14 -13 -24.5 -49.5t-10.5 -67.5q0 -23 6 -34q14 -20 89 -47zM342 287q-20 9 -55 21l-48 -243q69 7 95 33q16 17 28.5 58t12.5 75q0 27 -7 37q-6 10 -26 19z" />
    <glyph glyph-name="percent" unicode="%" horiz-adv-x="793" 
d="M344 599q0 -33 -9.5 -94t-28.5 -118.5t-45 -81.5q-37 -33 -106 -33q-32 0 -59.5 8.5t-38.5 24.5q-19 24 -19 77q0 33 9.5 94t28.5 118.5t45 81.5q38 33 106 33q32 0 59.5 -8.5t38.5 -24.5q19 -24 19 -77zM171 0h-72l540 700h70zM252.5 403.5q15.5 46.5 25 101.5t9.5 90
q0 31 -9 43q-13 19 -55 19q-40 0 -62 -19q-16 -14 -31.5 -60t-25 -101t-9.5 -90q0 -32 9 -44q13 -19 55 -19q40 0 62 19q16 14 31.5 60.5zM770 319q0 -33 -9.5 -94t-28.5 -118.5t-45 -81.5q-37 -33 -106 -33q-32 0 -59.5 8.5t-38.5 24.5q-19 24 -19 77q0 33 9.5 94
t28.5 118.5t45 81.5q38 33 106 33q32 0 59.5 -8.5t38.5 -24.5q19 -24 19 -77zM678.5 123.5q15.5 46.5 25 101.5t9.5 90q0 31 -9 43q-13 19 -55 19q-40 0 -62 -19q-16 -14 -31.5 -60t-25 -101t-9.5 -90q0 -32 9 -44q13 -19 55 -19q40 0 62 19q16 14 31.5 60.5z" />
    <glyph glyph-name="ampersand" unicode="&#x26;" horiz-adv-x="639" 
d="M296.5 -1q-41.5 -14 -94.5 -14q-111 0 -153 50q-34 43 -34 95q0 62 20.5 106t51.5 70q36 31 99 53l-5 7q-30 37 -43.5 71.5t-13.5 75.5q0 42 18 87t45 69q52 43 148 43q101 0 136 -43q15 -19 21.5 -38t6.5 -49q0 -49 -19 -93t-53 -71q-27 -21 -56 -38t-79 -38l124 -155
q59 76 125 183h75q-101 -161 -158 -235l109 -135h-94l-62 78q-16 -17 -36 -34q-37 -31 -78.5 -45zM371 450q26 22 39.5 54.5t13.5 71.5q0 30 -12 46q-12 14 -30 20.5t-49 6.5q-34 0 -52.5 -6t-37.5 -22q-20 -18 -31.5 -46.5t-11.5 -63.5q0 -29 8.5 -52.5t30.5 -50.5l18 -22
q80 36 114 64zM275.5 60q29.5 11 61.5 38q19 17 32 32l-148 186q-45 -18 -73 -41q-26 -23 -40 -56t-14 -82q0 -35 17 -55q14 -16 37 -24.5t61 -8.5q37 0 66.5 11z" />
    <glyph glyph-name="quotesingle" unicode="'" horiz-adv-x="256" 
d="M239 700l-55 -236h-49l36 236h68z" />
    <glyph glyph-name="parenleft" unicode="(" horiz-adv-x="367" 
d="M127.5 468.5q62.5 138.5 175.5 231.5h71q-241 -231 -241 -538q0 -84 20 -155t58 -142h-68q-38 65 -58 136t-20 156q0 173 62.5 311.5z" />
    <glyph glyph-name="parenright" unicode=")" horiz-adv-x="367" 
d="M228.5 96.5q-62.5 -138.5 -175.5 -231.5h-71q241 231 241 538q0 84 -20 155t-58 142h68q38 -65 58 -136t20 -156q0 -173 -62.5 -311.5z" />
    <glyph glyph-name="asterisk" unicode="*" horiz-adv-x="295" 
d="M121 449l-36 29l81 83l-90 25l24 47l85 -40l14 107h48l-28 -107l102 40l5 -47l-103 -26l49 -82l-44 -29l-36 90z" />
    <glyph glyph-name="plus" unicode="+" 
d="M235 61h-58l34 174h-162l11 59h163l34 174h57l-34 -174h163l-11 -59h-163z" />
    <glyph glyph-name="comma" unicode="," horiz-adv-x="256" 
d="M144 94l-117 -207h-54l99 207h72z" />
    <glyph glyph-name="hyphen" unicode="-" horiz-adv-x="256" 
d="M217 240h-205l11 58h205z" />
    <glyph glyph-name="period" unicode="." horiz-adv-x="256" 
d="M122 58q0 -32 -13.5 -48t-38.5 -16q-41 0 -41 32q0 64 53 64q40 0 40 -32z" />
    <glyph glyph-name="slash" unicode="/" horiz-adv-x="415" 
d="M-7 -135h-68l492 870h68z" />
    <glyph glyph-name="zero" unicode="0" horiz-adv-x="510" 
d="M106.5 -1.5q-46.5 13.5 -65.5 39.5q-28 38 -28 118q0 73 18 179.5t50.5 198.5t73.5 128q30 26 73 39.5t94 13.5q49 0 95 -13.5t66 -39.5q30 -40 30 -126q0 -74 -19.5 -180t-53 -196t-71.5 -122q-30 -26 -73 -39.5t-95 -13.5q-48 0 -94.5 13.5zM267.5 64q28.5 9 45.5 24
q27 23 55 104.5t46 179.5t18 164q0 56 -16 76q-12 15 -36.5 24t-59.5 9t-63 -9t-45 -24q-28 -25 -55 -109t-44.5 -183t-17.5 -161q0 -53 14 -71q12 -15 36.5 -24t58.5 -9q35 0 63.5 9z" />
    <glyph glyph-name="one" unicode="1" 
d="M326 593l-222 -154l18 95l240 166h66l-136 -700h-81z" />
    <glyph glyph-name="two" unicode="2" horiz-adv-x="512" 
d="M-6 55l265 237q58 53 87.5 88t42 65t21.5 75q5 28 5 42q0 30 -16 51q-23 32 -118 32q-66 0 -166 -31l13 70q44 16 79.5 23.5t86.5 7.5q60 0 107 -14t68 -38q29 -33 29 -81q0 -25 -6 -57q-11 -59 -29 -99t-51 -79.5t-96 -94.5l-205 -182h297l-12 -70h-412z" />
    <glyph glyph-name="three" unicode="3" 
d="M-9 12l12 69q74 -26 162 -26q104 0 148 40q21 18 38 57.5t17 79.5q0 33 -17 55q-17 23 -72.5 33t-163.5 10l11 56l271 245h-290l13 69h408l-11 -55l-280 -250q139 -10 182 -57q32 -37 32 -93q0 -58 -21.5 -113.5t-59.5 -88.5q-65 -58 -207 -58q-109 0 -172 27z" />
    <glyph glyph-name="four" unicode="4" 
d="M349 0h-80l36 184h-310l10 55l411 461h69l-87 -446h88l-13 -70h-88zM111 254h207l59 304z" />
    <glyph glyph-name="five" unicode="5" 
d="M-3 12l12 69q38 -14 76 -20t86 -6q99 0 144 39q21 18 37.5 60.5t16.5 77.5q0 37 -16 56q-18 24 -80 34t-190 10l5 24h-1l62 318h1l5 26h361l-14 -69h-284l-45 -228q206 -7 252 -67q14 -19 20.5 -40t6.5 -50q0 -56 -21 -112.5t-59 -90.5q-35 -32 -82.5 -45t-120.5 -13
q-109 0 -172 27z" />
    <glyph glyph-name="six" unicode="6" horiz-adv-x="510" 
d="M104.5 -1q-42.5 14 -63.5 42q-30 42 -30 102q0 28 8 71v1q13 69 47.5 131t117.5 145l206 209h101l-252 -253l-11 -11q23 6 42 6q117 0 159 -55q32 -44 32 -102q0 -28 -8 -71q-12 -60 -31.5 -102.5t-51.5 -71.5q-32 -28 -70 -41.5t-98 -13.5q-55 0 -97.5 14zM268.5 63.5
q23.5 8.5 42.5 25.5q40 36 59 127q7 32 7 61q0 41 -17 65q-24 35 -92 35q-37 0 -62 -9t-44 -26q-41 -36 -59 -126q-7 -34 -7 -63q0 -42 16 -64q22 -34 100 -34q33 0 56.5 8.5z" />
    <glyph glyph-name="seven" unicode="7" horiz-adv-x="510" 
d="M436 631h-329l14 69h423l-11 -55l-455 -645h-90z" />
    <glyph glyph-name="eight" unicode="8" horiz-adv-x="510" 
d="M101.5 -1q-44.5 14 -66.5 43q-30 43 -30 94q0 52 21 105.5t51 79.5q18 17 38 26.5t48 13.5q-36 11 -53 35q-24 32 -24 80t20 104t52 84q31 28 68 39.5t97 11.5q54 0 96.5 -13t61.5 -40q26 -35 26 -83q0 -51 -19.5 -107t-47.5 -79q-31 -28 -73 -38q39 -11 60 -37
q27 -37 27 -86q0 -52 -20.5 -107t-55.5 -85q-31 -29 -72 -42t-104 -13q-56 0 -100.5 14zM405.5 481q15.5 44 15.5 82q0 33 -14 54q-22 29 -87 29q-66 0 -99 -29q-21 -19 -36.5 -65t-15.5 -84q0 -30 13 -51q22 -29 88 -29t98 29q22 20 37.5 64zM354 151q18 44 18 84
q0 34 -17 58q-24 33 -97 33q-71 0 -110 -33q-23 -20 -40 -65t-17 -83q0 -35 16 -58q25 -32 98 -32q74 0 109 32q22 20 40 64z" />
    <glyph glyph-name="nine" unicode="9" horiz-adv-x="510" 
d="M286 253l10 11q-21 -6 -41 -6q-117 0 -159 55q-32 44 -32 102q0 28 8 71q12 60 31.5 102.5t51.5 71.5q32 28 70 41.5t98 13.5q55 0 97.5 -14t63.5 -42q30 -42 30 -102q0 -28 -8 -71v-1q-13 -69 -47.5 -131t-117.5 -145l-206 -209h-101zM256.5 636.5
q-23.5 -8.5 -42.5 -25.5q-40 -36 -59 -127q-7 -32 -7 -61q0 -41 17 -65q24 -35 92 -35q37 0 62 9t44 26q41 36 59 126q7 34 7 63q0 42 -16 64q-22 34 -100 34q-33 0 -56.5 -8.5z" />
    <glyph glyph-name="colon" unicode=":" horiz-adv-x="256" 
d="M197 440q0 -32 -13.5 -48t-38.5 -16q-41 0 -41 32q0 64 53 64q40 0 40 -32zM122 58q0 -32 -13.5 -48t-38.5 -16q-41 0 -41 32q0 64 53 64q40 0 40 -32z" />
    <glyph glyph-name="semicolon" unicode=";" horiz-adv-x="256" 
d="M197 440q0 -32 -13.5 -48t-38.5 -16q-41 0 -41 32q0 64 53 64q40 0 40 -32zM131 94l-117 -207h-53l98 207h72z" />
    <glyph glyph-name="less" unicode="&#x3c;" horiz-adv-x="512" 
d="M57 297l421 172l-14 -68l-347 -140l292 -139l-10 -60l-354 172z" />
    <glyph glyph-name="equal" unicode="=" 
d="M76 378h383l-11 -59h-383zM44 210h383l-11 -59h-383z" />
    <glyph glyph-name="greater" unicode="&#x3e;" horiz-adv-x="512" 
d="M433 234l-421 -172l14 68l347 139l-292 140l10 60l354 -172z" />
    <glyph glyph-name="question" unicode="?" horiz-adv-x="451" 
d="M113 351q104 26 146 43.5t63 36.5q18 16 32.5 57.5t14.5 74.5t-15 54q-23 30 -103 30q-64 0 -154 -18l12 67q72 19 152 19q52 0 93 -13t61 -39q26 -37 26 -91q0 -49 -19.5 -104.5t-48.5 -80.5q-27 -23 -64.5 -40.5t-135.5 -44.5l-20 -94h-67zM134 58q0 -32 -13.5 -48
t-38.5 -16q-41 0 -41 32q0 64 53 64q40 0 40 -32z" />
    <glyph glyph-name="at" unicode="@" horiz-adv-x="906" 
d="M279.5 -130q-82.5 25 -132.5 75t-80 134.5t-31 200.5q0 114 32 198.5t84 136.5q51 51 129.5 75.5t177.5 24.5q98 0 176.5 -24.5t129.5 -75.5q49 -50 77.5 -115t28.5 -154q0 -83 -20.5 -145.5t-53.5 -97.5q-24 -25 -57 -38.5t-69 -13.5q-48 0 -83.5 18t-47.5 59
q-35 -34 -80 -55.5t-87 -21.5q-39 0 -68.5 14t-45.5 40q-20 30 -20 88q0 41 10 88q12 61 32 106.5t42 65.5q48 45 128 45q39 0 76 -17t59 -45l10 50h73l-60 -283q-4 -17 -4 -34q0 -34 19.5 -50t50.5 -16q54 0 89 39q22 24 36.5 80.5t14.5 123.5q0 75 -24.5 135t-63.5 99
q-42 42 -114 63t-154 21t-154.5 -21t-114.5 -63q-41 -41 -69.5 -121t-28.5 -179q0 -100 26.5 -179t67.5 -119q42 -42 116 -64t164 -22q160 0 278 44v-46q-121 -49 -275 -49q-107 0 -189.5 25zM536 175q0 10 4 34l36 179q-48 44 -112 44q-55 0 -86 -26q-15 -14 -30 -45.5
t-26 -79.5q-10 -46 -10 -82q0 -41 12 -55q21 -28 72 -28q57 0 140 59z" />
    <glyph glyph-name="A" unicode="A" horiz-adv-x="679" 
d="M480 233h-302q-65 -132 -105 -233h-88q73 182 177 368.5t207 331.5h93q47 -147 78.5 -333t34.5 -367h-80q0 98 -15 233zM215 305h256q-12 93 -29 177.5t-36 143.5q-89 -123 -191 -321z" />
    <glyph glyph-name="B" unicode="B" horiz-adv-x="687" 
d="M447 700q56 0 101.5 -13.5t66.5 -39.5q28 -35 28 -82q0 -56 -18.5 -103.5t-53.5 -75.5q-29 -23 -76 -32q55 -16 78 -46q18 -25 18 -67q0 -51 -18.5 -106t-52.5 -85q-32 -27 -83.5 -38.5t-141.5 -11.5h-250l136 700h266zM203 387h149q117 0 158 37q21 18 34.5 54.5
t13.5 70.5q0 27 -13 46q-25 33 -139 33h-156zM142 72h167q61 0 97 8.5t57 26.5q24 22 36 62t12 76q0 28 -12 44q-25 35 -147 35h-161z" />
    <glyph glyph-name="C" unicode="C" horiz-adv-x="622" 
d="M184.5 4q-59.5 19 -86.5 53q-41 57 -41 139q0 66 16.5 156t48.5 171t77 120q84 72 245 72q104 0 172 -34l-13 -67q-80 29 -164 29q-58 -1 -104 -14.5t-73 -37.5q-33 -28 -60 -95.5t-42.5 -147.5t-15.5 -141q0 -66 23 -98q17 -25 58 -38.5t99 -13.5q92 0 186 29l-13 -67
q-81 -34 -184 -34q-69 0 -128.5 19z" />
    <glyph glyph-name="D" unicode="D" horiz-adv-x="721" 
d="M432 700q69 0 123.5 -20t82.5 -56q22 -28 31.5 -59.5t9.5 -70.5q0 -58 -15.5 -143t-45.5 -162t-71 -113q-44 -39 -101.5 -57.5t-149.5 -18.5h-251l136 700h251zM142 72h158q69 0 110.5 12t70.5 38q32 29 58 94.5t40 141t14 132.5q0 56 -25 88q-36 50 -159 50h-159z" />
    <glyph glyph-name="E" unicode="E" horiz-adv-x="635" 
d="M45 0l136 700h454l-14 -72h-371l-47 -237h341l-13 -71h-341l-49 -248h371l-13 -72h-454z" />
    <glyph glyph-name="F" unicode="F" horiz-adv-x="586" 
d="M128 0h-83l136 700h439l-14 -71h-356l-48 -246h324l-13 -72h-325z" />
    <glyph glyph-name="G" unicode="G" horiz-adv-x="690" 
d="M448 -6.5q-56 -8.5 -118 -8.5q-74 0 -138 18t-92 53q-22 30 -32 64.5t-10 77.5q0 67 16 156t48.5 168.5t78.5 120.5q84 72 260 72q124 0 200 -38l-13 -68q-46 17 -90 25.5t-102 8.5q-65 0 -114.5 -13t-78.5 -39q-33 -28 -60 -95.5t-43 -146.5t-16 -140q0 -69 25 -101
q19 -25 63 -38t109 -13t130 14l40 209h-170l13 72h254l-65 -337h-1q-38 -13 -94 -21.5z" />
    <glyph glyph-name="H" unicode="H" horiz-adv-x="753" 
d="M190 320l-62 -320h-83l136 700h83l-60 -309h377l60 309h83l-136 -700h-83l62 320h-377z" />
    <glyph glyph-name="I" unicode="I" horiz-adv-x="301" 
d="M268 700l-136 -700h-83l136 700h83z" />
    <glyph glyph-name="J" unicode="J" horiz-adv-x="518" 
d="M212.5 66q25.5 8 47.5 27q23 21 35.5 52.5t23.5 88.5l91 466h83l-90 -461q-16 -80 -36.5 -128t-54.5 -77q-54 -49 -169 -49q-44 0 -88 10t-73 24l13 67q71 -28 147 -28q45 0 70.5 8z" />
    <glyph glyph-name="K" unicode="K" horiz-adv-x="662" 
d="M128 0h-83l136 700h83l-64 -328l361 328h108l-400 -357l291 -343h-98l-272 320z" />
    <glyph glyph-name="L" unicode="L" horiz-adv-x="568" 
d="M45 0l136 700h82l-122 -628h351l-13 -72h-434z" />
    <glyph glyph-name="M" unicode="M" horiz-adv-x="828" 
d="M123 0h-78l136 700h60l176 -348l308 348h74l-136 -700h-82l105 545l-289 -325l-167 328z" />
    <glyph glyph-name="N" unicode="N" horiz-adv-x="755" 
d="M123 0h-78l136 700h67l287 -562l110 562h79l-136 -700h-67l-289 562z" />
    <glyph glyph-name="O" unicode="O" horiz-adv-x="729" 
d="M183 4q-59 19 -85 53q-43 57 -43 140q0 55 17 142.5t50 171.5t78 129q38 38 97.5 56.5t133.5 18.5q71 0 129.5 -19t84.5 -53q43 -57 43 -140q0 -55 -17 -142.5t-50 -171.5t-78 -129q-38 -38 -97 -56.5t-131 -18.5q-73 0 -132 19zM327.5 629.5q-40.5 -13.5 -66.5 -39.5
q-33 -33 -60.5 -105.5t-44 -152.5t-16.5 -130q0 -61 25 -94q18 -24 56.5 -37.5t92.5 -13.5q61 0 101.5 13.5t66.5 39.5q33 33 60.5 105.5t44 152.5t16.5 130q0 61 -25 94q-18 24 -56.5 37.5t-92.5 13.5q-61 0 -101.5 -13.5z" />
    <glyph glyph-name="P" unicode="P" horiz-adv-x="646" 
d="M439 700q58 0 102.5 -15t66.5 -44q28 -38 28 -99q0 -65 -25.5 -137t-60.5 -104q-34 -29 -80 -41t-119 -12h-175l-48 -248h-83l136 700h258zM190 320h149q62 0 96 8t57 29q28 27 44 80t16 100q0 36 -14 54q-15 20 -49.5 28.5t-88.5 8.5h-150z" />
    <glyph glyph-name="Q" unicode="Q" horiz-adv-x="729" 
d="M315 -15q-73 0 -132 19t-85 53q-43 57 -43 140q0 55 17 142.5t50 171.5t78 129q38 38 97.5 56.5t133.5 18.5q71 0 129.5 -19t84.5 -53q43 -57 43 -140q0 -55 -17 -142.5t-50 -171.5t-78 -129q-47 -47 -126 -64l138 -109l-60 -46l-174 144h-6zM327.5 629.5
q-40.5 -13.5 -66.5 -39.5q-33 -33 -60.5 -105.5t-44 -152.5t-16.5 -130q0 -61 25 -94q18 -24 56.5 -37.5t92.5 -13.5q61 0 101.5 13.5t66.5 39.5q33 33 60.5 105.5t44 152.5t16.5 130q0 61 -25 94q-18 24 -56.5 37.5t-92.5 13.5q-61 0 -101.5 -13.5z" />
    <glyph glyph-name="R" unicode="R" horiz-adv-x="681" 
d="M439 700q56 0 104 -14.5t69 -42.5q26 -36 26 -93q0 -62 -21.5 -122.5t-55.5 -91.5q-28 -24 -67 -35.5t-100 -16.5l162 -284h-100l-151 281h-122l-55 -281h-83l136 700h258zM196 348h149q114 0 157 38q24 20 38 68.5t14 90.5q0 30 -12 46q-26 37 -142 37h-150z" />
    <glyph glyph-name="S" unicode="S" horiz-adv-x="604" 
d="M12 22l12 67q49 -15 98.5 -22t109.5 -7q59 0 103 10t65 29q20 18 31 53t11 71q0 24 -8 37q-9 13 -37.5 23.5t-93.5 29.5q-78 22 -125.5 41t-66.5 44q-16 20 -16 64q0 54 18.5 110t46.5 81q33 29 94 44t135 15q116 0 193 -34l-12 -67q-46 16 -90 22.5t-98 6.5
q-60 0 -102 -9t-66 -30q-16 -14 -26.5 -49t-10.5 -66q0 -27 8 -36q12 -17 48 -30.5t107 -35.5q74 -23 113.5 -38.5t53.5 -34.5q18 -24 18 -70q0 -57 -17.5 -111.5t-54.5 -86.5q-63 -55 -230 -55q-138 0 -211 34z" />
    <glyph glyph-name="T" unicode="T" horiz-adv-x="638" 
d="M300 0h-82l122 628h-249l14 72h580l-14 -72h-249z" />
    <glyph glyph-name="U" unicode="U" horiz-adv-x="743" 
d="M188.5 3q-55.5 18 -81.5 53q-27 37 -27 108q0 66 22 178l70 358h83l-70 -358q-25 -122 -25 -171q0 -42 16 -64q37 -49 145 -49q60 0 97.5 11t65.5 36q30 26 47.5 77.5t38.5 159.5l70 358h83l-70 -358q-25 -127 -46 -190t-61 -98q-41 -36 -98 -52.5t-140 -16.5
q-64 0 -119.5 18z" />
    <glyph glyph-name="V" unicode="V" horiz-adv-x="669" 
d="M150 332q-32 187 -34 368h83q0 -149 25.5 -331.5t61.5 -294.5q78 109 175.5 292t157.5 334h87q-73 -181 -177.5 -368t-207.5 -332h-92q-47 145 -79 332z" />
    <glyph glyph-name="W" unicode="W" horiz-adv-x="1025" 
d="M137 310.5q-15 183.5 -21 389.5h83q2 -145 13 -312t27 -285l299 597h96l65 -591q62 121 137.5 286t132.5 305h92q-85 -204 -172 -388t-162 -312h-93l-67 589l-295 -589h-94q-26 127 -41 310.5z" />
    <glyph glyph-name="X" unicode="X" horiz-adv-x="685" 
d="M306 358l-176 341h90l143 -281l246 282h103l-315 -348l185 -351h-91l-151 291l-254 -292h-103z" />
    <glyph glyph-name="Y" unicode="Y" horiz-adv-x="661" 
d="M172.5 473.5q-42.5 109.5 -60.5 226.5h82q16 -92 53.5 -194t83.5 -180q76 77 153 179t130 195h88q-64 -117 -150 -227.5t-192 -222.5l-48 -250h-83l48 252q-62 112 -104.5 221.5z" />
    <glyph glyph-name="Z" unicode="Z" horiz-adv-x="653" 
d="M10 57l525 570h-398l15 73h513l-11 -57l-528 -570h426l-14 -73h-538z" />
    <glyph glyph-name="bracketleft" unicode="[" horiz-adv-x="342" 
d="M390 700l-12 -58h-156l-141 -719h157l-11 -58h-222l163 835h222z" />
    <glyph glyph-name="backslash" unicode="\" horiz-adv-x="415" 
d="M156 735l160 -870h-62l-160 870h62z" />
    <glyph glyph-name="bracketright" unicode="]" horiz-adv-x="342" 
d="M108 -77l141 719h-157l12 58h222l-163 -835h-222l11 58h156z" />
    <glyph glyph-name="asciicircum" unicode="^" horiz-adv-x="470" 
d="M277 665h54l72 -300h-58l-52 229l-142 -229h-64z" />
    <glyph glyph-name="underscore" unicode="_" horiz-adv-x="470" 
d="M372 -195h-469l11 58h469z" />
    <glyph glyph-name="grave" unicode="`" horiz-adv-x="470" 
d="M323 583l-119 152h93l94 -152h-68z" />
    <glyph glyph-name="a" unicode="a" horiz-adv-x="582" 
d="M292.5 5.5q-44.5 -20.5 -87.5 -20.5q-44 0 -81 15t-57 42q-18 23 -25.5 53t-7.5 72q0 54 14 120t38 122.5t52 82.5q54 51 137 51q57 0 102.5 -22t75.5 -63l13 71h78l-101 -529h-78l12 65q-40 -39 -84.5 -59.5zM388 118l55 292q-33 32 -71 47t-85 15q-54 0 -90 -31
q-34 -31 -59 -118t-25 -156q0 -45 18 -69q32 -43 99 -43t158 63z" />
    <glyph glyph-name="b" unicode="b" horiz-adv-x="593" 
d="M188.5 7q-48.5 22 -78.5 63l-13 -70h-78l142 735h78l-52 -271q41 38 88.5 58.5t92.5 20.5q44 0 81 -15t57 -42q18 -23 25.5 -53t7.5 -72q0 -54 -14 -120t-38 -122.5t-52 -82.5q-54 -51 -137 -51q-61 0 -109.5 22zM376 87q34 31 59 118t25 156q0 45 -18 69q-32 43 -99 43
q-74 0 -167 -63l-56 -292q66 -62 166 -62q54 0 90 31z" />
    <glyph glyph-name="c" unicode="c" horiz-adv-x="494" 
d="M132.5 -0.5q-49.5 14.5 -70.5 43.5q-30 40 -30 108q0 52 13 119t37.5 126t57.5 89q66 58 192 58q89 0 144 -25l-12 -66q-65 22 -136 22q-49 0 -79.5 -9.5t-54.5 -30.5q-34 -30 -58.5 -115.5t-24.5 -158.5q0 -45 15 -66t42.5 -30.5t76.5 -9.5q71 0 148 23l-12 -65
q-69 -27 -147 -27q-52 0 -101.5 14.5z" />
    <glyph glyph-name="d" unicode="d" horiz-adv-x="593" 
d="M299 6q-48 -21 -94 -21q-44 0 -81 15t-57 42q-18 23 -25.5 53t-7.5 72q0 54 14 120t38 122.5t52 82.5q54 51 137 51q62 0 111 -22.5t78 -64.5l54 279h78l-142 -735h-78l13 66q-42 -39 -90 -60zM399 120l56 288q-68 64 -168 64q-54 0 -90 -31q-34 -31 -59 -118t-25 -156
q0 -45 18 -69q32 -43 99 -43q77 0 169 65z" />
    <glyph glyph-name="e" unicode="e" horiz-adv-x="533" 
d="M238 -15q-54 0 -103.5 13.5t-70.5 43.5q-30 40 -30 107q0 56 14 124t39 126t56 86q65 58 177 58q120 0 156 -60q16 -26 16 -68q0 -35 -11.5 -70t-32.5 -56q-24 -24 -69.5 -35.5t-134.5 -11.5h-122q-8 -48 -8 -84q0 -46 15 -65q14 -19 48 -29t78 -10q85 0 158 22l-12 -65
q-68 -26 -163 -26zM163.5 388.5q-16.5 -37.5 -28.5 -85.5h121q61 0 93 8.5t46 25.5q10 12 15.5 32t5.5 39q0 25 -9 39q-21 33 -100 33q-68 0 -109 -38q-18 -16 -34.5 -53.5z" />
    <glyph glyph-name="f" unicode="f" horiz-adv-x="380" 
d="M-114 -194l11 63q14 -6 31.5 -10.5t33.5 -4.5q35 0 52 15q12 11 20 36t20 88l89 469h-74l13 66h74l5 28q12 62 28 99.5t38 56.5q42 38 125 38q68 0 107 -18l-12 -66q-17 7 -41.5 11.5t-48.5 4.5q-56 0 -80 -21q-11 -11 -20 -33.5t-18 -71.5l-5 -28h164l-13 -66h-164
l-89 -469q-15 -78 -29 -114.5t-36 -58.5q-30 -30 -101 -30q-42 0 -80 16z" />
    <glyph glyph-name="g" unicode="g" horiz-adv-x="594" 
d="M0 -177l12 66q82 -31 165 -31q43 0 81 10t63 31q22 19 38 56t28 101l6 29q-43 -41 -92 -63t-96 -22q-44 0 -81 15t-57 42q-18 23 -25.5 53t-7.5 72q0 51 14 113.5t38 116.5t52 80q54 51 137 51q62 0 111.5 -22.5t78.5 -65.5l14 73h78l-91 -468q-29 -154 -98 -215
q-35 -29 -81 -42t-116 -13q-100 0 -171 33zM403 137l53 271q-68 64 -169 64q-54 0 -90 -31q-33 -30 -58.5 -112t-25.5 -147q0 -45 18 -69q32 -43 99 -43q78 0 173 67z" />
    <glyph glyph-name="h" unicode="h" horiz-adv-x="588" 
d="M269.5 455q-48.5 -18 -94.5 -50l-78 -405h-78l142 735h78l-54 -281q42 40 99 64.5t110 24.5q42 0 71.5 -13.5t43.5 -32.5q22 -30 22 -75q0 -26 -5 -49l-72 -373h-78l66 342q8 42 8 63q0 26 -10 41q-11 14 -30 20.5t-53 6.5q-39 0 -87.5 -18z" />
    <glyph glyph-name="i" unicode="i" horiz-adv-x="235" 
d="M149 696q0 24 13 39t41 15q17 0 27 -8t10 -23q0 -56 -52 -56q-39 0 -39 33zM199 528l-102 -528h-78l102 528h78z" />
    <glyph glyph-name="j" unicode="j" horiz-adv-x="236" 
d="M149 696q0 24 13 39t41 15q17 0 27 -8t10 -23q0 -56 -52 -56q-39 0 -39 33zM-151 -194l11 63q14 -6 31.5 -10.5t33.5 -4.5q35 0 52 15q12 11 20 36t20 88l104 535h78l-104 -535q-15 -78 -29 -114.5t-36 -58.5q-30 -30 -101 -30q-42 0 -80 16z" />
    <glyph glyph-name="k" unicode="k" horiz-adv-x="526" 
d="M97 0h-78l142 735h78l-81 -422l278 215h101l-314 -243l214 -285h-91l-198 263z" />
    <glyph glyph-name="l" unicode="l" horiz-adv-x="333" 
d="M119 99q0 -17 6 -26q16 -19 51 -19q43 0 80 16l-12 -66q-34 -19 -88 -19q-75 0 -99 37q-15 21 -15 67t12 106l105 540h79l-105 -543q-14 -69 -14 -93z" />
    <glyph glyph-name="m" unicode="m" horiz-adv-x="891" 
d="M261.5 455q-42.5 -18 -86.5 -50l-78 -405h-78l102 528h78l-14 -73q41 39 92 63.5t98 24.5q40 0 67 -13t41 -31q17 -21 21 -55q43 44 97.5 71.5t104.5 27.5q40 0 67 -13t40 -31q21 -27 21 -74q0 -27 -5 -52l-72 -373h-78l67 342q7 36 7 64q0 27 -9 40q-11 14 -28 20.5
t-48 6.5q-33 0 -76 -18.5t-88 -50.5q0 -9 -4 -31l-72 -373h-78l66 342q7 35 7 61q0 30 -10 43q-11 14 -28 20.5t-47 6.5q-34 0 -76.5 -18z" />
    <glyph glyph-name="n" unicode="n" horiz-adv-x="588" 
d="M269.5 455q-48.5 -18 -94.5 -50l-78 -405h-78l102 528h78l-14 -74q42 40 99 64.5t110 24.5q42 0 71.5 -13.5t43.5 -32.5q22 -30 22 -75q0 -26 -5 -49l-72 -373h-78l66 342q8 42 8 63q0 26 -10 41q-11 14 -30 20.5t-53 6.5q-39 0 -87.5 -18z" />
    <glyph glyph-name="o" unicode="o" horiz-adv-x="573" 
d="M130.5 -0.5q-48.5 14.5 -70.5 44.5q-28 38 -28 105q0 51 13 119t36.5 127.5t53.5 86.5q38 33 80 47t105 14q56 0 104.5 -14.5t70.5 -43.5q28 -38 28 -105q0 -52 -13.5 -120t-37 -127.5t-52.5 -85.5q-38 -34 -79.5 -48t-104.5 -14q-57 0 -105.5 14.5zM309 62.5
q32 10.5 52 28.5q34 31 58.5 120t24.5 161q0 45 -15 66q-13 18 -41 28t-68 10q-41 0 -73.5 -10t-52.5 -28q-34 -31 -58.5 -120.5t-24.5 -161.5q0 -44 15 -65q13 -18 41.5 -28.5t68.5 -10.5q41 0 73 10.5z" />
    <glyph glyph-name="p" unicode="p" horiz-adv-x="593" 
d="M188.5 7q-48.5 22 -78.5 63l-51 -265h-78l140 723h78l-12 -64q41 38 88.5 58.5t92.5 20.5q44 0 81 -15t57 -42q18 -23 25.5 -53t7.5 -72q0 -54 -14 -120t-38 -122.5t-52 -82.5q-54 -51 -137 -51q-61 0 -109.5 22zM376 87q34 31 59 118t25 156q0 45 -18 69q-32 43 -99 43
q-74 0 -167 -63l-56 -292q66 -62 166 -62q54 0 90 31z" />
    <glyph glyph-name="q" unicode="q" horiz-adv-x="592" 
d="M388 66q-41 -39 -89 -60t-94 -21q-44 0 -81 15t-57 42q-18 23 -25.5 53t-7.5 72q0 54 14 120t38 122.5t52 82.5q54 51 137 51q62 0 111 -22.5t78 -64.5l14 72h78l-141 -723h-78zM398 119l57 289q-68 64 -168 64q-54 0 -90 -31q-34 -31 -59 -118t-25 -156q0 -45 18 -69
q32 -43 99 -43q76 0 168 64z" />
    <glyph glyph-name="r" unicode="r" horiz-adv-x="425" 
d="M121 528h78l-16 -82q43 46 94 71.5t104 25.5q36 0 56 -6l-14 -73q-26 8 -65 8q-45 0 -93.5 -22.5t-93.5 -65.5l-74 -384h-78z" />
    <glyph glyph-name="s" unicode="s" horiz-adv-x="500" 
d="M75.5 -4.5q-42.5 7.5 -67.5 19.5l12 64q72 -25 162 -25q47 0 76.5 5.5t48.5 22.5q12 12 21 38t9 49q0 21 -6 30q-6 8 -27.5 16t-65.5 22q-62 19 -97.5 33t-49.5 32q-19 25 -19 56q0 36 14.5 76.5t34.5 59.5q31 27 75 37t105 10q98 0 157 -27l-12 -63q-78 24 -151 24
q-39 0 -72 -7.5t-49 -22.5q-11 -9 -18 -31t-7 -42q0 -17 6 -25q9 -11 34 -20.5t74 -23.5q54 -16 86 -28.5t45 -27.5q20 -24 20 -61q0 -41 -15.5 -87t-38.5 -66q-30 -27 -76.5 -36t-110.5 -9q-55 0 -97.5 7.5z" />
    <glyph glyph-name="t" unicode="t" horiz-adv-x="416" 
d="M208 -15q-44 0 -70.5 9t-40.5 30q-16 25 -16 69q0 31 9 79l56 290h-74l13 66h74l26 133h78l-26 -133h151l-12 -66h-152l-52 -270q-12 -66 -12 -88q0 -21 8 -32q14 -19 61 -19q22 0 47 4.5t44 12.5l-12 -67q-42 -18 -100 -18z" />
    <glyph glyph-name="u" unicode="u" horiz-adv-x="588" 
d="M286 9.5q-57 -24.5 -110 -24.5q-42 0 -71.5 13.5t-43.5 32.5q-22 30 -22 75q0 27 5 49l72 373h78l-66 -342q-8 -42 -8 -63q0 -26 10 -41q11 -14 30 -20.5t53 -6.5q39 0 87.5 18t94.5 50l78 405h78l-102 -528h-78l14 74q-42 -40 -99 -64.5z" />
    <glyph glyph-name="v" unicode="v" horiz-adv-x="537" 
d="M108.5 254q-26.5 140 -33.5 274h79q4 -102 23.5 -230t43.5 -221q60 91 129 218.5t115 232.5h81q-59 -134 -140.5 -275t-159.5 -253h-76q-35 114 -61.5 254z" />
    <glyph glyph-name="w" unicode="w" horiz-adv-x="815" 
d="M101 246.5q-16 142.5 -20 281.5h80q2 -98 11 -218.5t21 -212.5l216 431h81l47 -422q47 90 101.5 207.5t94.5 214.5h86q-59 -140 -130 -282.5t-133 -245.5h-79l-50 409l-208 -409h-80q-22 104 -38 246.5z" />
    <glyph glyph-name="x" unicode="x" horiz-adv-x="566" 
d="M232 271l-132 257h89l99 -201l174 201h96l-238 -262l141 -266h-88l-109 211l-184 -211h-96z" />
    <glyph glyph-name="y" unicode="y" horiz-adv-x="539" 
d="M-28 -201l12 68q23 -8 45 -8q28 0 47 13.5t49 56.5q32 44 53 76q-34 110 -62 249t-41 274h78q9 -104 31 -222t48 -217q130 209 234 439h82q-79 -171 -171.5 -331t-179.5 -281q-34 -50 -58.5 -76.5t-50.5 -38t-62 -11.5q-31 0 -54 9z" />
    <glyph glyph-name="z" unicode="z" horiz-adv-x="525" 
d="M5 51l380 411h-291l13 66h395l-9 -51h-1l-382 -410h311l-12 -67h-413z" />
    <glyph glyph-name="braceleft" unicode="{" horiz-adv-x="365" 
d="M82 315q18 4 31 16q12 11 22 32t19 70l11 54q15 73 29.5 110t39.5 58q51 45 179 45l-12 -58q-89 0 -122 -29q-16 -15 -27.5 -43t-22.5 -83l-10 -53q-18 -95 -41 -120q-11 -11 -24 -18.5t-38 -13.5q17 -10 26 -19t16 -22q10 -20 10 -44q0 -19 -8 -65l-10 -53
q-11 -60 -11 -85q0 -26 11 -42q21 -29 111 -29l-11 -58q-59 0 -97 11.5t-57 36.5q-12 15 -17 31t-5 39q0 33 12 96l10 54q8 40 8 66q0 22 -9 35q-9 11 -25.5 15t-56.5 4l11 58q40 0 58 4z" />
    <glyph glyph-name="bar" unicode="|" horiz-adv-x="282" 
d="M24 -135l169 870h60l-169 -870h-60z" />
    <glyph glyph-name="braceright" unicode="}" horiz-adv-x="365" 
d="M272 250q-18 -4 -31 -16q-12 -11 -22 -32t-19 -70l-11 -54q-15 -73 -29.5 -110t-39.5 -58q-51 -45 -179 -45l12 58q89 0 122 29q16 15 27.5 43t22.5 83l10 53q18 95 41 120q11 11 24 18.5t38 13.5q-17 10 -26 19t-16 22q-10 20 -10 44q0 19 8 65l10 53q11 60 11 85
q0 26 -11 42q-21 29 -111 29l11 58q59 0 97 -11.5t57 -36.5q12 -15 17 -31t5 -39q0 -33 -12 -96l-10 -54q-8 -40 -8 -66q0 -22 9 -35q9 -11 25.5 -15t56.5 -4l-11 -58q-40 0 -58 -4z" />
    <glyph glyph-name="asciitilde" unicode="~" horiz-adv-x="470" 
d="M69 310q12 32 28 46q23 20 55 20q40 0 62 -19q8 -8 36 -52q22 -35 29 -42q10 -10 31 -10q18 0 27 10q8 9 15 31t16 71h46q-10 -63 -21.5 -94t-25.5 -45q-13 -13 -25.5 -17.5t-32.5 -4.5q-43 0 -62 19q-12 11 -38 55q-19 32 -25 38q-10 10 -28 10q-19 0 -29 -10
q-8 -8 -15 -30t-16 -71h-48q9 63 21 95z" />
    <glyph glyph-name="exclamdown" unicode="&#xa1;" horiz-adv-x="255" 
d="M210 511q0 -32 -13.5 -48t-38.5 -16q-41 0 -41 32q0 64 53 64q40 0 40 -32zM-6 -163l104 483h64l-85 -483h-83z" />
    <glyph glyph-name="cent" unicode="&#xa2;" horiz-adv-x="510" 
d="M284 72l-31 -159h-63l31 160q-116 9 -154 60q-31 39 -31 111q0 55 13.5 121t37.5 122.5t55 83.5q34 30 78.5 44t108.5 16l31 159h63l-31 -160q77 -5 124 -25l-13 -69q-53 20 -125 23l-80 -414q67 3 136 24l-13 -69q-62 -25 -137 -28zM235 145l80 413q-78 -6 -115 -39
q-34 -29 -58 -110.5t-24 -152.5q0 -49 16 -71q26 -34 101 -40z" />
    <glyph glyph-name="sterling" unicode="&#xa3;" 
d="M-15 70h107l48 250h-100l11 61h101l18 92q15 78 31 121.5t43 67.5q29 26 71 39.5t91 13.5q75 0 126 -27l-13 -68q-51 21 -112 21q-71 0 -104 -30q-20 -17 -30.5 -47t-22.5 -92l-18 -91h209l-11 -61h-209l-49 -250h250l-12 -70h-438z" />
    <glyph glyph-name="currency" unicode="&#xa4;" 
d="M238 183q-64 0 -93 24l-51 -46l-38 42l60 54q-2 16 -2 25q0 41 10.5 87.5t27.5 79.5l-38 50l43 41l35 -45q36 24 100 24q61 0 92 -23l51 45l37 -42l-60 -53q3 -12 3 -26q0 -39 -10.5 -87t-27.5 -82l37 -49l-43 -42l-35 46q-37 -23 -98 -23zM311 253q20 18 34 67.5
t14 89.5q0 28 -10 39q-15 22 -60 22q-46 0 -71 -22q-19 -17 -33 -68t-14 -92q0 -24 9 -36q16 -21 62 -21q45 0 69 21z" />
    <glyph glyph-name="yen" unicode="&#xa5;" horiz-adv-x="510" 
d="M30 240l11 62h171l19 98h-170l11 61h130q-53 105 -100 239h83q44 -133 98 -234q80 85 190 234h86q-96 -130 -193 -239h130l-12 -61h-173l-19 -98h173l-12 -62h-173l-46 -240h-80l46 240h-170z" />
    <glyph glyph-name="brokenbar" unicode="&#xa6;" horiz-adv-x="282" 
d="M130 411l63 324h60l-63 -324h-60zM84 -135h-60l62 322h60z" />
    <glyph glyph-name="section" unicode="&#xa7;" horiz-adv-x="516" 
d="M28 -112l11 62q71 -22 123 -22q36 0 59.5 5t38.5 19q14 12 24 45t10 61q0 19 -5 25q-11 15 -32.5 26.5t-57.5 25.5q-42 18 -65.5 30.5t-36.5 30.5q-18 21 -18 57q0 39 13.5 81t35.5 61q28 25 59 33q-14 10 -24 23q-14 17 -14 53q0 45 15.5 96.5t37.5 71.5q27 24 60.5 33
t83.5 9q83 0 138 -23l-11 -61q-68 21 -122 21q-37 0 -61 -5t-39 -19q-13 -12 -23 -45.5t-10 -61.5q0 -16 5 -24q11 -14 29.5 -24t59.5 -28q41 -16 65.5 -29t37.5 -32q18 -25 18 -56q0 -39 -13.5 -81t-34.5 -61q-26 -22 -60 -32q14 -10 24 -23q14 -21 14 -51q0 -46 -16 -99
t-38 -72q-27 -24 -60.5 -33.5t-83.5 -9.5q-78 0 -137 23zM181 218.5q21 -10.5 55 -23.5l49 -20q31 12 48 27q14 13 25 46t11 60q0 21 -7 29q-10 14 -31.5 24.5t-55.5 23.5q-11 5 -23.5 10t-23.5 10q-32 -11 -48 -27q-14 -14 -25 -47.5t-11 -60.5q0 -19 6 -28
q10 -13 31 -23.5z" />
    <glyph glyph-name="dieresis" unicode="&#xa8;" horiz-adv-x="470" 
d="M251.5 673.5q-11.5 -10.5 -33.5 -10.5q-36 0 -36 31q0 8 1 13q5 22 17 32.5t34 10.5q34 0 34 -31q0 -8 -1 -13q-4 -22 -15.5 -32.5zM426 673.5q-12 -10.5 -34 -10.5q-35 0 -35 30q0 8 1 13q9 44 50 44q35 0 35 -31q0 -8 -1 -13q-4 -22 -16 -32.5z" />
    <glyph glyph-name="copyright" unicode="&#xa9;" horiz-adv-x="781" 
d="M492.5 5.5q-66.5 -20.5 -145.5 -20.5q-87 0 -151.5 22t-97.5 65q-47 63 -47 162q0 69 19 150.5t51.5 149t69.5 100.5q45 40 112 60.5t145 20.5q87 0 152 -22t98 -65q47 -65 47 -163q0 -71 -19 -151.5t-51.5 -147.5t-70.5 -100q-45 -40 -111.5 -60.5zM582 655
q-56 19 -131 19q-70 0 -131 -17.5t-98 -50.5q-32 -27 -62 -90.5t-48 -139.5t-18 -140q0 -88 38 -136q26 -37 82 -55.5t131 -18.5q70 0 131 17.5t98 50.5q31 27 60.5 88.5t48.5 136.5t19 140q0 90 -39 141q-25 36 -81 55zM295.5 143q-38.5 12 -56.5 37q-22 29 -22 76
q0 39 9.5 93t28.5 103t46 73q50 44 141 44q76 0 115 -21l-9 -46q-49 17 -99 17q-70 0 -103 -30q-28 -24 -48 -94.5t-20 -127.5q0 -39 13 -56q23 -29 92 -29q54 0 112 17l-9 -47q-40 -21 -109 -21q-43 0 -81.5 12z" />
    <glyph glyph-name="ordfeminine" unicode="&#xaa;" horiz-adv-x="384" 
d="M232 370.5q-26 -9.5 -60 -9.5q-23 0 -44 6.5t-31 20.5q-14 17 -14 47q0 29 9.5 56t23.5 40q29 24 79 24q60 0 113 -32l7 36q6 30 6 43q0 14 -8 25q-15 20 -77 20q-22 0 -49.5 -4t-49.5 -11l9 49q43 16 99 16q89 0 115 -34q16 -20 16 -52q0 -20 -6 -52l-37 -189h-56l6 30
q-25 -20 -51 -29.5zM290 434l11 58q-43 23 -93 23q-35 0 -50 -13q-8 -8 -14.5 -28.5t-6.5 -36.5q0 -11 5 -18q8 -13 44 -13q55 0 104 28zM309 246h-255l9 50h256z" />
    <glyph glyph-name="guillemotleft" unicode="&#xab;" horiz-adv-x="435" 
d="M184 474h72l-166 -216l76 -197h-62l-83 207zM365 474h72l-166 -216l76 -197h-62l-83 207z" />
    <glyph glyph-name="logicalnot" unicode="&#xac;" 
d="M392 319h-327l11 59h383l-1 -5h1l-43 -222h-57z" />
    <glyph glyph-name="registered" unicode="&#xae;" horiz-adv-x="781" 
d="M492.5 5.5q-66.5 -20.5 -145.5 -20.5q-87 0 -151.5 22t-97.5 65q-47 63 -47 162q0 69 19 150.5t51.5 149t69.5 100.5q45 40 112 60.5t145 20.5q87 0 152 -22t98 -65q47 -65 47 -163q0 -71 -19 -151.5t-51.5 -147.5t-70.5 -100q-45 -40 -111.5 -60.5zM582 655
q-56 19 -131 19q-70 0 -131 -17.5t-98 -50.5q-32 -27 -62 -90.5t-48 -139.5t-18 -140q0 -88 38 -136q26 -37 82 -55.5t131 -18.5q70 0 131 17.5t98 50.5q31 27 60.5 88.5t48.5 136.5t19 140q0 90 -39 141q-25 36 -81 55zM462 560q31 0 59 -9t42 -25q10 -13 14.5 -25.5
t4.5 -32.5q0 -37 -13 -74.5t-35 -56.5q-34 -28 -100 -31l86 -166h-63l-80 165h-67l-32 -165h-59l81 420h162zM319 352h83q66 0 90 21q13 12 21 38t8 51q0 17 -6 27q-16 21 -82 21h-84z" />
    <glyph glyph-name="macron" unicode="&#xaf;" horiz-adv-x="471" 
d="M430 642h-259l9 52h259z" />
    <glyph glyph-name="degree" unicode="&#xb0;" horiz-adv-x="389" 
d="M145.5 369.5q-29.5 8.5 -42.5 27.5q-17 23 -17 63q0 55 18 115t46 86q22 20 49.5 28t64.5 8q35 0 64 -8.5t43 -27.5q16 -23 16 -63q0 -52 -18 -113.5t-45 -87.5q-23 -20 -50 -28t-64 -8q-35 0 -64.5 8.5zM283 431q20 18 34 67.5t14 89.5q0 28 -10 39q-15 22 -60 22
q-46 0 -71 -22q-19 -17 -33 -68t-14 -92q0 -24 9 -36q16 -21 62 -21q45 0 69 21z" />
    <glyph glyph-name="plusminus" unicode="&#xb1;" 
d="M254 163h-57l24 123h-163l12 59h163l24 123h57l-24 -123h163l-12 -59h-163zM26 120h383l-11 -59h-383z" />
    <glyph glyph-name="uni00B2" unicode="&#xb2;" horiz-adv-x="312" 
d="M45 409l161 141q47 42 62 66t23 61q3 15 3 24q0 17 -9 30q-13 18 -68 18q-46 0 -103 -19l9 49q27 11 47 15.5t53 4.5q37 0 69 -10t45 -28q14 -20 14 -44q0 -8 -4 -36q-8 -50 -28 -81.5t-71 -76.5l-118 -104h169l-9 -49h-252z" />
    <glyph glyph-name="uni00B3" unicode="&#xb3;" horiz-adv-x="311" 
d="M42 378l9 48q40 -15 108 -15q53 0 76 19q12 10 21.5 32t9.5 44q0 20 -10 33q-9 13 -41.5 18.5t-99.5 5.5l7 40l156 138h-169l9 49h249l-7 -39l-157 -143q75 -8 100 -36q20 -22 20 -58q0 -32 -13 -66t-35 -54q-20 -18 -50.5 -25.5t-73.5 -7.5q-72 0 -109 17z" />
    <glyph glyph-name="acute" unicode="&#xb4;" horiz-adv-x="470" 
d="M335 735h99l-179 -152h-74z" />
    <glyph glyph-name="paragraph" unicode="&#xb6;" horiz-adv-x="606" 
d="M286 293q-67 0 -113 11t-66 38q-22 29 -22 85q0 62 20 128.5t52 95.5q32 28 84 38.5t124 10.5h61l-136 -700h-61zM372 0l136 700h61l-136 -700h-61z" />
    <glyph glyph-name="periodcentered" unicode="&#xb7;" horiz-adv-x="256" 
d="M166 286q0 -32 -13.5 -48t-38.5 -16q-41 0 -41 32q0 64 53 64q40 0 40 -32z" />
    <glyph glyph-name="cedilla" unicode="&#xb8;" horiz-adv-x="470" 
d="M32 -196l8 40q39 -13 85 -13q38 0 53 11q15 14 15 40q0 9 -5 16q-10 11 -48 11q-32 0 -64 -6l4 19l59 82h46l-43 -60h15q59 0 78 -21q13 -15 13 -37q0 -50 -33 -78q-23 -18 -90 -18q-53 0 -93 14z" />
    <glyph glyph-name="uni00B9" unicode="&#xb9;" horiz-adv-x="311" 
d="M238 713l-131 -90l14 68l143 99h46l-81 -420h-57z" />
    <glyph glyph-name="ordmasculine" unicode="&#xba;" horiz-adv-x="389" 
d="M145.5 369.5q-29.5 8.5 -42.5 27.5q-17 23 -17 63q0 55 18 115t46 86q22 20 49.5 28t64.5 8q35 0 64 -8.5t43 -27.5q16 -23 16 -63q0 -52 -18 -113.5t-45 -87.5q-23 -20 -50 -28t-64 -8q-35 0 -64.5 8.5zM283 431q20 18 34 67.5t14 89.5q0 28 -10 39q-15 22 -60 22
q-46 0 -71 -22q-19 -17 -33 -68t-14 -92q0 -24 9 -36q16 -21 62 -21q45 0 69 21zM309 246h-255l10 50h255z" />
    <glyph glyph-name="guillemotright" unicode="&#xbb;" horiz-adv-x="430" 
d="M54 61h-72l166 216l-76 197h62l83 -207zM229 61h-72l166 216l-76 197h62l83 -207z" />
    <glyph glyph-name="onequarter" unicode="&#xbc;" horiz-adv-x="790" 
d="M221 623l-131 -90l14 68l143 99h46l-81 -420h-57zM200 0h-72l540 700h70zM670 0h-57l21 108h-182l7 38l241 274h51l-51 -264h52l-10 -48h-51zM534 156h109l32 163z" />
    <glyph glyph-name="onehalf" unicode="&#xbd;" horiz-adv-x="791" 
d="M221 623l-131 -90l14 68l143 99h46l-81 -420h-57zM170 0h-72l540 700h70zM453 39l161 141q47 42 62 66t23 61q3 15 3 24q0 17 -9 30q-13 18 -68 18q-46 0 -103 -19l9 49q27 11 47 15.5t53 4.5q37 0 69 -10t45 -28q14 -20 14 -44q0 -8 -4 -36q-8 -50 -28 -81.5t-71 -76.5
l-118 -104h169l-9 -49h-252z" />
    <glyph glyph-name="threequarters" unicode="&#xbe;" horiz-adv-x="790" 
d="M25 288l9 48q40 -15 108 -15q53 0 76 19q12 10 21.5 32t9.5 44q0 20 -10 33q-9 13 -41.5 18.5t-99.5 5.5l7 40l156 138h-169l9 49h249l-7 -39l-157 -143q75 -8 100 -36q20 -22 20 -58q0 -32 -13 -66t-35 -54q-20 -18 -50.5 -25.5t-73.5 -7.5q-72 0 -109 17zM210 0h-72
l540 700h70zM670 0h-57l21 108h-182l7 38l241 274h51l-51 -264h52l-10 -48h-51zM534 156h109l32 163z" />
    <glyph glyph-name="questiondown" unicode="&#xbf;" horiz-adv-x="451" 
d="M300 479q0 32 13.5 48t38.5 16q41 0 41 -32q0 -64 -53 -64q-40 0 -40 32zM321 186q-104 -26 -146 -43.5t-63 -36.5q-18 -16 -32.5 -57.5t-14.5 -74.5t15 -54q23 -30 103 -30q64 0 154 18l-12 -67q-72 -19 -152 -19q-52 0 -93 13t-61 39q-26 37 -26 91q0 49 19.5 104.5
t48.5 80.5q27 23 64.5 40.5t135.5 44.5l20 94h67z" />
    <glyph glyph-name="Agrave" unicode="&#xc0;" horiz-adv-x="679" 
d="M389 745l-139 131h102l111 -131h-74zM480 233h-302q-65 -132 -105 -233h-88q73 182 177 368.5t207 331.5h93q47 -147 78.5 -333t34.5 -367h-80q0 98 -15 233zM215 305h256q-12 93 -29 177.5t-36 143.5q-89 -123 -191 -321z" />
    <glyph glyph-name="Aacute" unicode="&#xc1;" horiz-adv-x="679" 
d="M545 876h113l-189 -131h-85zM480 233h-302q-65 -132 -105 -233h-88q73 182 177 368.5t207 331.5h93q47 -147 78.5 -333t34.5 -367h-80q0 98 -15 233zM215 305h256q-12 93 -29 177.5t-36 143.5q-89 -123 -191 -321z" />
    <glyph glyph-name="Acircumflex" unicode="&#xc2;" horiz-adv-x="679" 
d="M408 876h92l95 -131h-63l-83 92l-117 -92h-69zM480 233h-302q-65 -132 -105 -233h-88q73 182 177 368.5t207 331.5h93q47 -147 78.5 -333t34.5 -367h-80q0 98 -15 233zM215 305h256q-12 93 -29 177.5t-36 143.5q-89 -123 -191 -321z" />
    <glyph glyph-name="Atilde" unicode="&#xc3;" horiz-adv-x="679" 
d="M286.5 821q9.5 20 23.5 31q21 18 57 18q24 0 44.5 -9t46.5 -26q21 -13 31.5 -18t21.5 -5q19 0 29 9q7 5 10.5 15t8.5 34h48q-8 -43 -17 -62.5t-22 -30.5q-23 -19 -58 -19q-23 0 -42 8.5t-45 25.5q-20 13 -32 19t-24 6q-20 0 -31 -10q-12 -10 -19 -48h-48q8 42 17.5 62z
M480 233h-302q-65 -132 -105 -233h-88q73 182 177 368.5t207 331.5h93q47 -147 78.5 -333t34.5 -367h-80q0 98 -15 233zM215 305h256q-12 93 -29 177.5t-36 143.5q-89 -123 -191 -321z" />
    <glyph glyph-name="Adieresis" unicode="&#xc4;" horiz-adv-x="679" 
d="M337 776q-36 0 -36 29q0 4 2 14q8 42 51 42q35 0 35 -30q0 -8 -1 -13q-9 -42 -51 -42zM521 776q-36 0 -36 29q0 4 2 14q8 42 51 42q35 0 35 -30q0 -8 -1 -13q-9 -42 -51 -42zM480 233h-302q-65 -132 -105 -233h-88q73 182 177 368.5t207 331.5h93q47 -147 78.5 -333
t34.5 -367h-80q0 98 -15 233zM215 305h256q-12 93 -29 177.5t-36 143.5q-89 -123 -191 -321z" />
    <glyph glyph-name="Aring" unicode="&#xc5;" horiz-adv-x="679" 
d="M499 905.5q16 -5.5 26 -18.5q12 -18 12 -38q0 -12 -3 -26q-8 -45 -30 -64q-14 -13 -33 -18.5t-47 -5.5q-29 0 -45 5.5t-26 18.5q-13 17 -13 40q0 11 3 24q10 46 31 64q14 13 33 18.5t48 5.5q28 0 44 -5.5zM456 772q10 3 18 11q8 7 12.5 16t7.5 24q2 8 2 20q0 14 -5 20
q-6 8 -15 11t-26 3q-18 0 -28 -3t-18 -11q-9 -7 -13 -15.5t-8 -24.5q-2 -14 -2 -18q0 -13 6 -22q6 -8 15 -11t27 -3q17 0 27 3zM480 233h-302q-65 -132 -105 -233h-88q73 182 177 368.5t207 331.5h93q47 -147 78.5 -333t34.5 -367h-80q0 98 -15 233zM215 305h256
q-12 93 -29 177.5t-36 143.5q-89 -123 -191 -321z" />
    <glyph glyph-name="AE" unicode="&#xc6;" horiz-adv-x="1014" 
d="M207 229q-86 -123 -147 -229h-89q116 197 268.5 388.5t284.5 311.5h490l-14 -72h-372l-47 -237h342l-14 -71h-341l-49 -248h372l-13 -72h-454l44 229h-261zM259 300h223l66 339q-151 -156 -289 -339z" />
    <glyph glyph-name="Ccedilla" unicode="&#xc7;" horiz-adv-x="622" 
d="M161 -196l8 40q39 -13 85 -13q38 0 53 11q15 14 15 40q0 9 -5 16q-10 11 -48 11q-32 0 -64 -6l4 19l48 66q-54 7 -96 24.5t-63 44.5q-41 57 -41 139q0 66 16.5 156t48.5 171t77 120q84 72 245 72q104 0 172 -34l-13 -67q-80 29 -164 29q-58 -1 -104 -14.5t-73 -37.5
q-33 -28 -60 -95.5t-42.5 -147.5t-15.5 -141q0 -66 23 -98q17 -25 58 -38.5t99 -13.5q92 0 186 29l-13 -67q-81 -34 -184 -34h-12l-30 -41h15q59 0 78 -21q13 -15 13 -37q0 -50 -33 -78q-23 -18 -90 -18q-53 0 -93 14z" />
    <glyph glyph-name="Egrave" unicode="&#xc8;" horiz-adv-x="635" 
d="M387 745l-139 131h102l111 -131h-74zM45 0l136 700h454l-14 -72h-371l-47 -237h341l-13 -71h-341l-49 -248h371l-13 -72h-454z" />
    <glyph glyph-name="Eacute" unicode="&#xc9;" horiz-adv-x="635" 
d="M543 876h113l-189 -131h-85zM45 0l136 700h454l-14 -72h-371l-47 -237h341l-13 -71h-341l-49 -248h371l-13 -72h-454z" />
    <glyph glyph-name="Ecircumflex" unicode="&#xca;" horiz-adv-x="635" 
d="M407 876h92l95 -131h-63l-83 92l-117 -92h-69zM45 0l136 700h454l-14 -72h-371l-47 -237h341l-13 -71h-341l-49 -248h371l-13 -72h-454z" />
    <glyph glyph-name="Edieresis" unicode="&#xcb;" horiz-adv-x="635" 
d="M336 776q-36 0 -36 29q0 4 2 14q8 42 51 42q35 0 35 -30q0 -8 -1 -13q-9 -42 -51 -42zM520 776q-36 0 -36 29q0 4 2 14q8 42 51 42q35 0 35 -30q0 -8 -1 -13q-9 -42 -51 -42zM45 0l136 700h454l-14 -72h-371l-47 -237h341l-13 -71h-341l-49 -248h371l-13 -72h-454z" />
    <glyph glyph-name="Igrave" unicode="&#xcc;" horiz-adv-x="301" 
d="M200 745l-139 131h102l111 -131h-74zM268 700l-136 -700h-83l136 700h83z" />
    <glyph glyph-name="Iacute" unicode="&#xcd;" horiz-adv-x="301" 
d="M357 876h113l-189 -131h-85zM268 700l-136 -700h-83l136 700h83z" />
    <glyph glyph-name="Icircumflex" unicode="&#xce;" horiz-adv-x="301" 
d="M220 876h92l95 -131h-63l-83 92l-117 -92h-69zM268 700l-136 -700h-83l136 700h83z" />
    <glyph glyph-name="Idieresis" unicode="&#xcf;" horiz-adv-x="301" 
d="M149 776q-36 0 -36 29q0 4 2 14q8 42 51 42q35 0 35 -30q0 -8 -1 -13q-9 -42 -51 -42zM333 776q-36 0 -36 29q0 4 2 14q8 42 51 42q35 0 35 -30q0 -8 -1 -13q-9 -42 -51 -42zM268 700l-136 -700h-83l136 700h83z" />
    <glyph glyph-name="Eth" unicode="&#xd0;" horiz-adv-x="722" 
d="M23 329l10 58h87l61 313h251q69 0 123.5 -20t82.5 -56q22 -28 31.5 -59.5t9.5 -70.5q0 -58 -15.5 -143t-45.5 -162t-71 -113q-44 -39 -101.5 -57.5t-149.5 -18.5h-251l64 329h-86zM142 72h158q69 0 110.5 12t70.5 38q32 29 58 94.5t40 141t14 132.5q0 56 -25 88
q-36 50 -159 50h-159l-47 -241h169l-11 -58h-169z" />
    <glyph glyph-name="Ntilde" unicode="&#xd1;" horiz-adv-x="755" 
d="M325.5 821q9.5 20 23.5 31q21 18 57 18q24 0 44.5 -9t46.5 -26q21 -13 31.5 -18t21.5 -5q19 0 29 9q7 5 10.5 15t8.5 34h48q-8 -43 -17 -62.5t-22 -30.5q-23 -19 -58 -19q-23 0 -42 8.5t-45 25.5q-20 13 -32 19t-24 6q-20 0 -31 -10q-12 -10 -19 -48h-48q8 42 17.5 62z
M123 0h-78l136 700h67l287 -562l110 562h79l-136 -700h-67l-289 562z" />
    <glyph glyph-name="Ograve" unicode="&#xd2;" horiz-adv-x="729" 
d="M413 745l-139 131h102l111 -131h-74zM183 4q-59 19 -85 53q-43 57 -43 140q0 55 17 142.5t50 171.5t78 129q38 38 97.5 56.5t133.5 18.5q71 0 129.5 -19t84.5 -53q43 -57 43 -140q0 -55 -17 -142.5t-50 -171.5t-78 -129q-38 -38 -97 -56.5t-131 -18.5q-73 0 -132 19z
M327.5 629.5q-40.5 -13.5 -66.5 -39.5q-33 -33 -60.5 -105.5t-44 -152.5t-16.5 -130q0 -61 25 -94q18 -24 56.5 -37.5t92.5 -13.5q61 0 101.5 13.5t66.5 39.5q33 33 60.5 105.5t44 152.5t16.5 130q0 61 -25 94q-18 24 -56.5 37.5t-92.5 13.5q-61 0 -101.5 -13.5z" />
    <glyph glyph-name="Oacute" unicode="&#xd3;" horiz-adv-x="729" 
d="M570 876h113l-189 -131h-85zM183 4q-59 19 -85 53q-43 57 -43 140q0 55 17 142.5t50 171.5t78 129q38 38 97.5 56.5t133.5 18.5q71 0 129.5 -19t84.5 -53q43 -57 43 -140q0 -55 -17 -142.5t-50 -171.5t-78 -129q-38 -38 -97 -56.5t-131 -18.5q-73 0 -132 19zM327.5 629.5
q-40.5 -13.5 -66.5 -39.5q-33 -33 -60.5 -105.5t-44 -152.5t-16.5 -130q0 -61 25 -94q18 -24 56.5 -37.5t92.5 -13.5q61 0 101.5 13.5t66.5 39.5q33 33 60.5 105.5t44 152.5t16.5 130q0 61 -25 94q-18 24 -56.5 37.5t-92.5 13.5q-61 0 -101.5 -13.5z" />
    <glyph glyph-name="Ocircumflex" unicode="&#xd4;" horiz-adv-x="729" 
d="M433 876h92l95 -131h-63l-83 92l-117 -92h-69zM183 4q-59 19 -85 53q-43 57 -43 140q0 55 17 142.5t50 171.5t78 129q38 38 97.5 56.5t133.5 18.5q71 0 129.5 -19t84.5 -53q43 -57 43 -140q0 -55 -17 -142.5t-50 -171.5t-78 -129q-38 -38 -97 -56.5t-131 -18.5
q-73 0 -132 19zM327.5 629.5q-40.5 -13.5 -66.5 -39.5q-33 -33 -60.5 -105.5t-44 -152.5t-16.5 -130q0 -61 25 -94q18 -24 56.5 -37.5t92.5 -13.5q61 0 101.5 13.5t66.5 39.5q33 33 60.5 105.5t44 152.5t16.5 130q0 61 -25 94q-18 24 -56.5 37.5t-92.5 13.5
q-61 0 -101.5 -13.5z" />
    <glyph glyph-name="Otilde" unicode="&#xd5;" horiz-adv-x="729" 
d="M310.5 821q9.5 20 23.5 31q21 18 57 18q24 0 44.5 -9t46.5 -26q21 -13 31.5 -18t21.5 -5q19 0 29 9q7 5 10.5 15t8.5 34h48q-8 -43 -17 -62.5t-22 -30.5q-23 -19 -58 -19q-23 0 -42 8.5t-45 25.5q-20 13 -32 19t-24 6q-20 0 -31 -10q-12 -10 -19 -48h-48q8 42 17.5 62z
M183 4q-59 19 -85 53q-43 57 -43 140q0 55 17 142.5t50 171.5t78 129q38 38 97.5 56.5t133.5 18.5q71 0 129.5 -19t84.5 -53q43 -57 43 -140q0 -55 -17 -142.5t-50 -171.5t-78 -129q-38 -38 -97 -56.5t-131 -18.5q-73 0 -132 19zM327.5 629.5q-40.5 -13.5 -66.5 -39.5
q-33 -33 -60.5 -105.5t-44 -152.5t-16.5 -130q0 -61 25 -94q18 -24 56.5 -37.5t92.5 -13.5q61 0 101.5 13.5t66.5 39.5q33 33 60.5 105.5t44 152.5t16.5 130q0 61 -25 94q-18 24 -56.5 37.5t-92.5 13.5q-61 0 -101.5 -13.5z" />
    <glyph glyph-name="Odieresis" unicode="&#xd6;" horiz-adv-x="729" 
d="M362 776q-36 0 -36 29q0 4 2 14q8 42 51 42q35 0 35 -30q0 -8 -1 -13q-9 -42 -51 -42zM546 776q-36 0 -36 29q0 4 2 14q8 42 51 42q35 0 35 -30q0 -8 -1 -13q-9 -42 -51 -42zM183 4q-59 19 -85 53q-43 57 -43 140q0 55 17 142.5t50 171.5t78 129q38 38 97.5 56.5
t133.5 18.5q71 0 129.5 -19t84.5 -53q43 -57 43 -140q0 -55 -17 -142.5t-50 -171.5t-78 -129q-38 -38 -97 -56.5t-131 -18.5q-73 0 -132 19zM327.5 629.5q-40.5 -13.5 -66.5 -39.5q-33 -33 -60.5 -105.5t-44 -152.5t-16.5 -130q0 -61 25 -94q18 -24 56.5 -37.5t92.5 -13.5
q61 0 101.5 13.5t66.5 39.5q33 33 60.5 105.5t44 152.5t16.5 130q0 61 -25 94q-18 24 -56.5 37.5t-92.5 13.5q-61 0 -101.5 -13.5z" />
    <glyph glyph-name="multiply" unicode="&#xd7;" 
d="M77 75l-38 42l168 150l-110 146l43 41l112 -147l166 148l37 -42l-169 -151l111 -146l-43 -42l-112 148z" />
    <glyph glyph-name="Oslash" unicode="&#xd8;" horiz-adv-x="729" 
d="M204.5 -2q-51.5 13 -82.5 36l-45 -49h-71l80 89q-31 51 -31 123q0 55 17 142.5t50 171.5t78 129q38 38 97.5 56.5t133.5 18.5q57 0 108 -13t82 -36l45 49h72l-81 -90q31 -51 31 -122q0 -55 -17 -142.5t-50 -171.5t-78 -129q-38 -38 -97 -56.5t-131 -18.5q-59 0 -110.5 13
zM148 142l418 463q-20 18 -55.5 28t-81.5 10q-61 0 -101.5 -13.5t-66.5 -39.5q-33 -33 -60.5 -105.5t-44 -152.5t-16.5 -130q0 -37 8 -60zM415.5 70.5q40.5 13.5 66.5 39.5q33 33 60.5 105.5t44 152.5t16.5 130q0 36 -8 60l-418 -463q21 -18 56 -28t81 -10q61 0 101.5 13.5z
" />
    <glyph glyph-name="Ugrave" unicode="&#xd9;" horiz-adv-x="743" 
d="M420 745l-139 131h102l111 -131h-74zM188.5 3q-55.5 18 -81.5 53q-27 37 -27 108q0 66 22 178l70 358h83l-70 -358q-25 -122 -25 -171q0 -42 16 -64q37 -49 145 -49q60 0 97.5 11t65.5 36q30 26 47.5 77.5t38.5 159.5l70 358h83l-70 -358q-25 -127 -46 -190t-61 -98
q-41 -36 -98 -52.5t-140 -16.5q-64 0 -119.5 18z" />
    <glyph glyph-name="Uacute" unicode="&#xda;" horiz-adv-x="743" 
d="M577 876h113l-189 -131h-85zM188.5 3q-55.5 18 -81.5 53q-27 37 -27 108q0 66 22 178l70 358h83l-70 -358q-25 -122 -25 -171q0 -42 16 -64q37 -49 145 -49q60 0 97.5 11t65.5 36q30 26 47.5 77.5t38.5 159.5l70 358h83l-70 -358q-25 -127 -46 -190t-61 -98
q-41 -36 -98 -52.5t-140 -16.5q-64 0 -119.5 18z" />
    <glyph glyph-name="Ucircumflex" unicode="&#xdb;" horiz-adv-x="743" 
d="M439 876h92l95 -131h-63l-83 92l-117 -92h-69zM188.5 3q-55.5 18 -81.5 53q-27 37 -27 108q0 66 22 178l70 358h83l-70 -358q-25 -122 -25 -171q0 -42 16 -64q37 -49 145 -49q60 0 97.5 11t65.5 36q30 26 47.5 77.5t38.5 159.5l70 358h83l-70 -358q-25 -127 -46 -190
t-61 -98q-41 -36 -98 -52.5t-140 -16.5q-64 0 -119.5 18z" />
    <glyph glyph-name="Udieresis" unicode="&#xdc;" horiz-adv-x="743" 
d="M369 776q-36 0 -36 29q0 4 2 14q8 42 51 42q35 0 35 -30q0 -8 -1 -13q-9 -42 -51 -42zM553 776q-36 0 -36 29q0 4 2 14q8 42 51 42q35 0 35 -30q0 -8 -1 -13q-9 -42 -51 -42zM188.5 3q-55.5 18 -81.5 53q-27 37 -27 108q0 66 22 178l70 358h83l-70 -358
q-25 -122 -25 -171q0 -42 16 -64q37 -49 145 -49q60 0 97.5 11t65.5 36q30 26 47.5 77.5t38.5 159.5l70 358h83l-70 -358q-25 -127 -46 -190t-61 -98q-41 -36 -98 -52.5t-140 -16.5q-64 0 -119.5 18z" />
    <glyph glyph-name="Yacute" unicode="&#xdd;" horiz-adv-x="661" 
d="M537 876h113l-189 -131h-85zM172.5 473.5q-42.5 109.5 -60.5 226.5h82q16 -92 53.5 -194t83.5 -180q76 77 153 179t130 195h88q-64 -117 -150 -227.5t-192 -222.5l-48 -250h-83l48 252q-62 112 -104.5 221.5z" />
    <glyph glyph-name="Thorn" unicode="&#xde;" horiz-adv-x="646" 
d="M264 700l-20 -102h176q57 0 102 -15t67 -44q28 -38 28 -99q0 -65 -25.5 -137t-60.5 -104q-34 -29 -80 -41t-119 -12h-176l-28 -146h-83l136 700h83zM170 218h150q62 0 96 8t57 29q28 27 44 80t16 100q0 36 -14 54q-15 20 -49.5 28.5t-88.5 8.5h-151z" />
    <glyph glyph-name="germandbls" unicode="&#xdf;" horiz-adv-x="626" 
d="M-117 -194l11 63q14 -6 31.5 -10.5t33.5 -4.5q35 0 52 15q12 11 19.5 35t20.5 89l92 469h-74l13 66h74l6 28q13 63 28 95t39 53q28 24 64.5 35t90.5 11q55 0 99 -12t60 -31q19 -23 19 -51q0 -43 -20 -74q-13 -19 -30.5 -37.5t-34.5 -34.5t-23 -21q-30 -26 -48.5 -45
t-29.5 -37q-4 -6 -7 -18t-3 -23q0 -13 4 -18q8 -10 26.5 -20t50.5 -24q41 -20 63 -32t31 -26q18 -25 18 -60q0 -44 -14.5 -89.5t-38.5 -66.5q-27 -24 -59 -33t-85 -9q-85 0 -139 26l12 64q35 -12 63.5 -18t62.5 -6t54.5 5t36.5 19q13 12 22 39.5t9 51.5q0 18 -8 29
q-5 7 -24.5 17.5t-42.5 21.5q-42 19 -68 34t-39 32t-13 49q0 21 6 42.5t16 38.5t26 34t33 33.5t25 23.5q37 34 56 53.5t28 38.5q4 8 4 25q0 11 -6 18q-8 11 -33.5 17t-62.5 6q-65 0 -98 -25q-14 -14 -23.5 -34.5t-18.5 -66.5l-111 -563q-15 -78 -29 -114.5t-36 -58.5
q-30 -30 -101 -30q-42 0 -80 16z" />
    <glyph glyph-name="agrave" unicode="&#xe0;" horiz-adv-x="566" 
d="M302 583l-119 152h93l94 -152h-68zM292.5 5.5q-44.5 -20.5 -87.5 -20.5q-44 0 -81 15t-57 42q-18 23 -25.5 53t-7.5 72q0 54 14 120t38 122.5t52 82.5q54 51 137 51q57 0 102.5 -22t75.5 -63l13 71h78l-101 -529h-78l12 65q-40 -39 -84.5 -59.5zM388 118l55 292
q-33 32 -71 47t-85 15q-54 0 -90 -31q-34 -31 -59 -118t-25 -156q0 -45 18 -69q32 -43 99 -43t158 63z" />
    <glyph glyph-name="aacute" unicode="&#xe1;" horiz-adv-x="566" 
d="M450 735h99l-179 -152h-74zM292.5 5.5q-44.5 -20.5 -87.5 -20.5q-44 0 -81 15t-57 42q-18 23 -25.5 53t-7.5 72q0 54 14 120t38 122.5t52 82.5q54 51 137 51q57 0 102.5 -22t75.5 -63l13 71h78l-101 -529h-78l12 65q-40 -39 -84.5 -59.5zM388 118l55 292q-33 32 -71 47
t-85 15q-54 0 -90 -31q-34 -31 -59 -118t-25 -156q0 -45 18 -69q32 -43 99 -43t158 63z" />
    <glyph glyph-name="acircumflex" unicode="&#xe2;" horiz-adv-x="566" 
d="M321 735h89l81 -152h-61l-69 108l-111 -108h-71zM292.5 5.5q-44.5 -20.5 -87.5 -20.5q-44 0 -81 15t-57 42q-18 23 -25.5 53t-7.5 72q0 54 14 120t38 122.5t52 82.5q54 51 137 51q57 0 102.5 -22t75.5 -63l13 71h78l-101 -529h-78l12 65q-40 -39 -84.5 -59.5zM388 118
l55 292q-33 32 -71 47t-85 15q-54 0 -90 -31q-34 -31 -59 -118t-25 -156q0 -45 18 -69q32 -43 99 -43t158 63z" />
    <glyph glyph-name="atilde" unicode="&#xe3;" horiz-adv-x="566" 
d="M199.5 671.5q9.5 20.5 22.5 31.5q22 19 58 19q24 0 44.5 -9.5t46.5 -27.5q21 -14 31.5 -19.5t21.5 -5.5q19 0 29 9q6 5 10.5 16.5t8.5 35.5h48q-8 -44 -17.5 -64.5t-22.5 -32.5q-23 -18 -58 -18q-23 0 -42 9.5t-45 26.5q-19 13 -31.5 19.5t-24.5 6.5q-18 0 -30 -9
q-6 -5 -10.5 -16.5t-9.5 -36.5h-48q9 45 18.5 65.5zM292.5 5.5q-44.5 -20.5 -87.5 -20.5q-44 0 -81 15t-57 42q-18 23 -25.5 53t-7.5 72q0 54 14 120t38 122.5t52 82.5q54 51 137 51q57 0 102.5 -22t75.5 -63l13 71h78l-101 -529h-78l12 65q-40 -39 -84.5 -59.5zM388 118
l55 292q-33 32 -71 47t-85 15q-54 0 -90 -31q-34 -31 -59 -118t-25 -156q0 -45 18 -69q32 -43 99 -43t158 63z" />
    <glyph glyph-name="adieresis" unicode="&#xe4;" horiz-adv-x="566" 
d="M299.5 673.5q-11.5 -10.5 -33.5 -10.5q-36 0 -36 31q0 8 1 13q5 22 17 32.5t34 10.5q34 0 34 -31q0 -8 -1 -13q-4 -22 -15.5 -32.5zM474 673.5q-12 -10.5 -34 -10.5q-35 0 -35 30q0 8 1 13q9 44 50 44q35 0 35 -31q0 -8 -1 -13q-4 -22 -16 -32.5zM292.5 5.5
q-44.5 -20.5 -87.5 -20.5q-44 0 -81 15t-57 42q-18 23 -25.5 53t-7.5 72q0 54 14 120t38 122.5t52 82.5q54 51 137 51q57 0 102.5 -22t75.5 -63l13 71h78l-101 -529h-78l12 65q-40 -39 -84.5 -59.5zM388 118l55 292q-33 32 -71 47t-85 15q-54 0 -90 -31q-34 -31 -59 -118
t-25 -156q0 -45 18 -69q32 -43 99 -43t158 63z" />
    <glyph glyph-name="aring" unicode="&#xe5;" horiz-adv-x="566" 
d="M413 751q15 -6 25 -19q12 -16 12 -39q0 -11 -3 -25q-8 -44 -33 -66q-14 -13 -32.5 -18.5t-46.5 -5.5t-43 6t-25 19q-13 16 -13 43q0 6 2 22q8 43 33 65q15 13 33.5 18.5t47.5 5.5q28 0 43 -6zM368 615q10 3 19 11q8 7 12.5 16.5t7.5 25.5q2 8 2 21q0 14 -5 21
q-6 8 -15 11t-25 3q-17 0 -28 -3t-19 -11q-14 -13 -20 -42q-3 -13 -3 -23q0 -11 6 -19q5 -8 14 -11t27 -3q17 0 27 3zM292.5 5.5q-44.5 -20.5 -87.5 -20.5q-44 0 -81 15t-57 42q-18 23 -25.5 53t-7.5 72q0 54 14 120t38 122.5t52 82.5q54 51 137 51q57 0 102.5 -22t75.5 -63
l13 71h78l-101 -529h-78l12 65q-40 -39 -84.5 -59.5zM388 118l55 292q-33 32 -71 47t-85 15q-54 0 -90 -31q-34 -31 -59 -118t-25 -156q0 -45 18 -69q32 -43 99 -43t158 63z" />
    <glyph glyph-name="ae" unicode="&#xe6;" horiz-adv-x="889" 
d="M678.5 -8q-46.5 -7 -94.5 -7q-56 0 -99.5 13.5t-64.5 43.5q-11 15 -19 36q-57 -48 -113.5 -70.5t-120.5 -22.5q-84 0 -118 40q-12 15 -19 33t-7 48q0 55 15.5 96.5t41.5 62.5q23 20 58 29.5t85 9.5q106 0 177 -54l6 33l7 33q8 41 8 69q0 17 -3.5 28.5t-11.5 22.5
q-14 19 -48.5 28t-79.5 9q-38 0 -82 -6t-80 -17l12 68q31 12 76 18.5t91 6.5q60 0 107.5 -14t71.5 -45q4 -5 10 -15l15 16q65 58 177 58q56 0 94 -14t57 -46q16 -26 16 -68q0 -35 -11.5 -70t-32.5 -56q-24 -24 -68 -35.5t-131 -11.5h-122q-8 -48 -8 -84q0 -46 15 -65
q14 -19 48 -29t78 -10q85 0 158 22l-12 -65q-32 -12 -78.5 -19zM519.5 388.5q-16.5 -37.5 -28.5 -85.5h121q59 0 89.5 8.5t44.5 25.5q10 12 15.5 32t5.5 39q0 25 -9 39q-21 33 -95 33q-68 0 -109 -38q-18 -16 -34.5 -53.5zM283.5 68.5q48.5 17.5 107.5 58.5q-1 7 -1 22
q0 25 3 50q-76 45 -168 45q-62 0 -88 -23q-16 -15 -26.5 -46t-10.5 -64q0 -24 11 -38q16 -22 79 -22q45 0 93.5 17.5z" />
    <glyph glyph-name="ccedilla" unicode="&#xe7;" horiz-adv-x="490" 
d="M97 -196l8 40q39 -13 85 -13q38 0 53 11q15 14 15 40q0 9 -5 16q-10 11 -48 11q-32 0 -64 -6l4 19l47 65q-42 5 -77.5 19t-52.5 37q-30 40 -30 108q0 52 13 119t37.5 126t57.5 89q66 58 192 58q89 0 144 -25l-12 -66q-65 22 -136 22q-49 0 -79.5 -9.5t-54.5 -30.5
q-34 -30 -58.5 -115.5t-24.5 -158.5q0 -45 15 -66t42.5 -30.5t76.5 -9.5q71 0 148 23l-12 -65q-67 -27 -144 -27l-30 -41h15q59 0 78 -21q13 -15 13 -37q0 -50 -33 -78q-23 -18 -90 -18q-53 0 -93 14z" />
    <glyph glyph-name="egrave" unicode="&#xe8;" horiz-adv-x="533" 
d="M288 583l-119 152h93l94 -152h-68zM238 -15q-54 0 -103.5 13.5t-70.5 43.5q-30 40 -30 107q0 56 14 124t39 126t56 86q65 58 177 58q120 0 156 -60q16 -26 16 -68q0 -35 -11.5 -70t-32.5 -56q-24 -24 -69.5 -35.5t-134.5 -11.5h-122q-8 -48 -8 -84q0 -46 15 -65
q14 -19 48 -29t78 -10q85 0 158 22l-12 -65q-68 -26 -163 -26zM163.5 388.5q-16.5 -37.5 -28.5 -85.5h121q61 0 93 8.5t46 25.5q10 12 15.5 32t5.5 39q0 25 -9 39q-21 33 -100 33q-68 0 -109 -38q-18 -16 -34.5 -53.5z" />
    <glyph glyph-name="eacute" unicode="&#xe9;" horiz-adv-x="533" 
d="M436 735h99l-179 -152h-74zM238 -15q-54 0 -103.5 13.5t-70.5 43.5q-30 40 -30 107q0 56 14 124t39 126t56 86q65 58 177 58q120 0 156 -60q16 -26 16 -68q0 -35 -11.5 -70t-32.5 -56q-24 -24 -69.5 -35.5t-134.5 -11.5h-122q-8 -48 -8 -84q0 -46 15 -65q14 -19 48 -29
t78 -10q85 0 158 22l-12 -65q-68 -26 -163 -26zM163.5 388.5q-16.5 -37.5 -28.5 -85.5h121q61 0 93 8.5t46 25.5q10 12 15.5 32t5.5 39q0 25 -9 39q-21 33 -100 33q-68 0 -109 -38q-18 -16 -34.5 -53.5z" />
    <glyph glyph-name="ecircumflex" unicode="&#xea;" horiz-adv-x="533" 
d="M307 735h89l81 -152h-61l-69 108l-111 -108h-71zM238 -15q-54 0 -103.5 13.5t-70.5 43.5q-30 40 -30 107q0 56 14 124t39 126t56 86q65 58 177 58q120 0 156 -60q16 -26 16 -68q0 -35 -11.5 -70t-32.5 -56q-24 -24 -69.5 -35.5t-134.5 -11.5h-122q-8 -48 -8 -84
q0 -46 15 -65q14 -19 48 -29t78 -10q85 0 158 22l-12 -65q-68 -26 -163 -26zM163.5 388.5q-16.5 -37.5 -28.5 -85.5h121q61 0 93 8.5t46 25.5q10 12 15.5 32t5.5 39q0 25 -9 39q-21 33 -100 33q-68 0 -109 -38q-18 -16 -34.5 -53.5z" />
    <glyph glyph-name="edieresis" unicode="&#xeb;" horiz-adv-x="533" 
d="M285.5 673.5q-11.5 -10.5 -33.5 -10.5q-36 0 -36 31q0 8 1 13q5 22 17 32.5t34 10.5q34 0 34 -31q0 -8 -1 -13q-4 -22 -15.5 -32.5zM460 673.5q-12 -10.5 -34 -10.5q-35 0 -35 30q0 8 1 13q9 44 50 44q35 0 35 -31q0 -8 -1 -13q-4 -22 -16 -32.5zM238 -15
q-54 0 -103.5 13.5t-70.5 43.5q-30 40 -30 107q0 56 14 124t39 126t56 86q65 58 177 58q120 0 156 -60q16 -26 16 -68q0 -35 -11.5 -70t-32.5 -56q-24 -24 -69.5 -35.5t-134.5 -11.5h-122q-8 -48 -8 -84q0 -46 15 -65q14 -19 48 -29t78 -10q85 0 158 22l-12 -65
q-68 -26 -163 -26zM163.5 388.5q-16.5 -37.5 -28.5 -85.5h121q61 0 93 8.5t46 25.5q10 12 15.5 32t5.5 39q0 25 -9 39q-21 33 -100 33q-68 0 -109 -38q-18 -16 -34.5 -53.5z" />
    <glyph glyph-name="igrave" unicode="&#xec;" horiz-adv-x="236" 
d="M137 583l-119 152h93l94 -152h-68zM199 528l-102 -528h-78l102 528h78z" />
    <glyph glyph-name="iacute" unicode="&#xed;" horiz-adv-x="236" 
d="M286 735h99l-179 -152h-74zM199 528l-102 -528h-78l102 528h78z" />
    <glyph glyph-name="icircumflex" unicode="&#xee;" horiz-adv-x="236" 
d="M156 735h89l81 -152h-61l-69 108l-111 -108h-71zM199 528l-102 -528h-78l102 528h78z" />
    <glyph glyph-name="idieresis" unicode="&#xef;" horiz-adv-x="236" 
d="M134.5 673.5q-11.5 -10.5 -33.5 -10.5q-36 0 -36 31q0 8 1 13q5 22 17 32.5t34 10.5q34 0 34 -31q0 -8 -1 -13q-4 -22 -15.5 -32.5zM309 673.5q-12 -10.5 -34 -10.5q-35 0 -35 30q0 8 1 13q9 44 50 44q35 0 35 -31q0 -8 -1 -13q-4 -22 -16 -32.5zM199 528l-102 -528h-78
l102 528h78z" />
    <glyph glyph-name="eth" unicode="&#xf0;" horiz-adv-x="566" 
d="M332 -1q-42 -14 -100 -14q-61 0 -106.5 15.5t-67.5 43.5q-28 38 -28 106q0 80 27.5 166.5t72.5 124.5q28 25 71.5 38.5t95.5 13.5q74 0 113 -31q-19 35 -55 90l-43 63l-143 -42l9 47l108 32l-56 82h87l40 -61l144 42l-9 -48l-110 -32l35 -54q51 -79 72 -133t21 -110
q0 -43 -10 -93q-11 -64 -35 -118.5t-56 -82.5q-35 -31 -77 -45zM165 63q27 -10 68 -10q78 0 120 37q32 28 54.5 104t22.5 132q0 43 -18 67q-27 38 -115 38q-71 0 -112 -36q-31 -29 -53.5 -98.5t-22.5 -136.5q0 -47 17 -70q12 -17 39 -27z" />
    <glyph glyph-name="ntilde" unicode="&#xf1;" horiz-adv-x="588" 
d="M222.5 671.5q9.5 20.5 22.5 31.5q22 19 58 19q24 0 44.5 -9.5t46.5 -27.5q21 -14 31.5 -19.5t21.5 -5.5q19 0 29 9q6 5 10.5 16.5t8.5 35.5h48q-8 -44 -17.5 -64.5t-22.5 -32.5q-23 -18 -58 -18q-23 0 -42 9.5t-45 26.5q-19 13 -31.5 19.5t-24.5 6.5q-18 0 -30 -9
q-6 -5 -10.5 -16.5t-9.5 -36.5h-48q9 45 18.5 65.5zM269.5 455q-48.5 -18 -94.5 -50l-78 -405h-78l102 528h78l-14 -74q42 40 99 64.5t110 24.5q42 0 71.5 -13.5t43.5 -32.5q22 -30 22 -75q0 -26 -5 -49l-72 -373h-78l66 342q8 42 8 63q0 26 -10 41q-11 14 -30 20.5t-53 6.5
q-39 0 -87.5 -18z" />
    <glyph glyph-name="ograve" unicode="&#xf2;" horiz-adv-x="573" 
d="M304 583l-119 152h93l94 -152h-68zM130.5 -0.5q-48.5 14.5 -70.5 44.5q-28 38 -28 105q0 51 13 119t36.5 127.5t53.5 86.5q38 33 80 47t105 14q56 0 104.5 -14.5t70.5 -43.5q28 -38 28 -105q0 -52 -13.5 -120t-37 -127.5t-52.5 -85.5q-38 -34 -79.5 -48t-104.5 -14
q-57 0 -105.5 14.5zM309 62.5q32 10.5 52 28.5q34 31 58.5 120t24.5 161q0 45 -15 66q-13 18 -41 28t-68 10q-41 0 -73.5 -10t-52.5 -28q-34 -31 -58.5 -120.5t-24.5 -161.5q0 -44 15 -65q13 -18 41.5 -28.5t68.5 -10.5q41 0 73 10.5z" />
    <glyph glyph-name="oacute" unicode="&#xf3;" horiz-adv-x="573" 
d="M454 735h99l-179 -152h-74zM130.5 -0.5q-48.5 14.5 -70.5 44.5q-28 38 -28 105q0 51 13 119t36.5 127.5t53.5 86.5q38 33 80 47t105 14q56 0 104.5 -14.5t70.5 -43.5q28 -38 28 -105q0 -52 -13.5 -120t-37 -127.5t-52.5 -85.5q-38 -34 -79.5 -48t-104.5 -14
q-57 0 -105.5 14.5zM309 62.5q32 10.5 52 28.5q34 31 58.5 120t24.5 161q0 45 -15 66q-13 18 -41 28t-68 10q-41 0 -73.5 -10t-52.5 -28q-34 -31 -58.5 -120.5t-24.5 -161.5q0 -44 15 -65q13 -18 41.5 -28.5t68.5 -10.5q41 0 73 10.5z" />
    <glyph glyph-name="ocircumflex" unicode="&#xf4;" horiz-adv-x="573" 
d="M325 735h89l81 -152h-61l-69 108l-111 -108h-71zM130.5 -0.5q-48.5 14.5 -70.5 44.5q-28 38 -28 105q0 51 13 119t36.5 127.5t53.5 86.5q38 33 80 47t105 14q56 0 104.5 -14.5t70.5 -43.5q28 -38 28 -105q0 -52 -13.5 -120t-37 -127.5t-52.5 -85.5q-38 -34 -79.5 -48
t-104.5 -14q-57 0 -105.5 14.5zM309 62.5q32 10.5 52 28.5q34 31 58.5 120t24.5 161q0 45 -15 66q-13 18 -41 28t-68 10q-41 0 -73.5 -10t-52.5 -28q-34 -31 -58.5 -120.5t-24.5 -161.5q0 -44 15 -65q13 -18 41.5 -28.5t68.5 -10.5q41 0 73 10.5z" />
    <glyph glyph-name="otilde" unicode="&#xf5;" horiz-adv-x="573" 
d="M203.5 671.5q9.5 20.5 22.5 31.5q22 19 58 19q24 0 44.5 -9.5t46.5 -27.5q21 -14 31.5 -19.5t21.5 -5.5q19 0 29 9q6 5 10.5 16.5t8.5 35.5h48q-8 -44 -17.5 -64.5t-22.5 -32.5q-23 -18 -58 -18q-23 0 -42 9.5t-45 26.5q-19 13 -31.5 19.5t-24.5 6.5q-18 0 -30 -9
q-6 -5 -10.5 -16.5t-9.5 -36.5h-48q9 45 18.5 65.5zM130.5 -0.5q-48.5 14.5 -70.5 44.5q-28 38 -28 105q0 51 13 119t36.5 127.5t53.5 86.5q38 33 80 47t105 14q56 0 104.5 -14.5t70.5 -43.5q28 -38 28 -105q0 -52 -13.5 -120t-37 -127.5t-52.5 -85.5q-38 -34 -79.5 -48
t-104.5 -14q-57 0 -105.5 14.5zM309 62.5q32 10.5 52 28.5q34 31 58.5 120t24.5 161q0 45 -15 66q-13 18 -41 28t-68 10q-41 0 -73.5 -10t-52.5 -28q-34 -31 -58.5 -120.5t-24.5 -161.5q0 -44 15 -65q13 -18 41.5 -28.5t68.5 -10.5q41 0 73 10.5z" />
    <glyph glyph-name="odieresis" unicode="&#xf6;" horiz-adv-x="573" 
d="M303.5 673.5q-11.5 -10.5 -33.5 -10.5q-36 0 -36 31q0 8 1 13q5 22 17 32.5t34 10.5q34 0 34 -31q0 -8 -1 -13q-4 -22 -15.5 -32.5zM478 673.5q-12 -10.5 -34 -10.5q-35 0 -35 30q0 8 1 13q9 44 50 44q35 0 35 -31q0 -8 -1 -13q-4 -22 -16 -32.5zM130.5 -0.5
q-48.5 14.5 -70.5 44.5q-28 38 -28 105q0 51 13 119t36.5 127.5t53.5 86.5q38 33 80 47t105 14q56 0 104.5 -14.5t70.5 -43.5q28 -38 28 -105q0 -52 -13.5 -120t-37 -127.5t-52.5 -85.5q-38 -34 -79.5 -48t-104.5 -14q-57 0 -105.5 14.5zM309 62.5q32 10.5 52 28.5
q34 31 58.5 120t24.5 161q0 45 -15 66q-13 18 -41 28t-68 10q-41 0 -73.5 -10t-52.5 -28q-34 -31 -58.5 -120.5t-24.5 -161.5q0 -44 15 -65q13 -18 41.5 -28.5t68.5 -10.5q41 0 73 10.5z" />
    <glyph glyph-name="divide" unicode="&#xf7;" 
d="M245 419q0 49 39 49q30 0 30 -27q0 -49 -39 -49q-30 0 -30 27zM60 294h383l-11 -59h-383zM210 61q-30 0 -30 27q0 49 39 49q30 0 30 -27q0 -49 -39 -49z" />
    <glyph glyph-name="oslash" unicode="&#xf8;" horiz-adv-x="573" 
d="M54 53q-22 34 -22 96q0 51 13 119t36.5 127.5t53.5 86.5q38 33 80 47t105 14q43 0 83.5 -8.5t67.5 -26.5l32 35h61l-62 -68q21 -36 21 -95q0 -52 -13.5 -120t-37 -127.5t-52.5 -85.5q-38 -34 -79.5 -48t-104.5 -14q-43 0 -83 8.5t-67 26.5l-32 -35h-62zM115 119l303 331
q-32 26 -98 26q-41 0 -73.5 -10t-52.5 -28q-34 -31 -58.5 -120.5t-24.5 -161.5q0 -22 4 -37zM309 62.5q32 10.5 52 28.5q34 31 58.5 120t24.5 161q0 21 -3 36l-302 -330q32 -26 97 -26q41 0 73 10.5z" />
    <glyph glyph-name="ugrave" unicode="&#xf9;" horiz-adv-x="588" 
d="M312 583l-119 152h93l94 -152h-68zM286 9.5q-57 -24.5 -110 -24.5q-42 0 -71.5 13.5t-43.5 32.5q-22 30 -22 75q0 27 5 49l72 373h78l-66 -342q-8 -42 -8 -63q0 -26 10 -41q11 -14 30 -20.5t53 -6.5q39 0 87.5 18t94.5 50l78 405h78l-102 -528h-78l14 74
q-42 -40 -99 -64.5z" />
    <glyph glyph-name="uacute" unicode="&#xfa;" horiz-adv-x="588" 
d="M462 735h99l-179 -152h-74zM286 9.5q-57 -24.5 -110 -24.5q-42 0 -71.5 13.5t-43.5 32.5q-22 30 -22 75q0 27 5 49l72 373h78l-66 -342q-8 -42 -8 -63q0 -26 10 -41q11 -14 30 -20.5t53 -6.5q39 0 87.5 18t94.5 50l78 405h78l-102 -528h-78l14 74q-42 -40 -99 -64.5z" />
    <glyph glyph-name="ucircumflex" unicode="&#xfb;" horiz-adv-x="588" 
d="M332 735h89l81 -152h-61l-69 108l-111 -108h-71zM286 9.5q-57 -24.5 -110 -24.5q-42 0 -71.5 13.5t-43.5 32.5q-22 30 -22 75q0 27 5 49l72 373h78l-66 -342q-8 -42 -8 -63q0 -26 10 -41q11 -14 30 -20.5t53 -6.5q39 0 87.5 18t94.5 50l78 405h78l-102 -528h-78l14 74
q-42 -40 -99 -64.5z" />
    <glyph glyph-name="udieresis" unicode="&#xfc;" horiz-adv-x="588" 
d="M309.5 673.5q-11.5 -10.5 -33.5 -10.5q-36 0 -36 31q0 8 1 13q5 22 17 32.5t34 10.5q34 0 34 -31q0 -8 -1 -13q-4 -22 -15.5 -32.5zM484 673.5q-12 -10.5 -34 -10.5q-35 0 -35 30q0 8 1 13q9 44 50 44q35 0 35 -31q0 -8 -1 -13q-4 -22 -16 -32.5zM286 9.5
q-57 -24.5 -110 -24.5q-42 0 -71.5 13.5t-43.5 32.5q-22 30 -22 75q0 27 5 49l72 373h78l-66 -342q-8 -42 -8 -63q0 -26 10 -41q11 -14 30 -20.5t53 -6.5q39 0 87.5 18t94.5 50l78 405h78l-102 -528h-78l14 74q-42 -40 -99 -64.5z" />
    <glyph glyph-name="yacute" unicode="&#xfd;" horiz-adv-x="539" 
d="M444 735h99l-179 -152h-74zM-28 -201l12 68q23 -8 45 -8q28 0 47 13.5t49 56.5q32 44 53 76q-34 110 -62 249t-41 274h78q9 -104 31 -222t48 -217q130 209 234 439h82q-79 -171 -171.5 -331t-179.5 -281q-34 -50 -58.5 -76.5t-50.5 -38t-62 -11.5q-31 0 -54 9z" />
    <glyph glyph-name="thorn" unicode="&#xfe;" horiz-adv-x="593" 
d="M188.5 7q-48.5 22 -78.5 63l-51 -265h-78l180 930h78l-53 -271q42 38 89.5 58.5t92.5 20.5q44 0 81 -15t57 -42q18 -23 25.5 -53t7.5 -72q0 -54 -14 -120t-38 -122.5t-52 -82.5q-54 -51 -137 -51q-61 0 -109.5 22zM376 87q34 31 59 118t25 156q0 45 -18 69q-32 43 -99 43
q-74 0 -167 -63l-56 -292q66 -62 166 -62q54 0 90 31z" />
    <glyph glyph-name="ydieresis" unicode="&#xff;" horiz-adv-x="539" 
d="M292.5 673.5q-11.5 -10.5 -33.5 -10.5q-36 0 -36 31q0 8 1 13q5 22 17 32.5t34 10.5q34 0 34 -31q0 -8 -1 -13q-4 -22 -15.5 -32.5zM467 673.5q-12 -10.5 -34 -10.5q-35 0 -35 30q0 8 1 13q9 44 50 44q35 0 35 -31q0 -8 -1 -13q-4 -22 -16 -32.5zM-28 -201l12 68
q23 -8 45 -8q28 0 47 13.5t49 56.5q32 44 53 76q-34 110 -62 249t-41 274h78q9 -104 31 -222t48 -217q130 209 234 439h82q-79 -171 -171.5 -331t-179.5 -281q-34 -50 -58.5 -76.5t-50.5 -38t-62 -11.5q-31 0 -54 9z" />
    <glyph glyph-name="Amacron" unicode="&#x100;" horiz-adv-x="679" 
d="M563 792h-259l9 52h259zM480 233h-302q-65 -132 -105 -233h-88q73 182 177 368.5t207 331.5h93q47 -147 78.5 -333t34.5 -367h-80q0 98 -15 233zM215 305h256q-12 93 -29 177.5t-36 143.5q-89 -123 -191 -321z" />
    <glyph glyph-name="amacron" unicode="&#x101;" horiz-adv-x="566" 
d="M478 642h-259l9 52h259zM292.5 5.5q-44.5 -20.5 -87.5 -20.5q-44 0 -81 15t-57 42q-18 23 -25.5 53t-7.5 72q0 54 14 120t38 122.5t52 82.5q54 51 137 51q57 0 102.5 -22t75.5 -63l13 71h78l-101 -529h-78l12 65q-40 -39 -84.5 -59.5zM388 118l55 292q-33 32 -71 47
t-85 15q-54 0 -90 -31q-34 -31 -59 -118t-25 -156q0 -45 18 -69q32 -43 99 -43t158 63z" />
    <glyph glyph-name="Abreve" unicode="&#x102;" horiz-adv-x="679" 
d="M469 783.5q17 4.5 30 14.5q14 12 21 28.5t13 48.5h62q-8 -41 -19 -65.5t-33 -42.5q-39 -32 -126 -32q-83 0 -108 32q-17 21 -17 53q0 18 7 55h55q-6 -28 -6 -44q0 -21 11 -33q8 -10 23.5 -14.5t42.5 -4.5t44 4.5zM480 233h-302q-65 -132 -105 -233h-88q73 182 177 368.5
t207 331.5h93q47 -147 78.5 -333t34.5 -367h-80q0 98 -15 233zM215 305h256q-12 93 -29 177.5t-36 143.5q-89 -123 -191 -321z" />
    <glyph glyph-name="abreve" unicode="&#x103;" horiz-adv-x="566" 
d="M417 642q16 13 23 32t15 61h59q-10 -51 -20 -78t-32 -45q-41 -34 -124 -34q-45 0 -68 9t-37 25q-21 26 -21 67q0 25 6 56h58q-8 -38 -8 -58q0 -21 11 -35q16 -20 65 -20t73 20zM292.5 5.5q-44.5 -20.5 -87.5 -20.5q-44 0 -81 15t-57 42q-18 23 -25.5 53t-7.5 72
q0 54 14 120t38 122.5t52 82.5q54 51 137 51q57 0 102.5 -22t75.5 -63l13 71h78l-101 -529h-78l12 65q-40 -39 -84.5 -59.5zM388 118l55 292q-33 32 -71 47t-85 15q-54 0 -90 -31q-34 -31 -59 -118t-25 -156q0 -45 18 -69q32 -43 99 -43t158 63z" />
    <glyph glyph-name="Aogonek" unicode="&#x104;" horiz-adv-x="679" 
d="M455 -210q-44 0 -61 17q-16 16 -16 40q0 22 6 40t31.5 46.5t79.5 71.5q-2 110 -15 228h-302q-65 -132 -105 -233h-88q73 182 177 368.5t207 331.5h93q47 -147 78.5 -333t34.5 -367h-27q-51 -45 -74.5 -69.5t-30.5 -38t-7 -29.5q0 -12 6 -18q9 -9 33 -9t58 17l-9 -47
q-31 -16 -69 -16zM215 305h256q-12 93 -29 177.5t-36 143.5q-89 -123 -191 -321z" />
    <glyph glyph-name="aogonek" unicode="&#x105;" horiz-adv-x="566" 
d="M327 -210q-44 0 -61 17q-16 16 -16 40q0 22 6 40t31 46.5t79 70.5l11 61q-40 -39 -84.5 -59.5t-87.5 -20.5q-44 0 -81 15t-57 42q-18 23 -25.5 53t-7.5 72q0 54 14 120t38 122.5t52 82.5q54 51 137 51q57 0 102.5 -22t75.5 -63l13 71h78l-101 -529h-23
q-51 -45 -74.5 -69.5t-30.5 -38t-7 -29.5q0 -12 6 -18q9 -9 33 -9t58 17l-9 -47q-31 -16 -69 -16zM388 118l55 292q-33 32 -71 47t-85 15q-54 0 -90 -31q-34 -31 -59 -118t-25 -156q0 -45 18 -69q32 -43 99 -43t158 63z" />
    <glyph glyph-name="Cacute" unicode="&#x106;" horiz-adv-x="622" 
d="M557 876h113l-189 -131h-85zM184.5 4q-59.5 19 -86.5 53q-41 57 -41 139q0 66 16.5 156t48.5 171t77 120q84 72 245 72q104 0 172 -34l-13 -67q-80 29 -164 29q-58 -1 -104 -14.5t-73 -37.5q-33 -28 -60 -95.5t-42.5 -147.5t-15.5 -141q0 -66 23 -98q17 -25 58 -38.5
t99 -13.5q92 0 186 29l-13 -67q-81 -34 -184 -34q-69 0 -128.5 19z" />
    <glyph glyph-name="cacute" unicode="&#x107;" horiz-adv-x="490" 
d="M445 735h99l-179 -152h-74zM132.5 -0.5q-49.5 14.5 -70.5 43.5q-30 40 -30 108q0 52 13 119t37.5 126t57.5 89q66 58 192 58q89 0 144 -25l-12 -66q-65 22 -136 22q-49 0 -79.5 -9.5t-54.5 -30.5q-34 -30 -58.5 -115.5t-24.5 -158.5q0 -45 15 -66t42.5 -30.5t76.5 -9.5
q71 0 148 23l-12 -65q-69 -27 -147 -27q-52 0 -101.5 14.5z" />
    <glyph glyph-name="Ccircumflex" unicode="&#x108;" horiz-adv-x="622" 
d="M419 876h92l95 -131h-63l-83 92l-117 -92h-69zM184.5 4q-59.5 19 -86.5 53q-41 57 -41 139q0 66 16.5 156t48.5 171t77 120q84 72 245 72q104 0 172 -34l-13 -67q-80 29 -164 29q-58 -1 -104 -14.5t-73 -37.5q-33 -28 -60 -95.5t-42.5 -147.5t-15.5 -141q0 -66 23 -98
q17 -25 58 -38.5t99 -13.5q92 0 186 29l-13 -67q-81 -34 -184 -34q-69 0 -128.5 19z" />
    <glyph glyph-name="ccircumflex" unicode="&#x109;" horiz-adv-x="490" 
d="M316 735h89l81 -152h-61l-69 108l-111 -108h-71zM132.5 -0.5q-49.5 14.5 -70.5 43.5q-30 40 -30 108q0 52 13 119t37.5 126t57.5 89q66 58 192 58q89 0 144 -25l-12 -66q-65 22 -136 22q-49 0 -79.5 -9.5t-54.5 -30.5q-34 -30 -58.5 -115.5t-24.5 -158.5q0 -45 15 -66
t42.5 -30.5t76.5 -9.5q71 0 148 23l-12 -65q-69 -27 -147 -27q-52 0 -101.5 14.5z" />
    <glyph glyph-name="Cdotaccent" unicode="&#x10a;" horiz-adv-x="622" 
d="M479 786.5q-12 -10.5 -36 -10.5q-38 0 -38 27q0 5 2 15q4 22 16 32.5t37 10.5q20 0 28.5 -7t8.5 -22q0 -9 -1 -14q-5 -21 -17 -31.5zM184.5 4q-59.5 19 -86.5 53q-41 57 -41 139q0 66 16.5 156t48.5 171t77 120q84 72 245 72q104 0 172 -34l-13 -67q-80 29 -164 29
q-58 -1 -104 -14.5t-73 -37.5q-33 -28 -60 -95.5t-42.5 -147.5t-15.5 -141q0 -66 23 -98q17 -25 58 -38.5t99 -13.5q92 0 186 29l-13 -67q-81 -34 -184 -34q-69 0 -128.5 19z" />
    <glyph glyph-name="cdotaccent" unicode="&#x10b;" horiz-adv-x="490" 
d="M382 673q-11 -10 -35 -10q-21 0 -30 7.5t-9 22.5q0 8 1 13q5 23 16.5 33.5t36.5 10.5q37 0 37 -28q0 -4 -2 -16q-4 -23 -15 -33zM132.5 -0.5q-49.5 14.5 -70.5 43.5q-30 40 -30 108q0 52 13 119t37.5 126t57.5 89q66 58 192 58q89 0 144 -25l-12 -66q-65 22 -136 22
q-49 0 -79.5 -9.5t-54.5 -30.5q-34 -30 -58.5 -115.5t-24.5 -158.5q0 -45 15 -66t42.5 -30.5t76.5 -9.5q71 0 148 23l-12 -65q-69 -27 -147 -27q-52 0 -101.5 14.5z" />
    <glyph glyph-name="Ccaron" unicode="&#x10c;" horiz-adv-x="622" 
d="M354 876l83 -92l117 92h69l-145 -131h-92l-95 131h63zM184.5 4q-59.5 19 -86.5 53q-41 57 -41 139q0 66 16.5 156t48.5 171t77 120q84 72 245 72q104 0 172 -34l-13 -67q-80 29 -164 29q-58 -1 -104 -14.5t-73 -37.5q-33 -28 -60 -95.5t-42.5 -147.5t-15.5 -141
q0 -66 23 -98q17 -25 58 -38.5t99 -13.5q92 0 186 29l-13 -67q-81 -34 -184 -34q-69 0 -128.5 19z" />
    <glyph glyph-name="ccaron" unicode="&#x10d;" horiz-adv-x="490" 
d="M266 735l69 -108l111 108h71l-142 -152h-89l-81 152h61zM132.5 -0.5q-49.5 14.5 -70.5 43.5q-30 40 -30 108q0 52 13 119t37.5 126t57.5 89q66 58 192 58q89 0 144 -25l-12 -66q-65 22 -136 22q-49 0 -79.5 -9.5t-54.5 -30.5q-34 -30 -58.5 -115.5t-24.5 -158.5
q0 -45 15 -66t42.5 -30.5t76.5 -9.5q71 0 148 23l-12 -65q-69 -27 -147 -27q-52 0 -101.5 14.5z" />
    <glyph glyph-name="Dcaron" unicode="&#x10e;" horiz-adv-x="721" 
d="M352 876l83 -92l117 92h69l-145 -131h-92l-95 131h63zM432 700q69 0 123.5 -20t82.5 -56q22 -28 31.5 -59.5t9.5 -70.5q0 -58 -15.5 -143t-45.5 -162t-71 -113q-44 -39 -101.5 -57.5t-149.5 -18.5h-251l136 700h251zM142 72h158q69 0 110.5 12t70.5 38q32 29 58 94.5
t40 141t14 132.5q0 56 -25 88q-36 50 -159 50h-159z" />
    <glyph glyph-name="dcaron" unicode="&#x10f;" horiz-adv-x="593" 
d="M299 6q-48 -21 -94 -21q-44 0 -81 15t-57 42q-18 23 -25.5 53t-7.5 72q0 54 14 120t38 122.5t52 82.5q54 51 137 51q62 0 111 -22.5t78 -64.5l54 279h78l-142 -735h-78l13 66q-42 -39 -90 -60zM699 735h86l-130 -152h-60zM399 120l56 288q-68 64 -168 64q-54 0 -90 -31
q-34 -31 -59 -118t-25 -156q0 -45 18 -69q32 -43 99 -43q77 0 169 65z" />
    <glyph glyph-name="Dcroat" unicode="&#x110;" horiz-adv-x="722" 
d="M23 329l10 58h87l61 313h251q69 0 123.5 -20t82.5 -56q22 -28 31.5 -59.5t9.5 -70.5q0 -58 -15.5 -143t-45.5 -162t-71 -113q-44 -39 -101.5 -57.5t-149.5 -18.5h-251l64 329h-86zM142 72h158q69 0 110.5 12t70.5 38q32 29 58 94.5t40 141t14 132.5q0 56 -25 88
q-36 50 -159 50h-159l-47 -241h169l-11 -58h-169z" />
    <glyph glyph-name="dcroat" unicode="&#x111;" horiz-adv-x="593" 
d="M299 6q-48 -21 -94 -21q-44 0 -81 15t-57 42q-18 23 -25.5 53t-7.5 72q0 54 14 120t38 122.5t52 82.5q54 51 137 51q62 0 111 -22.5t78 -64.5l29 148h-173l9 50h173l16 81h78l-16 -81h67l-9 -50h-67l-117 -604h-78l13 66q-42 -39 -90 -60zM399 120l56 288q-68 64 -168 64
q-54 0 -90 -31q-34 -31 -59 -118t-25 -156q0 -45 18 -69q32 -43 99 -43q77 0 169 65z" />
    <glyph glyph-name="Emacron" unicode="&#x112;" horiz-adv-x="635" 
d="M562 792h-259l9 52h259zM45 0l136 700h454l-14 -72h-371l-47 -237h341l-13 -71h-341l-49 -248h371l-13 -72h-454z" />
    <glyph glyph-name="emacron" unicode="&#x113;" horiz-adv-x="533" 
d="M464 642h-259l9 52h259zM238 -15q-54 0 -103.5 13.5t-70.5 43.5q-30 40 -30 107q0 56 14 124t39 126t56 86q65 58 177 58q120 0 156 -60q16 -26 16 -68q0 -35 -11.5 -70t-32.5 -56q-24 -24 -69.5 -35.5t-134.5 -11.5h-122q-8 -48 -8 -84q0 -46 15 -65q14 -19 48 -29
t78 -10q85 0 158 22l-12 -65q-68 -26 -163 -26zM163.5 388.5q-16.5 -37.5 -28.5 -85.5h121q61 0 93 8.5t46 25.5q10 12 15.5 32t5.5 39q0 25 -9 39q-21 33 -100 33q-68 0 -109 -38q-18 -16 -34.5 -53.5z" />
    <glyph glyph-name="Ebreve" unicode="&#x114;" horiz-adv-x="635" 
d="M467 783.5q17 4.5 30 14.5q14 12 21 28.5t13 48.5h62q-8 -41 -19 -65.5t-33 -42.5q-39 -32 -126 -32q-83 0 -108 32q-17 21 -17 53q0 18 7 55h55q-6 -28 -6 -44q0 -21 11 -33q8 -10 23.5 -14.5t42.5 -4.5t44 4.5zM45 0l136 700h454l-14 -72h-371l-47 -237h341l-13 -71
h-341l-49 -248h371l-13 -72h-454z" />
    <glyph glyph-name="ebreve" unicode="&#x115;" horiz-adv-x="533" 
d="M403 642q16 13 23 32t15 61h59q-10 -51 -20 -78t-32 -45q-41 -34 -124 -34q-45 0 -68 9t-37 25q-21 26 -21 67q0 25 6 56h58q-8 -38 -8 -58q0 -21 11 -35q16 -20 65 -20t73 20zM238 -15q-54 0 -103.5 13.5t-70.5 43.5q-30 40 -30 107q0 56 14 124t39 126t56 86
q65 58 177 58q120 0 156 -60q16 -26 16 -68q0 -35 -11.5 -70t-32.5 -56q-24 -24 -69.5 -35.5t-134.5 -11.5h-122q-8 -48 -8 -84q0 -46 15 -65q14 -19 48 -29t78 -10q85 0 158 22l-12 -65q-68 -26 -163 -26zM163.5 388.5q-16.5 -37.5 -28.5 -85.5h121q61 0 93 8.5t46 25.5
q10 12 15.5 32t5.5 39q0 25 -9 39q-21 33 -100 33q-68 0 -109 -38q-18 -16 -34.5 -53.5z" />
    <glyph glyph-name="Edotaccent" unicode="&#x116;" horiz-adv-x="635" 
d="M466 786.5q-12 -10.5 -36 -10.5q-38 0 -38 27q0 5 2 15q4 22 16 32.5t37 10.5q20 0 28.5 -7t8.5 -22q0 -9 -1 -14q-5 -21 -17 -31.5zM45 0l136 700h454l-14 -72h-371l-47 -237h341l-13 -71h-341l-49 -248h371l-13 -72h-454z" />
    <glyph glyph-name="edotaccent" unicode="&#x117;" horiz-adv-x="533" 
d="M373 673q-11 -10 -35 -10q-21 0 -30 7.5t-9 22.5q0 8 1 13q5 23 16.5 33.5t36.5 10.5q37 0 37 -28q0 -4 -2 -16q-4 -23 -15 -33zM238 -15q-54 0 -103.5 13.5t-70.5 43.5q-30 40 -30 107q0 56 14 124t39 126t56 86q65 58 177 58q120 0 156 -60q16 -26 16 -68
q0 -35 -11.5 -70t-32.5 -56q-24 -24 -69.5 -35.5t-134.5 -11.5h-122q-8 -48 -8 -84q0 -46 15 -65q14 -19 48 -29t78 -10q85 0 158 22l-12 -65q-68 -26 -163 -26zM163.5 388.5q-16.5 -37.5 -28.5 -85.5h121q61 0 93 8.5t46 25.5q10 12 15.5 32t5.5 39q0 25 -9 39
q-21 33 -100 33q-68 0 -109 -38q-18 -16 -34.5 -53.5z" />
    <glyph glyph-name="Eogonek" unicode="&#x118;" horiz-adv-x="635" 
d="M392 -210q-44 0 -61 17q-16 16 -16 40q0 22 6 40t30 45.5t75 67.5h-381l136 700h454l-14 -72h-371l-47 -237h341l-13 -71h-341l-49 -248h371l-13 -72h-14q-51 -45 -74.5 -69.5t-30.5 -38t-7 -29.5q0 -12 6 -18q9 -9 33 -9t58 17l-9 -47q-31 -16 -69 -16z" />
    <glyph glyph-name="eogonek" unicode="&#x119;" horiz-adv-x="533" 
d="M289 -210q-44 0 -61 17q-16 16 -16 40q0 21 5 37.5t26 42t66 62.5q-28 -4 -71 -4q-54 0 -103.5 13.5t-70.5 43.5q-30 40 -30 107q0 56 14 124t39 126t56 86q65 58 177 58q120 0 156 -60q16 -26 16 -68q0 -35 -11.5 -70t-32.5 -56q-24 -24 -69.5 -35.5t-134.5 -11.5h-122
q-8 -48 -8 -84q0 -46 15 -65q14 -19 48 -29t78 -10q85 0 158 22l-12 -65l-14 -5h2q-55 -48 -80 -73.5t-32 -39.5t-7 -30q0 -12 6 -18q9 -9 33 -9t58 17l-9 -47q-31 -16 -69 -16zM163.5 388.5q-16.5 -37.5 -28.5 -85.5h121q61 0 93 8.5t46 25.5q10 12 15.5 32t5.5 39
q0 25 -9 39q-21 33 -100 33q-68 0 -109 -38q-18 -16 -34.5 -53.5z" />
    <glyph glyph-name="Ecaron" unicode="&#x11a;" horiz-adv-x="635" 
d="M341 876l83 -92l117 92h69l-145 -131h-92l-95 131h63zM45 0l136 700h454l-14 -72h-371l-47 -237h341l-13 -71h-341l-49 -248h371l-13 -72h-454z" />
    <glyph glyph-name="ecaron" unicode="&#x11b;" horiz-adv-x="533" 
d="M257 735l69 -108l111 108h71l-142 -152h-89l-81 152h61zM238 -15q-54 0 -103.5 13.5t-70.5 43.5q-30 40 -30 107q0 56 14 124t39 126t56 86q65 58 177 58q120 0 156 -60q16 -26 16 -68q0 -35 -11.5 -70t-32.5 -56q-24 -24 -69.5 -35.5t-134.5 -11.5h-122q-8 -48 -8 -84
q0 -46 15 -65q14 -19 48 -29t78 -10q85 0 158 22l-12 -65q-68 -26 -163 -26zM163.5 388.5q-16.5 -37.5 -28.5 -85.5h121q61 0 93 8.5t46 25.5q10 12 15.5 32t5.5 39q0 25 -9 39q-21 33 -100 33q-68 0 -109 -38q-18 -16 -34.5 -53.5z" />
    <glyph glyph-name="Gcircumflex" unicode="&#x11c;" horiz-adv-x="690" 
d="M434 876h92l95 -131h-63l-83 92l-117 -92h-69zM448 -6.5q-56 -8.5 -118 -8.5q-74 0 -138 18t-92 53q-22 30 -32 64.5t-10 77.5q0 67 16 156t48.5 168.5t78.5 120.5q84 72 260 72q124 0 200 -38l-13 -68q-46 17 -90 25.5t-102 8.5q-65 0 -114.5 -13t-78.5 -39
q-33 -28 -60 -95.5t-43 -146.5t-16 -140q0 -69 25 -101q19 -25 63 -38t109 -13t130 14l40 209h-170l13 72h254l-65 -337h-1q-38 -13 -94 -21.5z" />
    <glyph glyph-name="gcircumflex" unicode="&#x11d;" horiz-adv-x="594" 
d="M339 735h89l81 -152h-61l-69 108l-111 -108h-71zM0 -177l12 66q82 -31 165 -31q43 0 81 10t63 31q22 19 38 56t28 101l6 29q-43 -41 -92 -63t-96 -22q-44 0 -81 15t-57 42q-18 23 -25.5 53t-7.5 72q0 51 14 113.5t38 116.5t52 80q54 51 137 51q62 0 111.5 -22.5
t78.5 -65.5l14 73h78l-91 -468q-29 -154 -98 -215q-35 -29 -81 -42t-116 -13q-100 0 -171 33zM403 137l53 271q-68 64 -169 64q-54 0 -90 -31q-33 -30 -58.5 -112t-25.5 -147q0 -45 18 -69q32 -43 99 -43q78 0 173 67z" />
    <glyph glyph-name="Gbreve" unicode="&#x11e;" horiz-adv-x="690" 
d="M495 783.5q17 4.5 30 14.5q14 12 21 28.5t13 48.5h62q-8 -41 -19 -65.5t-33 -42.5q-39 -32 -126 -32q-83 0 -108 32q-17 21 -17 53q0 18 7 55h55q-6 -28 -6 -44q0 -21 11 -33q8 -10 23.5 -14.5t42.5 -4.5t44 4.5zM448 -6.5q-56 -8.5 -118 -8.5q-74 0 -138 18t-92 53
q-22 30 -32 64.5t-10 77.5q0 67 16 156t48.5 168.5t78.5 120.5q84 72 260 72q124 0 200 -38l-13 -68q-46 17 -90 25.5t-102 8.5q-65 0 -114.5 -13t-78.5 -39q-33 -28 -60 -95.5t-43 -146.5t-16 -140q0 -69 25 -101q19 -25 63 -38t109 -13t130 14l40 209h-170l13 72h254
l-65 -337h-1q-38 -13 -94 -21.5z" />
    <glyph glyph-name="gbreve" unicode="&#x11f;" horiz-adv-x="594" 
d="M435 642q16 13 23 32t15 61h59q-10 -51 -20 -78t-32 -45q-41 -34 -124 -34q-45 0 -68 9t-37 25q-21 26 -21 67q0 25 6 56h58q-8 -38 -8 -58q0 -21 11 -35q16 -20 65 -20t73 20zM0 -177l12 66q82 -31 165 -31q43 0 81 10t63 31q22 19 38 56t28 101l6 29q-43 -41 -92 -63
t-96 -22q-44 0 -81 15t-57 42q-18 23 -25.5 53t-7.5 72q0 51 14 113.5t38 116.5t52 80q54 51 137 51q62 0 111.5 -22.5t78.5 -65.5l14 73h78l-91 -468q-29 -154 -98 -215q-35 -29 -81 -42t-116 -13q-100 0 -171 33zM403 137l53 271q-68 64 -169 64q-54 0 -90 -31
q-33 -30 -58.5 -112t-25.5 -147q0 -45 18 -69q32 -43 99 -43q78 0 173 67z" />
    <glyph glyph-name="Gdotaccent" unicode="&#x120;" horiz-adv-x="690" 
d="M494 786.5q-12 -10.5 -36 -10.5q-38 0 -38 27q0 5 2 15q4 22 16 32.5t37 10.5q20 0 28.5 -7t8.5 -22q0 -9 -1 -14q-5 -21 -17 -31.5zM448 -6.5q-56 -8.5 -118 -8.5q-74 0 -138 18t-92 53q-22 30 -32 64.5t-10 77.5q0 67 16 156t48.5 168.5t78.5 120.5q84 72 260 72
q124 0 200 -38l-13 -68q-46 17 -90 25.5t-102 8.5q-65 0 -114.5 -13t-78.5 -39q-33 -28 -60 -95.5t-43 -146.5t-16 -140q0 -69 25 -101q19 -25 63 -38t109 -13t130 14l40 209h-170l13 72h254l-65 -337h-1q-38 -13 -94 -21.5z" />
    <glyph glyph-name="gdotaccent" unicode="&#x121;" horiz-adv-x="594" 
d="M406 673q-11 -10 -35 -10q-21 0 -30 7.5t-9 22.5q0 8 1 13q5 23 16.5 33.5t36.5 10.5q37 0 37 -28q0 -4 -2 -16q-4 -23 -15 -33zM0 -177l12 66q82 -31 165 -31q43 0 81 10t63 31q22 19 38 56t28 101l6 29q-43 -41 -92 -63t-96 -22q-44 0 -81 15t-57 42q-18 23 -25.5 53
t-7.5 72q0 51 14 113.5t38 116.5t52 80q54 51 137 51q62 0 111.5 -22.5t78.5 -65.5l14 73h78l-91 -468q-29 -154 -98 -215q-35 -29 -81 -42t-116 -13q-100 0 -171 33zM403 137l53 271q-68 64 -169 64q-54 0 -90 -31q-33 -30 -58.5 -112t-25.5 -147q0 -45 18 -69
q32 -43 99 -43q78 0 173 67z" />
    <glyph glyph-name="Gcommaaccent" unicode="&#x122;" horiz-adv-x="690" 
d="M448 -6.5q-56 -8.5 -118 -8.5q-74 0 -138 18t-92 53q-22 30 -32 64.5t-10 77.5q0 67 16 156t48.5 168.5t78.5 120.5q84 72 260 72q124 0 200 -38l-13 -68q-46 17 -90 25.5t-102 8.5q-65 0 -114.5 -13t-78.5 -39q-33 -28 -60 -95.5t-43 -146.5t-16 -140q0 -69 25 -101
q19 -25 63 -38t109 -13t130 14l40 209h-170l13 72h254l-65 -337h-1q-38 -13 -94 -21.5zM276 -55h100l-166 -140h-74z" />
    <glyph glyph-name="gcommaaccent" unicode="&#x123;" horiz-adv-x="594" 
d="M392 583h-99l179 152h74zM0 -177l12 66q82 -31 165 -31q43 0 81 10t63 31q22 19 38 56t28 101l6 29q-43 -41 -92 -63t-96 -22q-44 0 -81 15t-57 42q-18 23 -25.5 53t-7.5 72q0 51 14 113.5t38 116.5t52 80q54 51 137 51q62 0 111.5 -22.5t78.5 -65.5l14 73h78l-91 -468
q-29 -154 -98 -215q-35 -29 -81 -42t-116 -13q-100 0 -171 33zM403 137l53 271q-68 64 -169 64q-54 0 -90 -31q-33 -30 -58.5 -112t-25.5 -147q0 -45 18 -69q32 -43 99 -43q78 0 173 67z" />
    <glyph glyph-name="Hcircumflex" unicode="&#x124;" horiz-adv-x="753" 
d="M446 876h92l95 -131h-63l-83 92l-117 -92h-69zM190 320l-62 -320h-83l136 700h83l-60 -309h377l60 309h83l-136 -700h-83l62 320h-377z" />
    <glyph glyph-name="hcircumflex" unicode="&#x125;" horiz-adv-x="588" 
d="M189 895h89l81 -152h-61l-69 108l-111 -108h-71zM269.5 455q-48.5 -18 -94.5 -50l-78 -405h-78l142 735h78l-54 -281q42 40 99 64.5t110 24.5q42 0 71.5 -13.5t43.5 -32.5q22 -30 22 -75q0 -26 -5 -49l-72 -373h-78l66 342q8 42 8 63q0 26 -10 41q-11 14 -30 20.5
t-53 6.5q-39 0 -87.5 -18z" />
    <glyph glyph-name="Hbar" unicode="&#x126;" horiz-adv-x="754" 
d="M190 320l-62 -320h-83l100 516h-86l11 58h87l24 126h83l-24 -126h377l24 126h83l-24 -126h86l-11 -58h-87l-100 -516h-83l62 320h-377zM228 516l-24 -125h377l24 125h-377z" />
    <glyph glyph-name="hbar" unicode="&#x127;" horiz-adv-x="588" 
d="M269.5 455q-48.5 -18 -94.5 -50l-78 -405h-78l117 604h-61l9 50h61l16 81h78l-16 -81h178l-9 -50h-178l-29 -150q42 40 99 64.5t110 24.5q42 0 71.5 -13.5t43.5 -32.5q22 -30 22 -75q0 -26 -5 -49l-72 -373h-78l66 342q8 42 8 63q0 26 -10 41q-11 14 -30 20.5t-53 6.5
q-39 0 -87.5 -18z" />
    <glyph glyph-name="Itilde" unicode="&#x128;" horiz-adv-x="301" 
d="M98.5 821q9.5 20 23.5 31q21 18 57 18q24 0 44.5 -9t46.5 -26q21 -13 31.5 -18t21.5 -5q19 0 29 9q7 5 10.5 15t8.5 34h48q-8 -43 -17 -62.5t-22 -30.5q-23 -19 -58 -19q-23 0 -42 8.5t-45 25.5q-20 13 -32 19t-24 6q-20 0 -31 -10q-12 -10 -19 -48h-48q8 42 17.5 62z
M268 700l-136 -700h-83l136 700h83z" />
    <glyph glyph-name="itilde" unicode="&#x129;" horiz-adv-x="236" 
d="M34.5 671.5q9.5 20.5 22.5 31.5q22 19 58 19q24 0 44.5 -9.5t46.5 -27.5q21 -14 31.5 -19.5t21.5 -5.5q19 0 29 9q6 5 10.5 16.5t8.5 35.5h48q-8 -44 -17.5 -64.5t-22.5 -32.5q-23 -18 -58 -18q-23 0 -42 9.5t-45 26.5q-19 13 -31.5 19.5t-24.5 6.5q-18 0 -30 -9
q-6 -5 -10.5 -16.5t-9.5 -36.5h-48q9 45 18.5 65.5zM199 528l-102 -528h-78l102 528h78z" />
    <glyph glyph-name="Imacron" unicode="&#x12a;" horiz-adv-x="301" 
d="M375 792h-259l9 52h259zM268 700l-136 -700h-83l136 700h83z" />
    <glyph glyph-name="imacron" unicode="&#x12b;" horiz-adv-x="236" 
d="M313 642h-259l9 52h259zM199 528l-102 -528h-78l102 528h78z" />
    <glyph glyph-name="Ibreve" unicode="&#x12c;" horiz-adv-x="301" 
d="M281 783.5q17 4.5 30 14.5q14 12 21 28.5t13 48.5h62q-8 -41 -19 -65.5t-33 -42.5q-39 -32 -126 -32q-83 0 -108 32q-17 21 -17 53q0 18 7 55h55q-6 -28 -6 -44q0 -21 11 -33q8 -10 23.5 -14.5t42.5 -4.5t44 4.5zM268 700l-136 -700h-83l136 700h83z" />
    <glyph glyph-name="ibreve" unicode="&#x12d;" horiz-adv-x="236" 
d="M252 642q16 13 23 32t15 61h59q-10 -51 -20 -78t-32 -45q-41 -34 -124 -34q-45 0 -68 9t-37 25q-21 26 -21 67q0 25 6 56h58q-8 -38 -8 -58q0 -21 11 -35q16 -20 65 -20t73 20zM199 528l-102 -528h-78l102 528h78z" />
    <glyph glyph-name="Iogonek" unicode="&#x12e;" horiz-adv-x="301" 
d="M32 -210q-44 0 -61 17q-16 16 -16 40q0 22 6 40t30 45.5t75 67.5h-17l136 700h83l-136 -700h-7q-51 -45 -74.5 -69.5t-30.5 -38t-7 -29.5q0 -12 6 -18q9 -9 33 -9t58 17l-9 -47q-31 -16 -69 -16z" />
    <glyph glyph-name="iogonek" unicode="&#x12f;" horiz-adv-x="235" 
d="M149 696q0 24 13 39t41 15q17 0 27 -8t10 -23q0 -56 -52 -56q-39 0 -39 33zM-1 -210q-44 0 -61 17q-16 16 -16 40q0 22 6 40t30 45.5t75 67.5h-14l102 528h78l-101 -522h1l-1 -1l-1 -5h-5q-51 -45 -74.5 -69.5t-30.5 -38t-7 -29.5q0 -12 6 -18q9 -9 33 -9t58 17l-9 -47
q-31 -16 -69 -16z" />
    <glyph glyph-name="Idotaccent" unicode="&#x130;" horiz-adv-x="301" 
d="M280 786.5q-12 -10.5 -36 -10.5q-38 0 -38 27q0 5 2 15q4 22 16 32.5t37 10.5q20 0 28.5 -7t8.5 -22q0 -9 -1 -14q-5 -21 -17 -31.5zM268 700l-136 -700h-83l136 700h83z" />
    <glyph glyph-name="dotlessi" unicode="&#x131;" horiz-adv-x="236" 
d="M199 528l-102 -528h-78l102 528h78z" />
    <glyph glyph-name="IJ" unicode="&#x132;" horiz-adv-x="819" 
d="M268 700l-136 -700h-83l136 700h83zM513.5 66q25.5 8 47.5 27q23 21 35.5 52.5t23.5 88.5l91 466h83l-90 -461q-16 -80 -36.5 -128t-54.5 -77q-54 -49 -169 -49q-44 0 -88 10t-73 24l13 67q71 -28 147 -28q45 0 70.5 8z" />
    <glyph glyph-name="ij" unicode="&#x133;" horiz-adv-x="471" 
d="M149 696q0 24 13 39t41 15q17 0 27 -8t10 -23q0 -56 -52 -56q-39 0 -39 33zM384 696q0 24 13 39t41 15q17 0 27 -8t10 -23q0 -56 -52 -56q-39 0 -39 33zM199 528l-102 -528h-78l102 528h78zM84 -194l11 63q14 -6 31.5 -10.5t33.5 -4.5q35 0 52 15q12 11 20 36t20 88
l104 535h78l-104 -535q-15 -78 -29 -114.5t-36 -58.5q-30 -30 -101 -30q-42 0 -80 16z" />
    <glyph glyph-name="Jcircumflex" unicode="&#x134;" horiz-adv-x="518" 
d="M439 876h92l95 -131h-63l-83 92l-117 -92h-69zM212.5 66q25.5 8 47.5 27q23 21 35.5 52.5t23.5 88.5l91 466h83l-90 -461q-16 -80 -36.5 -128t-54.5 -77q-54 -49 -169 -49q-44 0 -88 10t-73 24l13 67q71 -28 147 -28q45 0 70.5 8z" />
    <glyph glyph-name="jcircumflex" unicode="&#x135;" horiz-adv-x="237" 
d="M156 735h89l81 -152h-61l-69 108l-111 -108h-71zM-151 -194l11 63q14 -6 31.5 -10.5t33.5 -4.5q35 0 52 15q12 11 20 36t20 88l104 535h78l-104 -535q-15 -78 -29 -114.5t-36 -58.5q-30 -30 -101 -30q-42 0 -80 16z" />
    <glyph glyph-name="Kcommaaccent" unicode="&#x136;" horiz-adv-x="662" 
d="M128 0h-83l136 700h83l-64 -328l361 328h108l-400 -357l291 -343h-98l-272 320zM237 -55h100l-166 -140h-74z" />
    <glyph glyph-name="kcommaaccent" unicode="&#x137;" horiz-adv-x="526" 
d="M97 0h-78l142 735h78l-81 -422l278 215h101l-314 -243l214 -285h-91l-198 263zM158 -55h100l-166 -140h-74z" />
    <glyph glyph-name="kgreenlandic" unicode="&#x138;" horiz-adv-x="526" 
d="M97 0h-78l102 528h78l-41 -215l278 215h101l-314 -243l214 -285h-91l-198 263z" />
    <glyph glyph-name="Lacute" unicode="&#x139;" horiz-adv-x="568" 
d="M353 876h113l-189 -131h-85zM45 0l136 700h82l-122 -628h351l-13 -72h-434z" />
    <glyph glyph-name="lacute" unicode="&#x13a;" horiz-adv-x="333" 
d="M318 895h99l-179 -152h-74zM119 99q0 -17 6 -26q16 -19 51 -19q43 0 80 16l-12 -66q-34 -19 -88 -19q-75 0 -99 37q-15 21 -15 67t12 106l105 540h79l-105 -543q-14 -69 -14 -93z" />
    <glyph glyph-name="Lcommaaccent" unicode="&#x13b;" horiz-adv-x="568" 
d="M45 0l136 700h82l-122 -628h351l-13 -72h-434zM233 -55h100l-166 -140h-74z" />
    <glyph glyph-name="lcommaaccent" unicode="&#x13c;" horiz-adv-x="333" 
d="M119 99q0 -17 6 -26q16 -19 51 -19q43 0 80 16l-12 -66q-34 -19 -88 -19q-75 0 -99 37q-15 21 -15 67t12 106l105 540h79l-105 -543q-14 -69 -14 -93zM95 -55h100l-166 -140h-74z" />
    <glyph glyph-name="Lcaron" unicode="&#x13d;" horiz-adv-x="568" 
d="M45 0l136 700h82l-122 -628h351l-13 -72h-434zM411 700h86l-130 -152h-60z" />
    <glyph glyph-name="lcaron" unicode="&#x13e;" horiz-adv-x="333" 
d="M119 99q0 -17 6 -26q16 -19 51 -19q43 0 80 16l-12 -66q-34 -19 -88 -19q-75 0 -99 37q-15 21 -15 67t12 106l105 540h79l-105 -543q-14 -69 -14 -93zM349 735h86l-130 -152h-60z" />
    <glyph glyph-name="Ldot" unicode="&#x13f;" horiz-adv-x="568" 
d="M45 0l136 700h82l-122 -628h351l-13 -72h-434zM480 381q0 -32 -13.5 -48t-38.5 -16q-41 0 -41 32q0 64 53 64q40 0 40 -32z" />
    <glyph glyph-name="ldot" unicode="&#x140;" horiz-adv-x="333" 
d="M119 99q0 -17 6 -26q16 -19 51 -19q43 0 80 16l-12 -66q-34 -19 -88 -19q-75 0 -99 37q-15 21 -15 67t12 106l105 540h79l-105 -543q-14 -69 -14 -93zM319 286q0 -32 -13.5 -48t-38.5 -16q-41 0 -41 32q0 64 53 64q40 0 40 -32z" />
    <glyph glyph-name="Lslash" unicode="&#x141;" horiz-adv-x="569" 
d="M5 241l13 67l97 52l66 340h82l-56 -291l165 89l-12 -68l-167 -89l-52 -269h351l-13 -72h-434l57 293z" />
    <glyph glyph-name="lslash" unicode="&#x142;" horiz-adv-x="333" 
d="M57 22q-15 21 -15 67t12 106l23 117l-70 -36l10 56l71 37l71 366h79l-62 -321l87 45l-10 -57l-88 -45l-32 -165q-14 -69 -14 -93q0 -17 6 -26q16 -19 51 -19q43 0 80 16l-12 -66q-34 -19 -88 -19q-75 0 -99 37z" />
    <glyph glyph-name="Nacute" unicode="&#x143;" horiz-adv-x="755" 
d="M584 876h113l-189 -131h-85zM123 0h-78l136 700h67l287 -562l110 562h79l-136 -700h-67l-289 562z" />
    <glyph glyph-name="nacute" unicode="&#x144;" horiz-adv-x="588" 
d="M474 735h99l-179 -152h-74zM269.5 455q-48.5 -18 -94.5 -50l-78 -405h-78l102 528h78l-14 -74q42 40 99 64.5t110 24.5q42 0 71.5 -13.5t43.5 -32.5q22 -30 22 -75q0 -26 -5 -49l-72 -373h-78l66 342q8 42 8 63q0 26 -10 41q-11 14 -30 20.5t-53 6.5q-39 0 -87.5 -18z
" />
    <glyph glyph-name="Ncommaaccent" unicode="&#x145;" horiz-adv-x="755" 
d="M123 0h-78l136 700h67l287 -562l110 562h79l-136 -700h-67l-289 562zM278 -55h100l-166 -140h-74z" />
    <glyph glyph-name="ncommaaccent" unicode="&#x146;" horiz-adv-x="588" 
d="M269.5 455q-48.5 -18 -94.5 -50l-78 -405h-78l102 528h78l-14 -74q42 40 99 64.5t110 24.5q42 0 71.5 -13.5t43.5 -32.5q22 -30 22 -75q0 -26 -5 -49l-72 -373h-78l66 342q8 42 8 63q0 26 -10 41q-11 14 -30 20.5t-53 6.5q-39 0 -87.5 -18zM188 -55h100l-166 -140h-74z
" />
    <glyph glyph-name="Ncaron" unicode="&#x147;" horiz-adv-x="755" 
d="M381 876l83 -92l117 92h69l-145 -131h-92l-95 131h63zM123 0h-78l136 700h67l287 -562l110 562h79l-136 -700h-67l-289 562z" />
    <glyph glyph-name="ncaron" unicode="&#x148;" horiz-adv-x="588" 
d="M294 735l69 -108l111 108h71l-142 -152h-89l-81 152h61zM269.5 455q-48.5 -18 -94.5 -50l-78 -405h-78l102 528h78l-14 -74q42 40 99 64.5t110 24.5q42 0 71.5 -13.5t43.5 -32.5q22 -30 22 -75q0 -26 -5 -49l-72 -373h-78l66 342q8 42 8 63q0 26 -10 41q-11 14 -30 20.5
t-53 6.5q-39 0 -87.5 -18z" />
    <glyph glyph-name="Eng" unicode="&#x14a;" horiz-adv-x="769" 
d="M471 -200q-26 -10 -67 -10q-65 0 -96 25l13 68q35 -21 78 -21t66 22q15 13 24.5 39.5t20.5 81.5l2 12l-280 545l-109 -562h-78l136 700h67l288 -564l110 564h79l-137 -701q-13 -68 -28.5 -107t-35.5 -58q-27 -24 -53 -34z" />
    <glyph glyph-name="eng" unicode="&#x14b;" horiz-adv-x="588" 
d="M206 -194l11 63q14 -6 31.5 -10.5t33.5 -4.5q35 0 52 15q12 11 20 36t20 88l68 349q8 42 8 63q0 26 -10 41q-11 14 -30 20.5t-53 6.5q-39 0 -87.5 -18t-94.5 -50l-78 -405h-78l102 528h78l-14 -74q42 40 99 64.5t110 24.5q42 0 71.5 -13.5t43.5 -32.5q22 -30 22 -75
q0 -26 -5 -49l-75 -380q-15 -79 -28.5 -115t-35.5 -58q-30 -30 -101 -30q-42 0 -80 16z" />
    <glyph glyph-name="Omacron" unicode="&#x14c;" horiz-adv-x="729" 
d="M588 792h-259l9 52h259zM183 4q-59 19 -85 53q-43 57 -43 140q0 55 17 142.5t50 171.5t78 129q38 38 97.5 56.5t133.5 18.5q71 0 129.5 -19t84.5 -53q43 -57 43 -140q0 -55 -17 -142.5t-50 -171.5t-78 -129q-38 -38 -97 -56.5t-131 -18.5q-73 0 -132 19zM327.5 629.5
q-40.5 -13.5 -66.5 -39.5q-33 -33 -60.5 -105.5t-44 -152.5t-16.5 -130q0 -61 25 -94q18 -24 56.5 -37.5t92.5 -13.5q61 0 101.5 13.5t66.5 39.5q33 33 60.5 105.5t44 152.5t16.5 130q0 61 -25 94q-18 24 -56.5 37.5t-92.5 13.5q-61 0 -101.5 -13.5z" />
    <glyph glyph-name="omacron" unicode="&#x14d;" horiz-adv-x="573" 
d="M481 642h-259l9 52h259zM130.5 -0.5q-48.5 14.5 -70.5 44.5q-28 38 -28 105q0 51 13 119t36.5 127.5t53.5 86.5q38 33 80 47t105 14q56 0 104.5 -14.5t70.5 -43.5q28 -38 28 -105q0 -52 -13.5 -120t-37 -127.5t-52.5 -85.5q-38 -34 -79.5 -48t-104.5 -14
q-57 0 -105.5 14.5zM309 62.5q32 10.5 52 28.5q34 31 58.5 120t24.5 161q0 45 -15 66q-13 18 -41 28t-68 10q-41 0 -73.5 -10t-52.5 -28q-34 -31 -58.5 -120.5t-24.5 -161.5q0 -44 15 -65q13 -18 41.5 -28.5t68.5 -10.5q41 0 73 10.5z" />
    <glyph glyph-name="Obreve" unicode="&#x14e;" horiz-adv-x="729" 
d="M493 783.5q17 4.5 30 14.5q14 12 21 28.5t13 48.5h62q-8 -41 -19 -65.5t-33 -42.5q-39 -32 -126 -32q-83 0 -108 32q-17 21 -17 53q0 18 7 55h55q-6 -28 -6 -44q0 -21 11 -33q8 -10 23.5 -14.5t42.5 -4.5t44 4.5zM183 4q-59 19 -85 53q-43 57 -43 140q0 55 17 142.5
t50 171.5t78 129q38 38 97.5 56.5t133.5 18.5q71 0 129.5 -19t84.5 -53q43 -57 43 -140q0 -55 -17 -142.5t-50 -171.5t-78 -129q-38 -38 -97 -56.5t-131 -18.5q-73 0 -132 19zM327.5 629.5q-40.5 -13.5 -66.5 -39.5q-33 -33 -60.5 -105.5t-44 -152.5t-16.5 -130
q0 -61 25 -94q18 -24 56.5 -37.5t92.5 -13.5q61 0 101.5 13.5t66.5 39.5q33 33 60.5 105.5t44 152.5t16.5 130q0 61 -25 94q-18 24 -56.5 37.5t-92.5 13.5q-61 0 -101.5 -13.5z" />
    <glyph glyph-name="obreve" unicode="&#x14f;" horiz-adv-x="573" 
d="M421 642q16 13 23 32t15 61h59q-10 -51 -20 -78t-32 -45q-41 -34 -124 -34q-45 0 -68 9t-37 25q-21 26 -21 67q0 25 6 56h58q-8 -38 -8 -58q0 -21 11 -35q16 -20 65 -20t73 20zM130.5 -0.5q-48.5 14.5 -70.5 44.5q-28 38 -28 105q0 51 13 119t36.5 127.5t53.5 86.5
q38 33 80 47t105 14q56 0 104.5 -14.5t70.5 -43.5q28 -38 28 -105q0 -52 -13.5 -120t-37 -127.5t-52.5 -85.5q-38 -34 -79.5 -48t-104.5 -14q-57 0 -105.5 14.5zM309 62.5q32 10.5 52 28.5q34 31 58.5 120t24.5 161q0 45 -15 66q-13 18 -41 28t-68 10q-41 0 -73.5 -10
t-52.5 -28q-34 -31 -58.5 -120.5t-24.5 -161.5q0 -44 15 -65q13 -18 41.5 -28.5t68.5 -10.5q41 0 73 10.5z" />
    <glyph glyph-name="Ohungarumlaut" unicode="&#x150;" horiz-adv-x="729" 
d="M471 876h94l-161 -131h-76zM639 876h95l-161 -131h-73zM183 4q-59 19 -85 53q-43 57 -43 140q0 55 17 142.5t50 171.5t78 129q38 38 97.5 56.5t133.5 18.5q71 0 129.5 -19t84.5 -53q43 -57 43 -140q0 -55 -17 -142.5t-50 -171.5t-78 -129q-38 -38 -97 -56.5t-131 -18.5
q-73 0 -132 19zM327.5 629.5q-40.5 -13.5 -66.5 -39.5q-33 -33 -60.5 -105.5t-44 -152.5t-16.5 -130q0 -61 25 -94q18 -24 56.5 -37.5t92.5 -13.5q61 0 101.5 13.5t66.5 39.5q33 33 60.5 105.5t44 152.5t16.5 130q0 61 -25 94q-18 24 -56.5 37.5t-92.5 13.5
q-61 0 -101.5 -13.5z" />
    <glyph glyph-name="ohungarumlaut" unicode="&#x151;" horiz-adv-x="573" 
d="M380 735h91l-166 -152h-77zM536 735h91l-166 -152h-73zM130.5 -0.5q-48.5 14.5 -70.5 44.5q-28 38 -28 105q0 51 13 119t36.5 127.5t53.5 86.5q38 33 80 47t105 14q56 0 104.5 -14.5t70.5 -43.5q28 -38 28 -105q0 -52 -13.5 -120t-37 -127.5t-52.5 -85.5
q-38 -34 -79.5 -48t-104.5 -14q-57 0 -105.5 14.5zM309 62.5q32 10.5 52 28.5q34 31 58.5 120t24.5 161q0 45 -15 66q-13 18 -41 28t-68 10q-41 0 -73.5 -10t-52.5 -28q-34 -31 -58.5 -120.5t-24.5 -161.5q0 -44 15 -65q13 -18 41.5 -28.5t68.5 -10.5q41 0 73 10.5z" />
    <glyph glyph-name="OE" unicode="&#x152;" horiz-adv-x="1064" 
d="M182.5 20q-54.5 20 -82.5 56q-22 28 -31.5 59.5t-9.5 70.5q0 58 15.5 143t45.5 162t71 113q44 39 101.5 57.5t149.5 18.5h622l-14 -72h-372l-47 -237h342l-14 -71h-341l-49 -248h372l-13 -72h-622q-69 0 -123.5 20zM596 628h-158q-69 0 -110.5 -12t-70.5 -38
q-32 -29 -58 -94.5t-40 -141t-14 -132.5q0 -56 25 -88q36 -50 159 -50h159z" />
    <glyph glyph-name="oe" unicode="&#x153;" horiz-adv-x="920" 
d="M519 -1q-41 14 -62 43q-14 19 -20 40q-15 -23 -28 -35q-37 -33 -76 -47.5t-97 -14.5q-57 0 -105.5 14.5t-70.5 44.5q-28 38 -28 105q0 51 13 119t36.5 127.5t53.5 86.5q38 33 80 47t105 14q52 0 97.5 -14.5t66.5 -43.5q12 -16 20 -40q16 25 32 40q65 58 167 58
q120 0 156 -60q16 -26 16 -68q0 -35 -11.5 -70t-32.5 -56q-24 -24 -68 -35.5t-131 -11.5h-127q-8 -48 -8 -84q0 -46 15 -65q14 -19 48 -29t78 -10q85 0 158 22l-12 -65q-32 -12 -78.5 -19t-94.5 -7q-51 0 -92 14zM546.5 388.5q-16.5 -37.5 -28.5 -85.5h126q59 0 89.5 8.5
t44.5 25.5q10 12 15.5 32t5.5 39q0 25 -9 39q-21 33 -100 33q-68 0 -109 -38q-18 -16 -34.5 -53.5zM309 62.5q32 10.5 52 28.5q34 31 58.5 120t24.5 161q0 45 -15 66q-13 18 -41 28t-68 10q-41 0 -73.5 -10t-52.5 -28q-34 -31 -58.5 -120.5t-24.5 -161.5q0 -44 15 -65
q13 -18 41.5 -28.5t68.5 -10.5q41 0 73 10.5z" />
    <glyph glyph-name="Racute" unicode="&#x154;" horiz-adv-x="681" 
d="M540 876h113l-189 -131h-85zM439 700q56 0 104 -14.5t69 -42.5q26 -36 26 -93q0 -62 -21.5 -122.5t-55.5 -91.5q-28 -24 -67 -35.5t-100 -16.5l162 -284h-100l-151 281h-122l-55 -281h-83l136 700h258zM196 348h149q114 0 157 38q24 20 38 68.5t14 90.5q0 30 -12 46
q-26 37 -142 37h-150z" />
    <glyph glyph-name="racute" unicode="&#x155;" horiz-adv-x="425" 
d="M403 735h99l-179 -152h-74zM121 528h78l-16 -82q43 46 94 71.5t104 25.5q36 0 56 -6l-14 -73q-26 8 -65 8q-45 0 -93.5 -22.5t-93.5 -65.5l-74 -384h-78z" />
    <glyph glyph-name="Rcommaaccent" unicode="&#x156;" horiz-adv-x="681" 
d="M439 700q56 0 104 -14.5t69 -42.5q26 -36 26 -93q0 -62 -21.5 -122.5t-55.5 -91.5q-28 -24 -67 -35.5t-100 -16.5l162 -284h-100l-151 281h-122l-55 -281h-83l136 700h258zM196 348h149q114 0 157 38q24 20 38 68.5t14 90.5q0 30 -12 46q-26 37 -142 37h-150zM242 -55
h100l-166 -140h-74z" />
    <glyph glyph-name="rcommaaccent" unicode="&#x157;" horiz-adv-x="425" 
d="M121 528h78l-16 -82q43 46 94 71.5t104 25.5q36 0 56 -6l-14 -73q-26 8 -65 8q-45 0 -93.5 -22.5t-93.5 -65.5l-74 -384h-78zM2 -55h100l-166 -140h-74z" />
    <glyph glyph-name="Rcaron" unicode="&#x158;" horiz-adv-x="681" 
d="M338 876l83 -92l117 92h69l-145 -131h-92l-95 131h63zM439 700q56 0 104 -14.5t69 -42.5q26 -36 26 -93q0 -62 -21.5 -122.5t-55.5 -91.5q-28 -24 -67 -35.5t-100 -16.5l162 -284h-100l-151 281h-122l-55 -281h-83l136 700h258zM196 348h149q114 0 157 38q24 20 38 68.5
t14 90.5q0 30 -12 46q-26 37 -142 37h-150z" />
    <glyph glyph-name="rcaron" unicode="&#x159;" horiz-adv-x="425" 
d="M223 735l69 -108l111 108h71l-142 -152h-89l-81 152h61zM121 528h78l-16 -82q43 46 94 71.5t104 25.5q36 0 56 -6l-14 -73q-26 8 -65 8q-45 0 -93.5 -22.5t-93.5 -65.5l-74 -384h-78z" />
    <glyph glyph-name="Sacute" unicode="&#x15a;" horiz-adv-x="604" 
d="M511 876h113l-189 -131h-85zM12 22l12 67q49 -15 98.5 -22t109.5 -7q59 0 103 10t65 29q20 18 31 53t11 71q0 24 -8 37q-9 13 -37.5 23.5t-93.5 29.5q-78 22 -125.5 41t-66.5 44q-16 20 -16 64q0 54 18.5 110t46.5 81q33 29 94 44t135 15q116 0 193 -34l-12 -67
q-46 16 -90 22.5t-98 6.5q-60 0 -102 -9t-66 -30q-16 -14 -26.5 -49t-10.5 -66q0 -27 8 -36q12 -17 48 -30.5t107 -35.5q74 -23 113.5 -38.5t53.5 -34.5q18 -24 18 -70q0 -57 -17.5 -111.5t-54.5 -86.5q-63 -55 -230 -55q-138 0 -211 34z" />
    <glyph glyph-name="sacute" unicode="&#x15b;" horiz-adv-x="500" 
d="M416 735h99l-179 -152h-74zM75.5 -4.5q-42.5 7.5 -67.5 19.5l12 64q72 -25 162 -25q47 0 76.5 5.5t48.5 22.5q12 12 21 38t9 49q0 21 -6 30q-6 8 -27.5 16t-65.5 22q-62 19 -97.5 33t-49.5 32q-19 25 -19 56q0 36 14.5 76.5t34.5 59.5q31 27 75 37t105 10q98 0 157 -27
l-12 -63q-78 24 -151 24q-39 0 -72 -7.5t-49 -22.5q-11 -9 -18 -31t-7 -42q0 -17 6 -25q9 -11 34 -20.5t74 -23.5q54 -16 86 -28.5t45 -27.5q20 -24 20 -61q0 -41 -15.5 -87t-38.5 -66q-30 -27 -76.5 -36t-110.5 -9q-55 0 -97.5 7.5z" />
    <glyph glyph-name="Scircumflex" unicode="&#x15c;" horiz-adv-x="604" 
d="M373 876h92l95 -131h-63l-83 92l-117 -92h-69zM12 22l12 67q49 -15 98.5 -22t109.5 -7q59 0 103 10t65 29q20 18 31 53t11 71q0 24 -8 37q-9 13 -37.5 23.5t-93.5 29.5q-78 22 -125.5 41t-66.5 44q-16 20 -16 64q0 54 18.5 110t46.5 81q33 29 94 44t135 15q116 0 193 -34
l-12 -67q-46 16 -90 22.5t-98 6.5q-60 0 -102 -9t-66 -30q-16 -14 -26.5 -49t-10.5 -66q0 -27 8 -36q12 -17 48 -30.5t107 -35.5q74 -23 113.5 -38.5t53.5 -34.5q18 -24 18 -70q0 -57 -17.5 -111.5t-54.5 -86.5q-63 -55 -230 -55q-138 0 -211 34z" />
    <glyph glyph-name="scircumflex" unicode="&#x15d;" horiz-adv-x="500" 
d="M287 735h89l81 -152h-61l-69 108l-111 -108h-71zM75.5 -4.5q-42.5 7.5 -67.5 19.5l12 64q72 -25 162 -25q47 0 76.5 5.5t48.5 22.5q12 12 21 38t9 49q0 21 -6 30q-6 8 -27.5 16t-65.5 22q-62 19 -97.5 33t-49.5 32q-19 25 -19 56q0 36 14.5 76.5t34.5 59.5q31 27 75 37
t105 10q98 0 157 -27l-12 -63q-78 24 -151 24q-39 0 -72 -7.5t-49 -22.5q-11 -9 -18 -31t-7 -42q0 -17 6 -25q9 -11 34 -20.5t74 -23.5q54 -16 86 -28.5t45 -27.5q20 -24 20 -61q0 -41 -15.5 -87t-38.5 -66q-30 -27 -76.5 -36t-110.5 -9q-55 0 -97.5 7.5z" />
    <glyph glyph-name="Scedilla" unicode="&#x15e;" horiz-adv-x="604" 
d="M107 -196l8 40q39 -13 85 -13q38 0 53 11q15 14 15 40q0 9 -5 16q-10 11 -48 11q-32 0 -64 -6l4 19l48 66q-125 3 -191 34l12 67q49 -15 98.5 -22t109.5 -7q59 0 103 10t65 29q20 18 31 53t11 71q0 24 -8 37q-9 13 -37.5 23.5t-93.5 29.5q-78 22 -125.5 41t-66.5 44
q-16 20 -16 64q0 54 18.5 110t46.5 81q33 29 94 44t135 15q116 0 193 -34l-12 -67q-46 16 -90 22.5t-98 6.5q-60 0 -102 -9t-66 -30q-16 -14 -26.5 -49t-10.5 -66q0 -27 8 -36q12 -17 48 -30.5t107 -35.5q74 -23 113.5 -38.5t53.5 -34.5q18 -24 18 -70q0 -57 -17.5 -111.5
t-54.5 -86.5q-58 -50 -204 -55l-32 -44h15q59 0 78 -21q13 -15 13 -37q0 -50 -33 -78q-23 -18 -90 -18q-53 0 -93 14z" />
    <glyph glyph-name="scedilla" unicode="&#x15f;" horiz-adv-x="500" 
d="M56 -196l8 40q39 -13 85 -13q38 0 53 11q15 14 15 40q0 9 -5 16q-10 11 -48 11q-32 0 -64 -6l4 19l48 66q-94 3 -144 27l12 64q72 -25 162 -25q47 0 76.5 5.5t48.5 22.5q12 12 21 38t9 49q0 21 -6 30q-6 8 -27.5 16t-65.5 22q-62 19 -97.5 33t-49.5 32q-19 25 -19 56
q0 36 14.5 76.5t34.5 59.5q31 27 75 37t105 10q98 0 157 -27l-12 -63q-78 24 -151 24q-39 0 -72 -7.5t-49 -22.5q-11 -9 -18 -31t-7 -42q0 -17 6 -25q9 -11 34 -20.5t74 -23.5q54 -16 86 -28.5t45 -27.5q20 -24 20 -61q0 -41 -15.5 -87t-38.5 -66q-27 -24 -67.5 -33.5
t-94.5 -11.5l-32 -44h15q59 0 78 -21q13 -15 13 -37q0 -50 -33 -78q-23 -18 -90 -18q-53 0 -93 14z" />
    <glyph glyph-name="Scaron" unicode="&#x160;" horiz-adv-x="604" 
d="M308 876l83 -92l117 92h69l-145 -131h-92l-95 131h63zM12 22l12 67q49 -15 98.5 -22t109.5 -7q59 0 103 10t65 29q20 18 31 53t11 71q0 24 -8 37q-9 13 -37.5 23.5t-93.5 29.5q-78 22 -125.5 41t-66.5 44q-16 20 -16 64q0 54 18.5 110t46.5 81q33 29 94 44t135 15
q116 0 193 -34l-12 -67q-46 16 -90 22.5t-98 6.5q-60 0 -102 -9t-66 -30q-16 -14 -26.5 -49t-10.5 -66q0 -27 8 -36q12 -17 48 -30.5t107 -35.5q74 -23 113.5 -38.5t53.5 -34.5q18 -24 18 -70q0 -57 -17.5 -111.5t-54.5 -86.5q-63 -55 -230 -55q-138 0 -211 34z" />
    <glyph glyph-name="scaron" unicode="&#x161;" horiz-adv-x="500" 
d="M237 735l69 -108l111 108h71l-142 -152h-89l-81 152h61zM75.5 -4.5q-42.5 7.5 -67.5 19.5l12 64q72 -25 162 -25q47 0 76.5 5.5t48.5 22.5q12 12 21 38t9 49q0 21 -6 30q-6 8 -27.5 16t-65.5 22q-62 19 -97.5 33t-49.5 32q-19 25 -19 56q0 36 14.5 76.5t34.5 59.5
q31 27 75 37t105 10q98 0 157 -27l-12 -63q-78 24 -151 24q-39 0 -72 -7.5t-49 -22.5q-11 -9 -18 -31t-7 -42q0 -17 6 -25q9 -11 34 -20.5t74 -23.5q54 -16 86 -28.5t45 -27.5q20 -24 20 -61q0 -41 -15.5 -87t-38.5 -66q-30 -27 -76.5 -36t-110.5 -9q-55 0 -97.5 7.5z" />
    <glyph glyph-name="uni0162" unicode="&#x162;" horiz-adv-x="638" 
d="M300 0h-82l122 628h-249l14 72h580l-14 -72h-249zM196 -55h100l-166 -140h-74z" />
    <glyph glyph-name="uni0163" unicode="&#x163;" horiz-adv-x="403" 
d="M208 -15q-44 0 -70.5 9t-40.5 30q-16 25 -16 69q0 31 9 79l56 290h-74l13 66h74l26 133h78l-26 -133h151l-12 -66h-152l-52 -270q-12 -66 -12 -88q0 -21 8 -32q14 -19 61 -19q22 0 47 4.5t44 12.5l-12 -67q-42 -18 -100 -18zM149 -55h100l-166 -140h-74z" />
    <glyph glyph-name="Tcaron" unicode="&#x164;" horiz-adv-x="638" 
d="M322 876l83 -92l117 92h69l-145 -131h-92l-95 131h63zM300 0h-82l122 628h-249l14 72h580l-14 -72h-249z" />
    <glyph glyph-name="tcaron" unicode="&#x165;" horiz-adv-x="403" 
d="M382 735h86l-130 -152h-60zM208 -15q-44 0 -70.5 9t-40.5 30q-16 25 -16 69q0 31 9 79l56 290h-74l13 66h74l26 133h78l-26 -133h151l-12 -66h-152l-52 -270q-12 -66 -12 -88q0 -21 8 -32q14 -19 61 -19q22 0 47 4.5t44 12.5l-12 -67q-42 -18 -100 -18z" />
    <glyph glyph-name="Tbar" unicode="&#x166;" horiz-adv-x="638" 
d="M300 0h-82l61 312h-173l11 58h173l50 258h-249l14 72h580l-14 -72h-249l-50 -258h172l-10 -58h-173z" />
    <glyph glyph-name="tbar" unicode="&#x167;" horiz-adv-x="416" 
d="M208 -15q-44 0 -70.5 9t-40.5 30q-16 25 -16 69q0 31 9 79l16 84h-51l9 49h52l30 157h-74l13 66h74l26 133h78l-26 -133h151l-12 -66h-152l-30 -157h124l-9 -49h-125l-12 -64q-12 -66 -12 -88q0 -21 8 -32q14 -19 61 -19q22 0 47 4.5t44 12.5l-12 -67q-42 -18 -100 -18z
" />
    <glyph glyph-name="Utilde" unicode="&#x168;" horiz-adv-x="743" 
d="M317.5 821q9.5 20 23.5 31q21 18 57 18q24 0 44.5 -9t46.5 -26q21 -13 31.5 -18t21.5 -5q19 0 29 9q7 5 10.5 15t8.5 34h48q-8 -43 -17 -62.5t-22 -30.5q-23 -19 -58 -19q-23 0 -42 8.5t-45 25.5q-20 13 -32 19t-24 6q-20 0 -31 -10q-12 -10 -19 -48h-48q8 42 17.5 62z
M188.5 3q-55.5 18 -81.5 53q-27 37 -27 108q0 66 22 178l70 358h83l-70 -358q-25 -122 -25 -171q0 -42 16 -64q37 -49 145 -49q60 0 97.5 11t65.5 36q30 26 47.5 77.5t38.5 159.5l70 358h83l-70 -358q-25 -127 -46 -190t-61 -98q-41 -36 -98 -52.5t-140 -16.5
q-64 0 -119.5 18z" />
    <glyph glyph-name="utilde" unicode="&#x169;" horiz-adv-x="588" 
d="M210.5 671.5q9.5 20.5 22.5 31.5q22 19 58 19q24 0 44.5 -9.5t46.5 -27.5q21 -14 31.5 -19.5t21.5 -5.5q19 0 29 9q6 5 10.5 16.5t8.5 35.5h48q-8 -44 -17.5 -64.5t-22.5 -32.5q-23 -18 -58 -18q-23 0 -42 9.5t-45 26.5q-19 13 -31.5 19.5t-24.5 6.5q-18 0 -30 -9
q-6 -5 -10.5 -16.5t-9.5 -36.5h-48q9 45 18.5 65.5zM286 9.5q-57 -24.5 -110 -24.5q-42 0 -71.5 13.5t-43.5 32.5q-22 30 -22 75q0 27 5 49l72 373h78l-66 -342q-8 -42 -8 -63q0 -26 10 -41q11 -14 30 -20.5t53 -6.5q39 0 87.5 18t94.5 50l78 405h78l-102 -528h-78l14 74
q-42 -40 -99 -64.5z" />
    <glyph glyph-name="Umacron" unicode="&#x16a;" horiz-adv-x="743" 
d="M594 792h-259l9 52h259zM188.5 3q-55.5 18 -81.5 53q-27 37 -27 108q0 66 22 178l70 358h83l-70 -358q-25 -122 -25 -171q0 -42 16 -64q37 -49 145 -49q60 0 97.5 11t65.5 36q30 26 47.5 77.5t38.5 159.5l70 358h83l-70 -358q-25 -127 -46 -190t-61 -98
q-41 -36 -98 -52.5t-140 -16.5q-64 0 -119.5 18z" />
    <glyph glyph-name="umacron" unicode="&#x16b;" horiz-adv-x="588" 
d="M488 642h-259l9 52h259zM286 9.5q-57 -24.5 -110 -24.5q-42 0 -71.5 13.5t-43.5 32.5q-22 30 -22 75q0 27 5 49l72 373h78l-66 -342q-8 -42 -8 -63q0 -26 10 -41q11 -14 30 -20.5t53 -6.5q39 0 87.5 18t94.5 50l78 405h78l-102 -528h-78l14 74q-42 -40 -99 -64.5z" />
    <glyph glyph-name="Ubreve" unicode="&#x16c;" horiz-adv-x="743" 
d="M500 783.5q17 4.5 30 14.5q14 12 21 28.5t13 48.5h62q-8 -41 -19 -65.5t-33 -42.5q-39 -32 -126 -32q-83 0 -108 32q-17 21 -17 53q0 18 7 55h55q-6 -28 -6 -44q0 -21 11 -33q8 -10 23.5 -14.5t42.5 -4.5t44 4.5zM188.5 3q-55.5 18 -81.5 53q-27 37 -27 108q0 66 22 178
l70 358h83l-70 -358q-25 -122 -25 -171q0 -42 16 -64q37 -49 145 -49q60 0 97.5 11t65.5 36q30 26 47.5 77.5t38.5 159.5l70 358h83l-70 -358q-25 -127 -46 -190t-61 -98q-41 -36 -98 -52.5t-140 -16.5q-64 0 -119.5 18z" />
    <glyph glyph-name="ubreve" unicode="&#x16d;" horiz-adv-x="588" 
d="M428 642q16 13 23 32t15 61h59q-10 -51 -20 -78t-32 -45q-41 -34 -124 -34q-45 0 -68 9t-37 25q-21 26 -21 67q0 25 6 56h58q-8 -38 -8 -58q0 -21 11 -35q16 -20 65 -20t73 20zM286 9.5q-57 -24.5 -110 -24.5q-42 0 -71.5 13.5t-43.5 32.5q-22 30 -22 75q0 27 5 49
l72 373h78l-66 -342q-8 -42 -8 -63q0 -26 10 -41q11 -14 30 -20.5t53 -6.5q39 0 87.5 18t94.5 50l78 405h78l-102 -528h-78l14 74q-42 -40 -99 -64.5z" />
    <glyph glyph-name="Uring" unicode="&#x16e;" horiz-adv-x="743" 
d="M530 905.5q16 -5.5 26 -18.5q12 -18 12 -38q0 -12 -3 -26q-8 -45 -30 -64q-14 -13 -33 -18.5t-47 -5.5q-29 0 -45 5.5t-26 18.5q-13 17 -13 40q0 11 3 24q10 46 31 64q14 13 33 18.5t48 5.5q28 0 44 -5.5zM487 772q10 3 18 11q8 7 12.5 16t7.5 24q2 8 2 20q0 14 -5 20
q-6 8 -15 11t-26 3q-18 0 -28 -3t-18 -11q-9 -7 -13 -15.5t-8 -24.5q-2 -14 -2 -18q0 -13 6 -22q6 -8 15 -11t27 -3q17 0 27 3zM188.5 3q-55.5 18 -81.5 53q-27 37 -27 108q0 66 22 178l70 358h83l-70 -358q-25 -122 -25 -171q0 -42 16 -64q37 -49 145 -49q60 0 97.5 11
t65.5 36q30 26 47.5 77.5t38.5 159.5l70 358h83l-70 -358q-25 -127 -46 -190t-61 -98q-41 -36 -98 -52.5t-140 -16.5q-64 0 -119.5 18z" />
    <glyph glyph-name="uring" unicode="&#x16f;" horiz-adv-x="588" 
d="M424 751q15 -6 25 -19q12 -16 12 -39q0 -11 -3 -25q-8 -44 -33 -66q-14 -13 -32.5 -18.5t-46.5 -5.5t-43 6t-25 19q-13 16 -13 43q0 6 2 22q8 43 33 65q15 13 33.5 18.5t47.5 5.5q28 0 43 -6zM379 615q10 3 19 11q8 7 12.5 16.5t7.5 25.5q2 8 2 21q0 14 -5 21
q-6 8 -15 11t-25 3q-17 0 -28 -3t-19 -11q-14 -13 -20 -42q-3 -13 -3 -23q0 -11 6 -19q5 -8 14 -11t27 -3q17 0 27 3zM286 9.5q-57 -24.5 -110 -24.5q-42 0 -71.5 13.5t-43.5 32.5q-22 30 -22 75q0 27 5 49l72 373h78l-66 -342q-8 -42 -8 -63q0 -26 10 -41q11 -14 30 -20.5
t53 -6.5q39 0 87.5 18t94.5 50l78 405h78l-102 -528h-78l14 74q-42 -40 -99 -64.5z" />
    <glyph glyph-name="Uhungarumlaut" unicode="&#x170;" horiz-adv-x="743" 
d="M478 876h94l-161 -131h-76zM646 876h95l-161 -131h-73zM188.5 3q-55.5 18 -81.5 53q-27 37 -27 108q0 66 22 178l70 358h83l-70 -358q-25 -122 -25 -171q0 -42 16 -64q37 -49 145 -49q60 0 97.5 11t65.5 36q30 26 47.5 77.5t38.5 159.5l70 358h83l-70 -358
q-25 -127 -46 -190t-61 -98q-41 -36 -98 -52.5t-140 -16.5q-64 0 -119.5 18z" />
    <glyph glyph-name="uhungarumlaut" unicode="&#x171;" horiz-adv-x="588" 
d="M388 735h91l-166 -152h-77zM544 735h91l-166 -152h-73zM286 9.5q-57 -24.5 -110 -24.5q-42 0 -71.5 13.5t-43.5 32.5q-22 30 -22 75q0 27 5 49l72 373h78l-66 -342q-8 -42 -8 -63q0 -26 10 -41q11 -14 30 -20.5t53 -6.5q39 0 87.5 18t94.5 50l78 405h78l-102 -528h-78
l14 74q-42 -40 -99 -64.5z" />
    <glyph glyph-name="Uogonek" unicode="&#x172;" horiz-adv-x="743" 
d="M236 -193q-16 16 -16 40q0 20 5 36.5t25 41t62 60.5h-4q-64 0 -119.5 18t-81.5 53q-27 37 -27 108q0 66 22 178l70 358h83l-70 -358q-25 -122 -25 -171q0 -42 16 -64q37 -49 145 -49q60 0 97.5 11t65.5 36q30 26 47.5 77.5t38.5 159.5l70 358h83l-70 -358
q-25 -127 -46 -190t-61 -98q-32 -28 -73 -44t-96 -22q-45 -40 -66 -62t-27 -35t-6 -28q0 -12 6 -18q9 -9 33 -9t58 17l-9 -47q-31 -16 -69 -16q-44 0 -61 17z" />
    <glyph glyph-name="uogonek" unicode="&#x173;" horiz-adv-x="588" 
d="M335 -210q-44 0 -61 17q-16 16 -16 40q0 22 6 40t30.5 46t76.5 69l14 72q-42 -40 -99 -64.5t-110 -24.5q-42 0 -71.5 13.5t-43.5 32.5q-22 30 -22 75q0 27 5 49l72 373h78l-66 -342q-8 -42 -8 -63q0 -26 10 -41q11 -14 30 -20.5t53 -6.5q39 0 87.5 18t94.5 50l78 405h78
l-102 -528h-21q-51 -45 -74.5 -69.5t-30.5 -38t-7 -29.5q0 -12 6 -18q9 -9 33 -9t58 17l-9 -47q-31 -16 -69 -16z" />
    <glyph glyph-name="Wcircumflex" unicode="&#x174;" horiz-adv-x="1025" 
d="M583 876h92l95 -131h-63l-83 92l-117 -92h-69zM137 310.5q-15 183.5 -21 389.5h83q2 -145 13 -312t27 -285l299 597h96l65 -591q62 121 137.5 286t132.5 305h92q-85 -204 -172 -388t-162 -312h-93l-67 589l-295 -589h-94q-26 127 -41 310.5z" />
    <glyph glyph-name="wcircumflex" unicode="&#x175;" horiz-adv-x="815" 
d="M443 735h89l81 -152h-61l-69 108l-111 -108h-71zM101 246.5q-16 142.5 -20 281.5h80q2 -98 11 -218.5t21 -212.5l216 431h81l47 -422q47 90 101.5 207.5t94.5 214.5h86q-59 -140 -130 -282.5t-133 -245.5h-79l-50 409l-208 -409h-80q-22 104 -38 246.5z" />
    <glyph glyph-name="Ycircumflex" unicode="&#x176;" horiz-adv-x="661" 
d="M400 876h92l95 -131h-63l-83 92l-117 -92h-69zM172.5 473.5q-42.5 109.5 -60.5 226.5h82q16 -92 53.5 -194t83.5 -180q76 77 153 179t130 195h88q-64 -117 -150 -227.5t-192 -222.5l-48 -250h-83l48 252q-62 112 -104.5 221.5z" />
    <glyph glyph-name="ycircumflex" unicode="&#x177;" horiz-adv-x="539" 
d="M314 735h89l81 -152h-61l-69 108l-111 -108h-71zM-28 -201l12 68q23 -8 45 -8q28 0 47 13.5t49 56.5q32 44 53 76q-34 110 -62 249t-41 274h78q9 -104 31 -222t48 -217q130 209 234 439h82q-79 -171 -171.5 -331t-179.5 -281q-34 -50 -58.5 -76.5t-50.5 -38t-62 -11.5
q-31 0 -54 9z" />
    <glyph glyph-name="Ydieresis" unicode="&#x178;" horiz-adv-x="661" 
d="M329 776q-36 0 -36 29q0 4 2 14q8 42 51 42q35 0 35 -30q0 -8 -1 -13q-9 -42 -51 -42zM513 776q-36 0 -36 29q0 4 2 14q7 42 51 42q35 0 35 -30q0 -8 -1 -13q-9 -42 -51 -42zM172.5 473.5q-42.5 109.5 -60.5 226.5h82q16 -92 53.5 -194t83.5 -180q76 77 153 179t130 195
h88q-64 -117 -150 -227.5t-192 -222.5l-48 -250h-83l48 252q-62 112 -104.5 221.5z" />
    <glyph glyph-name="Zacute" unicode="&#x179;" horiz-adv-x="653" 
d="M540 876h113l-189 -131h-85zM10 57l525 570h-398l15 73h513l-11 -57l-528 -570h426l-14 -73h-538z" />
    <glyph glyph-name="zacute" unicode="&#x17a;" horiz-adv-x="525" 
d="M431 735h99l-179 -152h-74zM5 51l380 411h-291l13 66h395l-9 -51h-1l-382 -410h311l-12 -67h-413z" />
    <glyph glyph-name="Zdotaccent" unicode="&#x17b;" horiz-adv-x="653" 
d="M462 786.5q-12 -10.5 -36 -10.5q-38 0 -38 27q0 5 2 15q4 22 16 32.5t37 10.5q20 0 28.5 -7t8.5 -22q0 -9 -1 -14q-5 -21 -17 -31.5zM10 57l525 570h-398l15 73h513l-11 -57l-528 -570h426l-14 -73h-538z" />
    <glyph glyph-name="zdotaccent" unicode="&#x17c;" horiz-adv-x="525" 
d="M368 673q-11 -10 -35 -10q-21 0 -30 7.5t-9 22.5q0 8 1 13q5 23 16.5 33.5t36.5 10.5q37 0 37 -28q0 -4 -2 -16q-4 -23 -15 -33zM5 51l380 411h-291l13 66h395l-9 -51h-1l-382 -410h311l-12 -67h-413z" />
    <glyph glyph-name="Zcaron" unicode="&#x17d;" horiz-adv-x="653" 
d="M338 876l83 -92l117 92h69l-145 -131h-92l-95 131h63zM10 57l525 570h-398l15 73h513l-11 -57l-528 -570h426l-14 -73h-538z" />
    <glyph glyph-name="zcaron" unicode="&#x17e;" horiz-adv-x="525" 
d="M252 735l69 -108l111 108h71l-142 -152h-89l-81 152h61zM5 51l380 411h-291l13 66h395l-9 -51h-1l-382 -410h311l-12 -67h-413z" />
    <glyph glyph-name="Ohorn" unicode="&#x1a0;" horiz-adv-x="729" 
d="M714 650q-20 -23 -57 -25q31 -51 31 -122q0 -55 -17 -142.5t-50 -171.5t-78 -129q-38 -38 -97 -56.5t-131 -18.5q-73 0 -132 19t-85 53q-43 57 -43 140q0 55 17 142.5t50 171.5t78 129q38 38 97.5 56.5t133.5 18.5q53 0 100.5 -11t79.5 -31h17q19 0 29 10.5t10 29.5
q0 28 -16 58l67 12q16 -37 16 -72q0 -38 -20 -61zM542.5 215.5q27.5 72.5 44 152.5t16.5 130q0 61 -25 94q-18 24 -56.5 37.5t-92.5 13.5q-61 0 -101.5 -13.5t-66.5 -39.5q-33 -33 -60.5 -105.5t-44 -152.5t-16.5 -130q0 -61 25 -94q18 -24 56.5 -37.5t92.5 -13.5
q61 0 101.5 13.5t66.5 39.5q33 33 60.5 105.5z" />
    <glyph glyph-name="ohorn" unicode="&#x1a1;" horiz-adv-x="573" 
d="M562.5 488q-19.5 -21 -56.5 -21q17 -34 17 -87q0 -52 -13.5 -120t-37 -127.5t-52.5 -85.5q-38 -34 -79.5 -48t-104.5 -14q-57 0 -105.5 14.5t-70.5 44.5q-28 38 -28 105q0 51 13 119t36.5 127.5t53.5 86.5q38 33 80 47t105 14q42 0 81 -8t66 -25h19q35 0 35 37
q0 25 -14 53l61 11q14 -33 14 -66q0 -36 -19.5 -57zM419.5 211q24.5 89 24.5 161q0 45 -15 66q-13 18 -41 28t-68 10q-41 0 -73.5 -10t-52.5 -28q-34 -31 -58.5 -120.5t-24.5 -161.5q0 -44 15 -65q13 -18 41.5 -28.5t68.5 -10.5q41 0 73 10.5t52 28.5q34 31 58.5 120z" />
    <glyph glyph-name="Uhorn" unicode="&#x1af;" horiz-adv-x="743" 
d="M829 737q0 -42 -23.5 -65t-68.5 -21q1 0 1 -0.5v-0.5h-25l-60 -308q-25 -127 -46 -190t-61 -98q-41 -36 -98 -52.5t-140 -16.5q-64 0 -119.5 18t-81.5 53q-27 37 -27 108q0 66 22 178l70 358h83l-70 -358q-25 -122 -25 -171q0 -42 16 -64q37 -49 145 -49q60 0 97.5 11
t65.5 36q30 26 47.5 77.5t38.5 159.5l70 358h83v-1q19 0 29 10.5t10 29.5q0 28 -16 58l67 12q16 -37 16 -72z" />
    <glyph glyph-name="uhorn" unicode="&#x1b0;" horiz-adv-x="588" 
d="M633 564q0 -38 -21.5 -59t-62.5 -19q1 0 1 -0.5v-0.5h-7l-94 -485h-78l14 74q-42 -40 -99 -64.5t-110 -24.5q-42 0 -71.5 13.5t-43.5 32.5q-22 30 -22 75q0 27 5 49l72 373h78l-66 -342q-8 -42 -8 -63q0 -26 10 -41q11 -14 30 -20.5t53 -6.5q39 0 87.5 18t94.5 50l78 405
h28v1h36q35 0 35 37q0 25 -14 53l61 11q14 -33 14 -66z" />
    <glyph glyph-name="Scommaaccent" unicode="&#x218;" horiz-adv-x="603" 
d="M12 22l12 67q49 -15 98.5 -22t109.5 -7q59 0 103 10t65 29q20 18 31 53t11 71q0 24 -8 37q-9 13 -37.5 23.5t-93.5 29.5q-78 22 -125.5 41t-66.5 44q-16 20 -16 64q0 54 18.5 110t46.5 81q33 29 94 44t135 15q116 0 193 -34l-12 -67q-46 16 -90 22.5t-98 6.5
q-60 0 -102 -9t-66 -30q-16 -14 -26.5 -49t-10.5 -66q0 -27 8 -36q12 -17 48 -30.5t107 -35.5q74 -23 113.5 -38.5t53.5 -34.5q18 -24 18 -70q0 -57 -17.5 -111.5t-54.5 -86.5q-63 -55 -230 -55q-138 0 -211 34zM191 -55h100l-166 -140h-74z" />
    <glyph glyph-name="scommaaccent" unicode="&#x219;" horiz-adv-x="500" 
d="M75.5 -4.5q-42.5 7.5 -67.5 19.5l12 64q72 -25 162 -25q47 0 76.5 5.5t48.5 22.5q12 12 21 38t9 49q0 21 -6 30q-6 8 -27.5 16t-65.5 22q-62 19 -97.5 33t-49.5 32q-19 25 -19 56q0 36 14.5 76.5t34.5 59.5q31 27 75 37t105 10q98 0 157 -27l-12 -63q-78 24 -151 24
q-39 0 -72 -7.5t-49 -22.5q-11 -9 -18 -31t-7 -42q0 -17 6 -25q9 -11 34 -20.5t74 -23.5q54 -16 86 -28.5t45 -27.5q20 -24 20 -61q0 -41 -15.5 -87t-38.5 -66q-30 -27 -76.5 -36t-110.5 -9q-55 0 -97.5 7.5zM149 -55h100l-166 -140h-74z" />
    <glyph glyph-name="circumflex" unicode="&#x2c6;" horiz-adv-x="470" 
d="M273 735h89l81 -152h-61l-69 108l-111 -108h-71z" />
    <glyph glyph-name="caron" unicode="&#x2c7;" horiz-adv-x="470" 
d="M223 735l69 -108l111 108h71l-142 -152h-89l-81 152h61z" />
    <glyph glyph-name="breve" unicode="&#x2d8;" horiz-adv-x="470" 
d="M369 642q16 13 23 32t15 61h59q-10 -51 -20 -78t-32 -45q-41 -34 -124 -34q-45 0 -68 9t-37 25q-21 26 -21 67q0 25 6 56h58q-8 -38 -8 -58q0 -21 11 -35q16 -20 65 -20t73 20z" />
    <glyph glyph-name="dotaccent" unicode="&#x2d9;" horiz-adv-x="469" 
d="M340 673q-11 -10 -35 -10q-21 0 -30 7.5t-9 22.5q0 8 1 13q5 23 16.5 33.5t36.5 10.5q37 0 37 -28q0 -4 -2 -16q-4 -23 -15 -33z" />
    <glyph glyph-name="ring" unicode="&#x2da;" horiz-adv-x="469" 
d="M365 751q15 -6 25 -19q12 -16 12 -39q0 -11 -3 -25q-8 -44 -33 -66q-14 -13 -32.5 -18.5t-46.5 -5.5t-43 6t-25 19q-13 16 -13 43q0 6 2 22q8 43 33 65q15 13 33.5 18.5t47.5 5.5q28 0 43 -6zM320 615q10 3 19 11q8 7 12.5 16.5t7.5 25.5q2 8 2 21q0 14 -5 21
q-6 8 -15 11t-25 3q-17 0 -28 -3t-19 -11q-14 -13 -20 -42q-3 -13 -3 -23q0 -11 6 -19q5 -8 14 -11t27 -3q17 0 27 3z" />
    <glyph glyph-name="ogonek" unicode="&#x2db;" horiz-adv-x="470" 
d="M141 -210q-44 0 -61 17q-16 16 -16 40q0 22 6 40t32 47t80 72h59q-55 -48 -80 -73.5t-32 -39.5t-7 -30q0 -12 6 -18q9 -9 33 -9t58 17l-9 -47q-31 -16 -69 -16z" />
    <glyph glyph-name="tilde" unicode="&#x2dc;" horiz-adv-x="470" 
d="M151.5 671.5q9.5 20.5 22.5 31.5q22 19 58 19q24 0 44.5 -9.5t46.5 -27.5q21 -14 31.5 -19.5t21.5 -5.5q19 0 29 9q6 5 10.5 16.5t8.5 35.5h48q-8 -44 -17.5 -64.5t-22.5 -32.5q-23 -18 -58 -18q-23 0 -42 9.5t-45 26.5q-19 13 -31.5 19.5t-24.5 6.5q-18 0 -30 -9
q-6 -5 -10.5 -16.5t-9.5 -36.5h-48q9 45 18.5 65.5z" />
    <glyph glyph-name="hungarumlaut" unicode="&#x2dd;" horiz-adv-x="470" 
d="M265 735h91l-166 -152h-77zM421 735h91l-166 -152h-73z" />
    <glyph glyph-name="uni0394" unicode="&#x394;" horiz-adv-x="642" 
d="M169 398.5q96 169.5 190 301.5h93q42 -135 72 -303t37 -338l-10 -59h-562l10 59q74 170 170 339.5zM240 372.5q-85 -156.5 -147 -300.5h383q-5 144 -28 300.5t-54 252.5q-69 -96 -154 -252.5z" />
    <glyph glyph-name="uni03A9" unicode="&#x3a9;" horiz-adv-x="704" 
d="M1 0l13 73h147q-34 25 -60 61q-42 60 -42 147q0 40 11 98q17 89 44.5 156.5t72.5 107.5q83 72 233 72q69 0 129.5 -19t86.5 -53q39 -53 39 -138q0 -47 -14 -126q-17 -86 -49 -147.5t-72 -97.5q-34 -33 -82 -61h138l-14 -73h-237l10 57q73 42 118 89q73 76 102 227
q14 70 14 121q0 64 -23 96q-17 25 -55.5 39t-93.5 14q-61 0 -101.5 -13.5t-68.5 -39.5q-63 -57 -94 -217q-12 -61 -12 -111q0 -74 26 -116q26 -46 82 -89l-10 -57h-238z" />
    <glyph glyph-name="uni03BC" unicode="&#x3bc;" horiz-adv-x="602" 
d="M119 -2.5q-29 12.5 -44 30.5l-12 -223h-78l140 723h78l-67 -341q-7 -38 -7 -65t9 -39q12 -15 30.5 -21.5t52.5 -6.5q39 0 87.5 19t95.5 51l78 403h78l-102 -528h-78l14 75q-42 -42 -95 -66t-107 -24q-44 0 -73 12.5z" />
    <glyph glyph-name="pi" unicode="&#x3c0;" horiz-adv-x="585" 
d="M412 -10q-29 0 -47.5 8.5t-29.5 28.5q-8 16 -8 45q0 36 13 102l54 279h-135q-23 -105 -61.5 -230.5t-77.5 -222.5h-83q48 99 89.5 220.5t64.5 232.5h-118l14 75h497l-15 -75h-105l-53 -274q-12 -59 -12 -85q0 -14 3 -20q4 -9 11 -12.5t23 -3.5q26 0 50 13l-13 -65
q-27 -16 -61 -16z" />
    <glyph glyph-name="uni1EA0" unicode="&#x1ea0;" horiz-adv-x="679" 
d="M480 233h-302q-65 -132 -105 -233h-88q73 182 177 368.5t207 331.5h93q47 -147 78.5 -333t34.5 -367h-80q0 98 -15 233zM215 305h256q-12 93 -29 177.5t-36 143.5q-89 -123 -191 -321zM230 -112q0 24 13 39t41 15q17 0 27 -8t10 -23q0 -56 -52 -56q-39 0 -39 33z" />
    <glyph glyph-name="uni1EA1" unicode="&#x1ea1;" horiz-adv-x="582" 
d="M292.5 5.5q-44.5 -20.5 -87.5 -20.5q-44 0 -81 15t-57 42q-18 23 -25.5 53t-7.5 72q0 54 14 120t38 122.5t52 82.5q54 51 137 51q57 0 102.5 -22t75.5 -63l13 71h78l-101 -529h-78l12 65q-40 -39 -84.5 -59.5zM388 118l55 292q-33 32 -71 47t-85 15q-54 0 -90 -31
q-34 -31 -59 -118t-25 -156q0 -45 18 -69q32 -43 99 -43t158 63zM163 -112q0 24 13 39t41 15q17 0 27 -8t10 -23q0 -56 -52 -56q-39 0 -39 33z" />
    <glyph glyph-name="uni1EA2" unicode="&#x1ea2;" horiz-adv-x="679" 
d="M443 745q11 14 41 34q26 17 38.5 30.5t12.5 36.5q0 21 -18.5 34.5t-46.5 13.5q-31 0 -57 -15.5t-45 -40.5l29 -15q26 28 49 28q11 0 18 -5.5t7 -15.5q0 -11 -8.5 -21.5t-25.5 -24.5q-28 -22 -37 -39h43zM480 233h-302q-65 -132 -105 -233h-88q73 182 177 368.5t207 331.5
h93q47 -147 78.5 -333t34.5 -367h-80q0 98 -15 233zM215 305h256q-12 93 -29 177.5t-36 143.5q-89 -123 -191 -321z" />
    <glyph glyph-name="uni1EA3" unicode="&#x1ea3;" horiz-adv-x="582" 
d="M345 583q11 14 41 34q26 17 38.5 30.5t12.5 36.5q0 21 -18.5 34.5t-46.5 13.5q-31 0 -57 -15.5t-45 -40.5l29 -15q26 28 49 28q11 0 18 -5.5t7 -15.5q0 -11 -8.5 -21.5t-25.5 -24.5q-28 -22 -37 -39h43zM292.5 5.5q-44.5 -20.5 -87.5 -20.5q-44 0 -81 15t-57 42
q-18 23 -25.5 53t-7.5 72q0 54 14 120t38 122.5t52 82.5q54 51 137 51q57 0 102.5 -22t75.5 -63l13 71h78l-101 -529h-78l12 65q-40 -39 -84.5 -59.5zM388 118l55 292q-33 32 -71 47t-85 15q-54 0 -90 -31q-34 -31 -59 -118t-25 -156q0 -45 18 -69q32 -43 99 -43t158 63z
" />
    <glyph glyph-name="uni1EA4" unicode="&#x1ea4;" horiz-adv-x="679" 
d="M702 992h113l-189 -131h-85zM408 876h92l95 -131h-63l-83 92l-117 -92h-69zM480 233h-302q-65 -132 -105 -233h-88q73 182 177 368.5t207 331.5h93q47 -147 78.5 -333t34.5 -367h-80q0 98 -15 233zM215 305h256q-12 93 -29 177.5t-36 143.5q-89 -123 -191 -321z" />
    <glyph glyph-name="uni1EA5" unicode="&#x1ea5;" horiz-adv-x="582" 
d="M292.5 5.5q-44.5 -20.5 -87.5 -20.5q-44 0 -81 15t-57 42q-18 23 -25.5 53t-7.5 72q0 54 14 120t38 122.5t52 82.5q54 51 137 51q57 0 102.5 -22t75.5 -63l13 71h78l-101 -529h-78l12 65q-40 -39 -84.5 -59.5zM388 118l55 292q-33 32 -71 47t-85 15q-54 0 -90 -31
q-34 -31 -59 -118t-25 -156q0 -45 18 -69q32 -43 99 -43t158 63zM321 735h89l81 -152h-61l-69 108l-111 -108h-71zM623 825h99l-179 -152h-74z" />
    <glyph glyph-name="uni1EA6" unicode="&#x1ea6;" horiz-adv-x="679" 
d="M561 861l-139 131h102l111 -131h-74zM408 876h92l95 -131h-63l-83 92l-117 -92h-69zM480 233h-302q-65 -132 -105 -233h-88q73 182 177 368.5t207 331.5h93q47 -147 78.5 -333t34.5 -367h-80q0 98 -15 233zM215 305h256q-12 93 -29 177.5t-36 143.5q-89 -123 -191 -321z
" />
    <glyph glyph-name="uni1EA7" unicode="&#x1ea7;" horiz-adv-x="582" 
d="M521 673l-119 152h93l94 -152h-68zM321 735h89l81 -152h-61l-69 108l-111 -108h-71zM292.5 5.5q-44.5 -20.5 -87.5 -20.5q-44 0 -81 15t-57 42q-18 23 -25.5 53t-7.5 72q0 54 14 120t38 122.5t52 82.5q54 51 137 51q57 0 102.5 -22t75.5 -63l13 71h78l-101 -529h-78
l12 65q-40 -39 -84.5 -59.5zM388 118l55 292q-33 32 -71 47t-85 15q-54 0 -90 -31q-34 -31 -59 -118t-25 -156q0 -45 18 -69q32 -43 99 -43t158 63z" />
    <glyph glyph-name="uni1EA8" unicode="&#x1ea8;" horiz-adv-x="679" 
d="M601 861q11 14 41 34q26 17 38.5 30.5t12.5 36.5q0 21 -18.5 34.5t-46.5 13.5q-31 0 -57 -15.5t-45 -40.5l29 -15q26 28 49 28q11 0 18 -5.5t7 -15.5q0 -11 -8.5 -21.5t-25.5 -24.5q-28 -22 -37 -39h43zM408 876h92l95 -131h-63l-83 92l-117 -92h-69zM480 233h-302
q-65 -132 -105 -233h-88q73 182 177 368.5t207 331.5h93q47 -147 78.5 -333t34.5 -367h-80q0 98 -15 233zM215 305h256q-12 93 -29 177.5t-36 143.5q-89 -123 -191 -321z" />
    <glyph glyph-name="uni1EA9" unicode="&#x1ea9;" horiz-adv-x="582" 
d="M516 673q11 14 41 34q26 17 38.5 30.5t12.5 36.5q0 21 -18.5 34.5t-46.5 13.5q-31 0 -57 -15.5t-45 -40.5l29 -15q26 28 49 28q11 0 18 -5.5t7 -15.5q0 -11 -8.5 -21.5t-25.5 -24.5q-28 -22 -37 -39h43zM321 735h89l81 -152h-61l-69 108l-111 -108h-71zM292.5 5.5
q-44.5 -20.5 -87.5 -20.5q-44 0 -81 15t-57 42q-18 23 -25.5 53t-7.5 72q0 54 14 120t38 122.5t52 82.5q54 51 137 51q57 0 102.5 -22t75.5 -63l13 71h78l-101 -529h-78l12 65q-40 -39 -84.5 -59.5zM388 118l55 292q-33 32 -71 47t-85 15q-54 0 -90 -31q-34 -31 -59 -118
t-25 -156q0 -45 18 -69q32 -43 99 -43t158 63z" />
    <glyph glyph-name="uni1EAA" unicode="&#x1eaa;" horiz-adv-x="679" 
d="M321.5 961q9.5 20 23.5 31q21 18 57 18q24 0 44.5 -9t46.5 -26q21 -13 31.5 -18t21.5 -5q19 0 29 9q7 5 10.5 15t8.5 34h48q-8 -43 -17 -62.5t-22 -30.5q-23 -19 -58 -19q-23 0 -42 8.5t-45 25.5q-20 13 -32 19t-24 6q-20 0 -31 -10q-12 -10 -19 -48h-48q8 42 17.5 62z
M408 876h92l95 -131h-63l-83 92l-117 -92h-69zM480 231h-302q-65 -132 -105 -233h-88q73 182 177 368.5t207 331.5h93q47 -147 78.5 -333t34.5 -367h-80q0 98 -15 233zM215 303h256q-12 93 -29 177.5t-36 143.5q-89 -123 -191 -321z" />
    <glyph glyph-name="uni1EAB" unicode="&#x1eab;" horiz-adv-x="582" 
d="M292.5 5.5q-44.5 -20.5 -87.5 -20.5q-44 0 -81 15t-57 42q-18 23 -25.5 53t-7.5 72q0 54 14 120t38 122.5t52 82.5q54 51 137 51q57 0 102.5 -22t75.5 -63l13 71h78l-101 -529h-78l12 65q-40 -39 -84.5 -59.5zM388 118l55 292q-33 32 -71 47t-85 15q-54 0 -90 -31
q-34 -31 -59 -118t-25 -156q0 -45 18 -69q32 -43 99 -43t158 63zM321 735h89l81 -152h-61l-69 108l-111 -108h-71zM247.5 822.5q9.5 20.5 22.5 31.5q22 19 58 19q24 0 44.5 -9.5t46.5 -27.5q21 -14 31.5 -19.5t21.5 -5.5q19 0 29 9q6 5 10.5 16.5t8.5 35.5h48
q-8 -44 -17.5 -64.5t-22.5 -32.5q-23 -18 -58 -18q-23 0 -42 9.5t-45 26.5q-19 13 -31.5 19.5t-24.5 6.5q-18 0 -30 -9q-6 -5 -10.5 -16.5t-9.5 -36.5h-48q9 45 18.5 65.5z" />
    <glyph glyph-name="uni1EAC" unicode="&#x1eac;" horiz-adv-x="679" 
d="M408 876h92l95 -131h-63l-83 92l-117 -92h-69zM480 233h-302q-65 -132 -105 -233h-88q73 182 177 368.5t207 331.5h93q47 -147 78.5 -333t34.5 -367h-80q0 98 -15 233zM215 305h256q-12 93 -29 177.5t-36 143.5q-89 -123 -191 -321zM230 -112q0 24 13 39t41 15
q17 0 27 -8t10 -23q0 -56 -52 -56q-39 0 -39 33z" />
    <glyph glyph-name="uni1EAD" unicode="&#x1ead;" horiz-adv-x="582" 
d="M321 735h89l81 -152h-61l-69 108l-111 -108h-71zM292.5 5.5q-44.5 -20.5 -87.5 -20.5q-44 0 -81 15t-57 42q-18 23 -25.5 53t-7.5 72q0 54 14 120t38 122.5t52 82.5q54 51 137 51q57 0 102.5 -22t75.5 -63l13 71h78l-101 -529h-78l12 65q-40 -39 -84.5 -59.5zM388 118
l55 292q-33 32 -71 47t-85 15q-54 0 -90 -31q-34 -31 -59 -118t-25 -156q0 -45 18 -69q32 -43 99 -43t158 63zM163 -112q0 24 13 39t41 15q17 0 27 -8t10 -23q0 -56 -52 -56q-39 0 -39 33z" />
    <glyph glyph-name="uni1EAE" unicode="&#x1eae;" horiz-adv-x="679" 
d="M545 992h113l-189 -131h-85zM469 783.5q17 4.5 30 14.5q14 12 21 28.5t13 48.5h62q-8 -41 -19 -65.5t-33 -42.5q-39 -32 -126 -32q-83 0 -108 32q-17 21 -17 53q0 18 7 55h55q-6 -28 -6 -44q0 -21 11 -33q8 -10 23.5 -14.5t42.5 -4.5t44 4.5zM480 233h-302
q-65 -132 -105 -233h-88q73 182 177 368.5t207 331.5h93q47 -147 78.5 -333t34.5 -367h-80q0 98 -15 233zM215 305h256q-12 93 -29 177.5t-36 143.5q-89 -123 -191 -321z" />
    <glyph glyph-name="uni1EAF" unicode="&#x1eaf;" horiz-adv-x="582" 
d="M292.5 5.5q-44.5 -20.5 -87.5 -20.5q-44 0 -81 15t-57 42q-18 23 -25.5 53t-7.5 72q0 54 14 120t38 122.5t52 82.5q54 51 137 51q57 0 102.5 -22t75.5 -63l13 71h78l-101 -529h-78l12 65q-40 -39 -84.5 -59.5zM388 118l55 292q-33 32 -71 47t-85 15q-54 0 -90 -31
q-34 -31 -59 -118t-25 -156q0 -45 18 -69q32 -43 99 -43t158 63zM417 642q16 13 23 32t15 61h59q-10 -51 -20 -78t-32 -45q-41 -34 -124 -34q-45 0 -68 9t-37 25q-21 26 -21 67q0 25 6 56h58q-8 -38 -8 -58q0 -21 11 -35q16 -20 65 -20t73 20zM465 852h113l-189 -131h-85z
" />
    <glyph glyph-name="uni1EB0" unicode="&#x1eb0;" horiz-adv-x="679" 
d="M411 861l-139 131h102l111 -131h-74zM469 783.5q17 4.5 30 14.5q14 12 21 28.5t13 48.5h62q-8 -41 -19 -65.5t-33 -42.5q-39 -32 -126 -32q-83 0 -108 32q-17 21 -17 53q0 18 7 55h55q-6 -28 -6 -44q0 -21 11 -33q8 -10 23.5 -14.5t42.5 -4.5t44 4.5zM480 233h-302
q-65 -132 -105 -233h-88q73 182 177 368.5t207 331.5h93q47 -147 78.5 -333t34.5 -367h-80q0 98 -15 233zM215 305h256q-12 93 -29 177.5t-36 143.5q-89 -123 -191 -321z" />
    <glyph glyph-name="uni1EB1" unicode="&#x1eb1;" horiz-adv-x="582" 
d="M332 721l-119 152h93l94 -152h-68zM417 642q16 13 23 32t15 61h59q-10 -51 -20 -78t-32 -45q-41 -34 -124 -34q-45 0 -68 9t-37 25q-21 26 -21 67q0 25 6 56h58q-8 -38 -8 -58q0 -21 11 -35q16 -20 65 -20t73 20zM292.5 5.5q-44.5 -20.5 -87.5 -20.5q-44 0 -81 15t-57 42
q-18 23 -25.5 53t-7.5 72q0 54 14 120t38 122.5t52 82.5q54 51 137 51q57 0 102.5 -22t75.5 -63l13 71h78l-101 -529h-78l12 65q-40 -39 -84.5 -59.5zM388 118l55 292q-33 32 -71 47t-85 15q-54 0 -90 -31q-34 -31 -59 -118t-25 -156q0 -45 18 -69q32 -43 99 -43t158 63z
M163 -112q0 24 13 39t41 15q17 0 27 -8t10 -23q0 -56 -52 -56q-39 0 -39 33z" />
    <glyph glyph-name="uni1EB2" unicode="&#x1eb2;" horiz-adv-x="679" 
d="M451 861q11 14 41 34q26 17 38.5 30.5t12.5 36.5q0 21 -18.5 34.5t-46.5 13.5q-31 0 -57 -15.5t-45 -40.5l29 -15q26 28 49 28q11 0 18 -5.5t7 -15.5q0 -11 -8.5 -21.5t-25.5 -24.5q-28 -22 -37 -39h43zM469 783.5q17 4.5 30 14.5q14 12 21 28.5t13 48.5h62
q-8 -41 -19 -65.5t-33 -42.5q-39 -32 -126 -32q-83 0 -108 32q-17 21 -17 53q0 18 7 55h55q-6 -28 -6 -44q0 -21 11 -33q8 -10 23.5 -14.5t42.5 -4.5t44 4.5zM480 233h-302q-65 -132 -105 -233h-88q73 182 177 368.5t207 331.5h93q47 -147 78.5 -333t34.5 -367h-80
q0 98 -15 233zM215 305h256q-12 93 -29 177.5t-36 143.5q-89 -123 -191 -321z" />
    <glyph glyph-name="uni1EB3" unicode="&#x1eb3;" horiz-adv-x="582" 
d="M374 721q11 14 41 34q26 17 38.5 30.5t12.5 36.5q0 21 -18.5 34.5t-46.5 13.5q-31 0 -57 -15.5t-45 -40.5l29 -15q26 28 49 28q11 0 18 -5.5t7 -15.5q0 -11 -8.5 -21.5t-25.5 -24.5q-28 -22 -37 -39h43zM417 642q16 13 23 32t15 61h59q-10 -51 -20 -78t-32 -45
q-41 -34 -124 -34q-45 0 -68 9t-37 25q-21 26 -21 67q0 25 6 56h58q-8 -38 -8 -58q0 -21 11 -35q16 -20 65 -20t73 20zM292.5 5.5q-44.5 -20.5 -87.5 -20.5q-44 0 -81 15t-57 42q-18 23 -25.5 53t-7.5 72q0 54 14 120t38 122.5t52 82.5q54 51 137 51q57 0 102.5 -22
t75.5 -63l13 71h78l-101 -529h-78l12 65q-40 -39 -84.5 -59.5zM388 118l55 292q-33 32 -71 47t-85 15q-54 0 -90 -31q-34 -31 -59 -118t-25 -156q0 -45 18 -69q32 -43 99 -43t158 63z" />
    <glyph glyph-name="uni1EB4" unicode="&#x1eb4;" horiz-adv-x="679" 
d="M311.5 961q9.5 20 23.5 31q21 18 57 18q24 0 44.5 -9t46.5 -26q21 -13 31.5 -18t21.5 -5q19 0 29 9q7 5 10.5 15t8.5 34h48q-8 -43 -17 -62.5t-22 -30.5q-23 -19 -58 -19q-23 0 -42 8.5t-45 25.5q-20 13 -32 19t-24 6q-20 0 -31 -10q-12 -10 -19 -48h-48q8 42 17.5 62z
M469 783.5q17 4.5 30 14.5q14 12 21 28.5t13 48.5h62q-8 -41 -19 -65.5t-33 -42.5q-39 -32 -126 -32q-83 0 -108 32q-17 21 -17 53q0 18 7 55h55q-6 -28 -6 -44q0 -21 11 -33q8 -10 23.5 -14.5t42.5 -4.5t44 4.5zM480 233h-302q-65 -132 -105 -233h-88q73 182 177 368.5
t207 331.5h93q47 -147 78.5 -333t34.5 -367h-80q0 98 -15 233zM215 305h256q-12 93 -29 177.5t-36 143.5q-89 -123 -191 -321z" />
    <glyph glyph-name="uni1EB5" unicode="&#x1eb5;" horiz-adv-x="582" 
d="M225.5 822.5q9.5 20.5 22.5 31.5q22 19 58 19q24 0 44.5 -9.5t46.5 -27.5q21 -14 31.5 -19.5t21.5 -5.5q19 0 29 9q6 5 10.5 16.5t8.5 35.5h48q-8 -44 -17.5 -64.5t-22.5 -32.5q-23 -18 -58 -18q-23 0 -42 9.5t-45 26.5q-19 13 -31.5 19.5t-24.5 6.5q-18 0 -30 -9
q-6 -5 -10.5 -16.5t-9.5 -36.5h-48q9 45 18.5 65.5zM292.5 5.5q-44.5 -20.5 -87.5 -20.5q-44 0 -81 15t-57 42q-18 23 -25.5 53t-7.5 72q0 54 14 120t38 122.5t52 82.5q54 51 137 51q57 0 102.5 -22t75.5 -63l13 71h78l-101 -529h-78l12 65q-40 -39 -84.5 -59.5zM388 118
l55 292q-33 32 -71 47t-85 15q-54 0 -90 -31q-34 -31 -59 -118t-25 -156q0 -45 18 -69q32 -43 99 -43t158 63zM417 642q16 13 23 32t15 61h59q-10 -51 -20 -78t-32 -45q-41 -34 -124 -34q-45 0 -68 9t-37 25q-21 26 -21 67q0 25 6 56h58q-8 -38 -8 -58q0 -21 11 -35
q16 -20 65 -20t73 20z" />
    <glyph glyph-name="uni1EB6" unicode="&#x1eb6;" horiz-adv-x="679" 
d="M469 783.5q17 4.5 30 14.5q14 12 21 28.5t13 48.5h62q-8 -41 -19 -65.5t-33 -42.5q-39 -32 -126 -32q-83 0 -108 32q-17 21 -17 53q0 18 7 55h55q-6 -28 -6 -44q0 -21 11 -33q8 -10 23.5 -14.5t42.5 -4.5t44 4.5zM480 233h-302q-65 -132 -105 -233h-88q73 182 177 368.5
t207 331.5h93q47 -147 78.5 -333t34.5 -367h-80q0 98 -15 233zM215 305h256q-12 93 -29 177.5t-36 143.5q-89 -123 -191 -321zM230 -112q0 24 13 39t41 15q17 0 27 -8t10 -23q0 -56 -52 -56q-39 0 -39 33z" />
    <glyph glyph-name="uni1EB7" unicode="&#x1eb7;" horiz-adv-x="582" 
d="M417 642q16 13 23 32t15 61h59q-10 -51 -20 -78t-32 -45q-41 -34 -124 -34q-45 0 -68 9t-37 25q-21 26 -21 67q0 25 6 56h58q-8 -38 -8 -58q0 -21 11 -35q16 -20 65 -20t73 20zM292.5 5.5q-44.5 -20.5 -87.5 -20.5q-44 0 -81 15t-57 42q-18 23 -25.5 53t-7.5 72
q0 54 14 120t38 122.5t52 82.5q54 51 137 51q57 0 102.5 -22t75.5 -63l13 71h78l-101 -529h-78l12 65q-40 -39 -84.5 -59.5zM388 118l55 292q-33 32 -71 47t-85 15q-54 0 -90 -31q-34 -31 -59 -118t-25 -156q0 -45 18 -69q32 -43 99 -43t158 63zM163 -112q0 24 13 39t41 15
q17 0 27 -8t10 -23q0 -56 -52 -56q-39 0 -39 33z" />
    <glyph glyph-name="uni1EB8" unicode="&#x1eb8;" horiz-adv-x="635" 
d="M45 0l136 700h454l-14 -72h-371l-47 -237h341l-13 -71h-341l-49 -248h371l-13 -72h-454zM230 -112q0 24 13 39t41 15q17 0 27 -8t10 -23q0 -56 -52 -56q-39 0 -39 33z" />
    <glyph glyph-name="uni1EB9" unicode="&#x1eb9;" horiz-adv-x="533" 
d="M238 -15q-54 0 -103.5 13.5t-70.5 43.5q-30 40 -30 107q0 56 14 124t39 126t56 86q65 58 177 58q120 0 156 -60q16 -26 16 -68q0 -35 -11.5 -70t-32.5 -56q-24 -24 -69.5 -35.5t-134.5 -11.5h-122q-8 -48 -8 -84q0 -46 15 -65q14 -19 48 -29t78 -10q85 0 158 22l-12 -65
q-68 -26 -163 -26zM163.5 388.5q-16.5 -37.5 -28.5 -85.5h121q61 0 93 8.5t46 25.5q10 12 15.5 32t5.5 39q0 25 -9 39q-21 33 -100 33q-68 0 -109 -38q-18 -16 -34.5 -53.5zM163 -112q0 24 13 39t41 15q17 0 27 -8t10 -23q0 -56 -52 -56q-39 0 -39 33z" />
    <glyph glyph-name="uni1EBA" unicode="&#x1eba;" horiz-adv-x="635" 
d="M443 745q11 14 41 34q26 17 38.5 30.5t12.5 36.5q0 21 -18.5 34.5t-46.5 13.5q-31 0 -57 -15.5t-45 -40.5l29 -15q26 28 49 28q11 0 18 -5.5t7 -15.5q0 -11 -8.5 -21.5t-25.5 -24.5q-28 -22 -37 -39h43zM45 0l136 700h454l-14 -72h-371l-47 -237h341l-13 -71h-341
l-49 -248h371l-13 -72h-454z" />
    <glyph glyph-name="uni1EBB" unicode="&#x1ebb;" horiz-adv-x="533" 
d="M345 583q11 14 41 34q26 17 38.5 30.5t12.5 36.5q0 21 -18.5 34.5t-46.5 13.5q-31 0 -57 -15.5t-45 -40.5l29 -15q26 28 49 28q11 0 18 -5.5t7 -15.5q0 -11 -8.5 -21.5t-25.5 -24.5q-28 -22 -37 -39h43zM238 -15q-54 0 -103.5 13.5t-70.5 43.5q-30 40 -30 107
q0 56 14 124t39 126t56 86q65 58 177 58q120 0 156 -60q16 -26 16 -68q0 -35 -11.5 -70t-32.5 -56q-24 -24 -69.5 -35.5t-134.5 -11.5h-122q-8 -48 -8 -84q0 -46 15 -65q14 -19 48 -29t78 -10q85 0 158 22l-12 -65q-68 -26 -163 -26zM163.5 388.5q-16.5 -37.5 -28.5 -85.5
h121q61 0 93 8.5t46 25.5q10 12 15.5 32t5.5 39q0 25 -9 39q-21 33 -100 33q-68 0 -109 -38q-18 -16 -34.5 -53.5z" />
    <glyph glyph-name="uni1EBC" unicode="&#x1ebc;" horiz-adv-x="635" 
d="M286.5 821q9.5 20 23.5 31q21 18 57 18q24 0 44.5 -9t46.5 -26q21 -13 31.5 -18t21.5 -5q19 0 29 9q7 5 10.5 15t8.5 34h48q-8 -43 -17 -62.5t-22 -30.5q-23 -19 -58 -19q-23 0 -42 8.5t-45 25.5q-20 13 -32 19t-24 6q-20 0 -31 -10q-12 -10 -19 -48h-48q8 42 17.5 62z
M45 0l136 700h454l-14 -72h-371l-47 -237h341l-13 -71h-341l-49 -248h371l-13 -72h-454z" />
    <glyph glyph-name="uni1EBD" unicode="&#x1ebd;" horiz-adv-x="533" 
d="M207.5 671.5q9.5 20.5 22.5 31.5q22 19 58 19q24 0 44.5 -9.5t46.5 -27.5q21 -14 31.5 -19.5t21.5 -5.5q19 0 29 9q6 5 10.5 16.5t8.5 35.5h48q-8 -44 -17.5 -64.5t-22.5 -32.5q-23 -18 -58 -18q-23 0 -42 9.5t-45 26.5q-19 13 -31.5 19.5t-24.5 6.5q-18 0 -30 -9
q-6 -5 -10.5 -16.5t-9.5 -36.5h-48q9 45 18.5 65.5zM238 -15q-54 0 -103.5 13.5t-70.5 43.5q-30 40 -30 107q0 56 14 124t39 126t56 86q65 58 177 58q120 0 156 -60q16 -26 16 -68q0 -35 -11.5 -70t-32.5 -56q-24 -24 -69.5 -35.5t-134.5 -11.5h-122q-8 -48 -8 -84
q0 -46 15 -65q14 -19 48 -29t78 -10q85 0 158 22l-12 -65q-68 -26 -163 -26zM163.5 388.5q-16.5 -37.5 -28.5 -85.5h121q61 0 93 8.5t46 25.5q10 12 15.5 32t5.5 39q0 25 -9 39q-21 33 -100 33q-68 0 -109 -38q-18 -16 -34.5 -53.5z" />
    <glyph glyph-name="uni1EBE" unicode="&#x1ebe;" horiz-adv-x="635" 
d="M701 992h113l-189 -131h-85zM407 876h92l95 -131h-63l-83 92l-117 -92h-69zM45 0l136 700h454l-14 -72h-371l-47 -237h341l-13 -71h-341l-49 -248h371l-13 -72h-454z" />
    <glyph glyph-name="uni1EBF" unicode="&#x1ebf;" horiz-adv-x="533" 
d="M609 825h99l-179 -152h-74zM307 735h89l81 -152h-61l-69 108l-111 -108h-71zM238 -15q-54 0 -103.5 13.5t-70.5 43.5q-30 40 -30 107q0 56 14 124t39 126t56 86q65 58 177 58q120 0 156 -60q16 -26 16 -68q0 -35 -11.5 -70t-32.5 -56q-24 -24 -69.5 -35.5t-134.5 -11.5
h-122q-8 -48 -8 -84q0 -46 15 -65q14 -19 48 -29t78 -10q85 0 158 22l-12 -65q-68 -26 -163 -26zM163.5 388.5q-16.5 -37.5 -28.5 -85.5h121q61 0 93 8.5t46 25.5q10 12 15.5 32t5.5 39q0 25 -9 39q-21 33 -100 33q-68 0 -109 -38q-18 -16 -34.5 -53.5z" />
    <glyph glyph-name="uni1EC0" unicode="&#x1ec0;" horiz-adv-x="635" 
d="M561 861l-139 131h102l111 -131h-74zM408 876h92l95 -131h-63l-83 92l-117 -92h-69zM45 0l136 700h454l-14 -72h-371l-47 -237h341l-13 -71h-341l-49 -248h371l-13 -72h-454z" />
    <glyph glyph-name="uni1EC1" unicode="&#x1ec1;" horiz-adv-x="533" 
d="M489 670l-119 152h93l94 -152h-68zM307 735h89l81 -152h-61l-69 108l-111 -108h-71zM238 -15q-54 0 -103.5 13.5t-70.5 43.5q-30 40 -30 107q0 56 14 124t39 126t56 86q65 58 177 58q120 0 156 -60q16 -26 16 -68q0 -35 -11.5 -70t-32.5 -56q-24 -24 -69.5 -35.5
t-134.5 -11.5h-122q-8 -48 -8 -84q0 -46 15 -65q14 -19 48 -29t78 -10q85 0 158 22l-12 -65q-68 -26 -163 -26zM163.5 388.5q-16.5 -37.5 -28.5 -85.5h121q61 0 93 8.5t46 25.5q10 12 15.5 32t5.5 39q0 25 -9 39q-21 33 -100 33q-68 0 -109 -38q-18 -16 -34.5 -53.5z" />
    <glyph glyph-name="uni1EC2" unicode="&#x1ec2;" horiz-adv-x="635" 
d="M601 861q11 14 41 34q26 17 38.5 30.5t12.5 36.5q0 21 -18.5 34.5t-46.5 13.5q-31 0 -57 -15.5t-45 -40.5l29 -15q26 28 49 28q11 0 18 -5.5t7 -15.5q0 -11 -8.5 -21.5t-25.5 -24.5q-28 -22 -37 -39h43zM408 876h92l95 -131h-63l-83 92l-117 -92h-69zM45 0l136 700h454
l-14 -72h-371l-47 -237h341l-13 -71h-341l-49 -248h371l-13 -72h-454z" />
    <glyph glyph-name="uni1EC3" unicode="&#x1ec3;" horiz-adv-x="533" 
d="M502 673q11 14 41 34q26 17 38.5 30.5t12.5 36.5q0 21 -18.5 34.5t-46.5 13.5q-31 0 -57 -15.5t-45 -40.5l29 -15q26 28 49 28q11 0 18 -5.5t7 -15.5q0 -11 -8.5 -21.5t-25.5 -24.5q-28 -22 -37 -39h43zM307 735h89l81 -152h-61l-69 108l-111 -108h-71zM238 -15
q-54 0 -103.5 13.5t-70.5 43.5q-30 40 -30 107q0 56 14 124t39 126t56 86q65 58 177 58q120 0 156 -60q16 -26 16 -68q0 -35 -11.5 -70t-32.5 -56q-24 -24 -69.5 -35.5t-134.5 -11.5h-122q-8 -48 -8 -84q0 -46 15 -65q14 -19 48 -29t78 -10q85 0 158 22l-12 -65
q-68 -26 -163 -26zM163.5 388.5q-16.5 -37.5 -28.5 -85.5h121q61 0 93 8.5t46 25.5q10 12 15.5 32t5.5 39q0 25 -9 39q-21 33 -100 33q-68 0 -109 -38q-18 -16 -34.5 -53.5z" />
    <glyph glyph-name="uni1EC4" unicode="&#x1ec4;" horiz-adv-x="635" 
d="M321.5 961q9.5 20 23.5 31q21 18 57 18q24 0 44.5 -9t46.5 -26q21 -13 31.5 -18t21.5 -5q19 0 29 9q7 5 10.5 15t8.5 34h48q-8 -43 -17 -62.5t-22 -30.5q-23 -19 -58 -19q-23 0 -42 8.5t-45 25.5q-20 13 -32 19t-24 6q-20 0 -31 -10q-12 -10 -19 -48h-48q8 42 17.5 62z
M408 876h92l95 -131h-63l-83 92l-117 -92h-69zM45 0l136 700h454l-14 -72h-371l-47 -237h341l-13 -71h-341l-49 -248h371l-13 -72h-454z" />
    <glyph glyph-name="uni1EC5" unicode="&#x1ec5;" horiz-adv-x="533" 
d="M221.5 822.5q9.5 20.5 22.5 31.5q22 19 58 19q24 0 44.5 -9.5t46.5 -27.5q21 -14 31.5 -19.5t21.5 -5.5q19 0 29 9q6 5 10.5 16.5t8.5 35.5h48q-8 -44 -17.5 -64.5t-22.5 -32.5q-23 -18 -58 -18q-23 0 -42 9.5t-45 26.5q-19 13 -31.5 19.5t-24.5 6.5q-18 0 -30 -9
q-6 -5 -10.5 -16.5t-9.5 -36.5h-48q9 45 18.5 65.5zM307 735h89l81 -152h-61l-69 108l-111 -108h-71zM238 -15q-54 0 -103.5 13.5t-70.5 43.5q-30 40 -30 107q0 56 14 124t39 126t56 86q65 58 177 58q120 0 156 -60q16 -26 16 -68q0 -35 -11.5 -70t-32.5 -56
q-24 -24 -69.5 -35.5t-134.5 -11.5h-122q-8 -48 -8 -84q0 -46 15 -65q14 -19 48 -29t78 -10q85 0 158 22l-12 -65q-68 -26 -163 -26zM163.5 388.5q-16.5 -37.5 -28.5 -85.5h121q61 0 93 8.5t46 25.5q10 12 15.5 32t5.5 39q0 25 -9 39q-21 33 -100 33q-68 0 -109 -38
q-18 -16 -34.5 -53.5z" />
    <glyph glyph-name="uni1EC6" unicode="&#x1ec6;" horiz-adv-x="635" 
d="M407 876h92l95 -131h-63l-83 92l-117 -92h-69zM45 0l136 700h454l-14 -72h-371l-47 -237h341l-13 -71h-341l-49 -248h371l-13 -72h-454zM230 -112q0 24 13 39t41 15q17 0 27 -8t10 -23q0 -56 -52 -56q-39 0 -39 33z" />
    <glyph glyph-name="uni1EC7" unicode="&#x1ec7;" horiz-adv-x="533" 
d="M307 735h89l81 -152h-61l-69 108l-111 -108h-71zM238 -15q-54 0 -103.5 13.5t-70.5 43.5q-30 40 -30 107q0 56 14 124t39 126t56 86q65 58 177 58q120 0 156 -60q16 -26 16 -68q0 -35 -11.5 -70t-32.5 -56q-24 -24 -69.5 -35.5t-134.5 -11.5h-122q-8 -48 -8 -84
q0 -46 15 -65q14 -19 48 -29t78 -10q85 0 158 22l-12 -65q-68 -26 -163 -26zM163.5 388.5q-16.5 -37.5 -28.5 -85.5h121q61 0 93 8.5t46 25.5q10 12 15.5 32t5.5 39q0 25 -9 39q-21 33 -100 33q-68 0 -109 -38q-18 -16 -34.5 -53.5zM163 -112q0 24 13 39t41 15q17 0 27 -8
t10 -23q0 -56 -52 -56q-39 0 -39 33z" />
    <glyph glyph-name="uni1EC8" unicode="&#x1ec8;" horiz-adv-x="301" 
d="M253 745q11 14 41 34q26 17 38.5 30.5t12.5 36.5q0 21 -18.5 34.5t-46.5 13.5q-31 0 -57 -15.5t-45 -40.5l29 -15q26 28 49 28q11 0 18 -5.5t7 -15.5q0 -11 -8.5 -21.5t-25.5 -24.5q-28 -22 -37 -39h43zM268 700l-136 -700h-83l136 700h83z" />
    <glyph glyph-name="uni1EC9" unicode="&#x1ec9;" horiz-adv-x="235" 
d="M188 583q11 14 41 34q26 17 38.5 30.5t12.5 36.5q0 21 -18.5 34.5t-46.5 13.5q-31 0 -57 -15.5t-45 -40.5l29 -15q26 28 49 28q11 0 18 -5.5t7 -15.5q0 -11 -8.5 -21.5t-25.5 -24.5q-28 -22 -37 -39h43zM199 528l-102 -528h-78l102 528h78z" />
    <glyph glyph-name="uni1ECA" unicode="&#x1eca;" horiz-adv-x="301" 
d="M268 700l-136 -700h-83l136 700h83zM27 -112q0 24 13 39t41 15q17 0 27 -8t10 -23q0 -56 -52 -56q-39 0 -39 33z" />
    <glyph glyph-name="uni1ECB" unicode="&#x1ecb;" horiz-adv-x="235" 
d="M149 696q0 24 13 39t41 15q17 0 27 -8t10 -23q0 -56 -52 -56q-39 0 -39 33zM199 528l-102 -528h-78l102 528h78zM-6 -112q0 24 13 39t41 15q17 0 27 -8t10 -23q0 -56 -52 -56q-39 0 -39 33z" />
    <glyph glyph-name="uni1ECC" unicode="&#x1ecc;" horiz-adv-x="729" 
d="M183 4q-59 19 -85 53q-43 57 -43 140q0 55 17 142.5t50 171.5t78 129q38 38 97.5 56.5t133.5 18.5q71 0 129.5 -19t84.5 -53q43 -57 43 -140q0 -55 -17 -142.5t-50 -171.5t-78 -129q-38 -38 -97 -56.5t-131 -18.5q-73 0 -132 19zM327.5 629.5q-40.5 -13.5 -66.5 -39.5
q-33 -33 -60.5 -105.5t-44 -152.5t-16.5 -130q0 -61 25 -94q18 -24 56.5 -37.5t92.5 -13.5q61 0 101.5 13.5t66.5 39.5q33 33 60.5 105.5t44 152.5t16.5 130q0 61 -25 94q-18 24 -56.5 37.5t-92.5 13.5q-61 0 -101.5 -13.5zM230 -112q0 24 13 39t41 15q17 0 27 -8t10 -23
q0 -56 -52 -56q-39 0 -39 33z" />
    <glyph glyph-name="uni1ECD" unicode="&#x1ecd;" horiz-adv-x="573" 
d="M130.5 -0.5q-48.5 14.5 -70.5 44.5q-28 38 -28 105q0 51 13 119t36.5 127.5t53.5 86.5q38 33 80 47t105 14q56 0 104.5 -14.5t70.5 -43.5q28 -38 28 -105q0 -52 -13.5 -120t-37 -127.5t-52.5 -85.5q-38 -34 -79.5 -48t-104.5 -14q-57 0 -105.5 14.5zM309 62.5
q32 10.5 52 28.5q34 31 58.5 120t24.5 161q0 45 -15 66q-13 18 -41 28t-68 10q-41 0 -73.5 -10t-52.5 -28q-34 -31 -58.5 -120.5t-24.5 -161.5q0 -44 15 -65q13 -18 41.5 -28.5t68.5 -10.5q41 0 73 10.5zM163 -112q0 24 13 39t41 15q17 0 27 -8t10 -23q0 -56 -52 -56
q-39 0 -39 33z" />
    <glyph glyph-name="uni1ECE" unicode="&#x1ece;" horiz-adv-x="729" 
d="M462 745q11 14 41 34q26 17 38.5 30.5t12.5 36.5q0 21 -18.5 34.5t-46.5 13.5q-31 0 -57 -15.5t-45 -40.5l29 -15q26 28 49 28q11 0 18 -5.5t7 -15.5q0 -11 -8.5 -21.5t-25.5 -24.5q-28 -22 -37 -39h43zM183 4q-59 19 -85 53q-43 57 -43 140q0 55 17 142.5t50 171.5
t78 129q38 38 97.5 56.5t133.5 18.5q71 0 129.5 -19t84.5 -53q43 -57 43 -140q0 -55 -17 -142.5t-50 -171.5t-78 -129q-38 -38 -97 -56.5t-131 -18.5q-73 0 -132 19zM327.5 629.5q-40.5 -13.5 -66.5 -39.5q-33 -33 -60.5 -105.5t-44 -152.5t-16.5 -130q0 -61 25 -94
q18 -24 56.5 -37.5t92.5 -13.5q61 0 101.5 13.5t66.5 39.5q33 33 60.5 105.5t44 152.5t16.5 130q0 61 -25 94q-18 24 -56.5 37.5t-92.5 13.5q-61 0 -101.5 -13.5z" />
    <glyph glyph-name="uni1ECF" unicode="&#x1ecf;" horiz-adv-x="573" 
d="M351 583q11 14 41 34q26 17 38.5 30.5t12.5 36.5q0 21 -18.5 34.5t-46.5 13.5q-31 0 -57 -15.5t-45 -40.5l29 -15q26 28 49 28q11 0 18 -5.5t7 -15.5q0 -11 -8.5 -21.5t-25.5 -24.5q-28 -22 -37 -39h43zM130.5 -0.5q-48.5 14.5 -70.5 44.5q-28 38 -28 105q0 51 13 119
t36.5 127.5t53.5 86.5q38 33 80 47t105 14q56 0 104.5 -14.5t70.5 -43.5q28 -38 28 -105q0 -52 -13.5 -120t-37 -127.5t-52.5 -85.5q-38 -34 -79.5 -48t-104.5 -14q-57 0 -105.5 14.5zM309 62.5q32 10.5 52 28.5q34 31 58.5 120t24.5 161q0 45 -15 66q-13 18 -41 28t-68 10
q-41 0 -73.5 -10t-52.5 -28q-34 -31 -58.5 -120.5t-24.5 -161.5q0 -44 15 -65q13 -18 41.5 -28.5t68.5 -10.5q41 0 73 10.5z" />
    <glyph glyph-name="uni1ED0" unicode="&#x1ed0;" horiz-adv-x="729" 
d="M727 992h113l-189 -131h-85zM433 876h92l95 -131h-63l-83 92l-117 -92h-69zM183 4q-59 19 -85 53q-43 57 -43 140q0 55 17 142.5t50 171.5t78 129q38 38 97.5 56.5t133.5 18.5q71 0 129.5 -19t84.5 -53q43 -57 43 -140q0 -55 -17 -142.5t-50 -171.5t-78 -129
q-38 -38 -97 -56.5t-131 -18.5q-73 0 -132 19zM327.5 629.5q-40.5 -13.5 -66.5 -39.5q-33 -33 -60.5 -105.5t-44 -152.5t-16.5 -130q0 -61 25 -94q18 -24 56.5 -37.5t92.5 -13.5q61 0 101.5 13.5t66.5 39.5q33 33 60.5 105.5t44 152.5t16.5 130q0 61 -25 94
q-18 24 -56.5 37.5t-92.5 13.5q-61 0 -101.5 -13.5z" />
    <glyph glyph-name="uni1ED1" unicode="&#x1ed1;" horiz-adv-x="573" 
d="M627 825h99l-179 -152h-74zM325 735h89l81 -152h-61l-69 108l-111 -108h-71zM130.5 -0.5q-48.5 14.5 -70.5 44.5q-28 38 -28 105q0 51 13 119t36.5 127.5t53.5 86.5q38 33 80 47t105 14q56 0 104.5 -14.5t70.5 -43.5q28 -38 28 -105q0 -52 -13.5 -120t-37 -127.5
t-52.5 -85.5q-38 -34 -79.5 -48t-104.5 -14q-57 0 -105.5 14.5zM309 62.5q32 10.5 52 28.5q34 31 58.5 120t24.5 161q0 45 -15 66q-13 18 -41 28t-68 10q-41 0 -73.5 -10t-52.5 -28q-34 -31 -58.5 -120.5t-24.5 -161.5q0 -44 15 -65q13 -18 41.5 -28.5t68.5 -10.5
q41 0 73 10.5z" />
    <glyph glyph-name="uni1ED2" unicode="&#x1ed2;" horiz-adv-x="729" 
d="M586 861l-139 131h102l111 -131h-74zM433 876h92l95 -131h-63l-83 92l-117 -92h-69zM183 4q-59 19 -85 53q-43 57 -43 140q0 55 17 142.5t50 171.5t78 129q38 38 97.5 56.5t133.5 18.5q71 0 129.5 -19t84.5 -53q43 -57 43 -140q0 -55 -17 -142.5t-50 -171.5t-78 -129
q-38 -38 -97 -56.5t-131 -18.5q-73 0 -132 19zM327.5 629.5q-40.5 -13.5 -66.5 -39.5q-33 -33 -60.5 -105.5t-44 -152.5t-16.5 -130q0 -61 25 -94q18 -24 56.5 -37.5t92.5 -13.5q61 0 101.5 13.5t66.5 39.5q33 33 60.5 105.5t44 152.5t16.5 130q0 61 -25 94
q-18 24 -56.5 37.5t-92.5 13.5q-61 0 -101.5 -13.5z" />
    <glyph glyph-name="uni1ED3" unicode="&#x1ed3;" horiz-adv-x="573" 
d="M507 670l-119 152h93l94 -152h-68zM325 735h89l81 -152h-61l-69 108l-111 -108h-71zM130.5 -0.5q-48.5 14.5 -70.5 44.5q-28 38 -28 105q0 51 13 119t36.5 127.5t53.5 86.5q38 33 80 47t105 14q56 0 104.5 -14.5t70.5 -43.5q28 -38 28 -105q0 -52 -13.5 -120t-37 -127.5
t-52.5 -85.5q-38 -34 -79.5 -48t-104.5 -14q-57 0 -105.5 14.5zM309 62.5q32 10.5 52 28.5q34 31 58.5 120t24.5 161q0 45 -15 66q-13 18 -41 28t-68 10q-41 0 -73.5 -10t-52.5 -28q-34 -31 -58.5 -120.5t-24.5 -161.5q0 -44 15 -65q13 -18 41.5 -28.5t68.5 -10.5
q41 0 73 10.5z" />
    <glyph glyph-name="uni1ED4" unicode="&#x1ed4;" horiz-adv-x="729" 
d="M626 861q11 14 41 34q26 17 38.5 30.5t12.5 36.5q0 21 -18.5 34.5t-46.5 13.5q-31 0 -57 -15.5t-45 -40.5l29 -15q26 28 49 28q11 0 18 -5.5t7 -15.5q0 -11 -8.5 -21.5t-25.5 -24.5q-28 -22 -37 -39h43zM433 876h92l95 -131h-63l-83 92l-117 -92h-69zM183 4
q-59 19 -85 53q-43 57 -43 140q0 55 17 142.5t50 171.5t78 129q38 38 97.5 56.5t133.5 18.5q71 0 129.5 -19t84.5 -53q43 -57 43 -140q0 -55 -17 -142.5t-50 -171.5t-78 -129q-38 -38 -97 -56.5t-131 -18.5q-73 0 -132 19zM327.5 629.5q-40.5 -13.5 -66.5 -39.5
q-33 -33 -60.5 -105.5t-44 -152.5t-16.5 -130q0 -61 25 -94q18 -24 56.5 -37.5t92.5 -13.5q61 0 101.5 13.5t66.5 39.5q33 33 60.5 105.5t44 152.5t16.5 130q0 61 -25 94q-18 24 -56.5 37.5t-92.5 13.5q-61 0 -101.5 -13.5z" />
    <glyph glyph-name="uni1ED5" unicode="&#x1ed5;" horiz-adv-x="573" 
d="M520 673q11 14 41 34q26 17 38.5 30.5t12.5 36.5q0 21 -18.5 34.5t-46.5 13.5q-31 0 -57 -15.5t-45 -40.5l29 -15q26 28 49 28q11 0 18 -5.5t7 -15.5q0 -11 -8.5 -21.5t-25.5 -24.5q-28 -22 -37 -39h43zM325 735h89l81 -152h-61l-69 108l-111 -108h-71zM130.5 -0.5
q-48.5 14.5 -70.5 44.5q-28 38 -28 105q0 51 13 119t36.5 127.5t53.5 86.5q38 33 80 47t105 14q56 0 104.5 -14.5t70.5 -43.5q28 -38 28 -105q0 -52 -13.5 -120t-37 -127.5t-52.5 -85.5q-38 -34 -79.5 -48t-104.5 -14q-57 0 -105.5 14.5zM309 62.5q32 10.5 52 28.5
q34 31 58.5 120t24.5 161q0 45 -15 66q-13 18 -41 28t-68 10q-41 0 -73.5 -10t-52.5 -28q-34 -31 -58.5 -120.5t-24.5 -161.5q0 -44 15 -65q13 -18 41.5 -28.5t68.5 -10.5q41 0 73 10.5z" />
    <glyph glyph-name="uni1ED6" unicode="&#x1ed6;" horiz-adv-x="729" 
d="M346.5 961q9.5 20 23.5 31q21 18 57 18q24 0 44.5 -9t46.5 -26q21 -13 31.5 -18t21.5 -5q19 0 29 9q7 5 10.5 15t8.5 34h48q-8 -43 -17 -62.5t-22 -30.5q-23 -19 -58 -19q-23 0 -42 8.5t-45 25.5q-20 13 -32 19t-24 6q-20 0 -31 -10q-12 -10 -19 -48h-48q8 42 17.5 62z
M433 876h92l95 -131h-63l-83 92l-117 -92h-69zM183 4q-59 19 -85 53q-43 57 -43 140q0 55 17 142.5t50 171.5t78 129q38 38 97.5 56.5t133.5 18.5q71 0 129.5 -19t84.5 -53q43 -57 43 -140q0 -55 -17 -142.5t-50 -171.5t-78 -129q-38 -38 -97 -56.5t-131 -18.5
q-73 0 -132 19zM327.5 629.5q-40.5 -13.5 -66.5 -39.5q-33 -33 -60.5 -105.5t-44 -152.5t-16.5 -130q0 -61 25 -94q18 -24 56.5 -37.5t92.5 -13.5q61 0 101.5 13.5t66.5 39.5q33 33 60.5 105.5t44 152.5t16.5 130q0 61 -25 94q-18 24 -56.5 37.5t-92.5 13.5
q-61 0 -101.5 -13.5z" />
    <glyph glyph-name="uni1ED7" unicode="&#x1ed7;" horiz-adv-x="573" 
d="M239.5 822.5q9.5 20.5 22.5 31.5q22 19 58 19q24 0 44.5 -9.5t46.5 -27.5q21 -14 31.5 -19.5t21.5 -5.5q19 0 29 9q6 5 10.5 16.5t8.5 35.5h48q-8 -44 -17.5 -64.5t-22.5 -32.5q-23 -18 -58 -18q-23 0 -42 9.5t-45 26.5q-19 13 -31.5 19.5t-24.5 6.5q-18 0 -30 -9
q-6 -5 -10.5 -16.5t-9.5 -36.5h-48q9 45 18.5 65.5zM325 735h89l81 -152h-61l-69 108l-111 -108h-71zM130.5 -0.5q-48.5 14.5 -70.5 44.5q-28 38 -28 105q0 51 13 119t36.5 127.5t53.5 86.5q38 33 80 47t105 14q56 0 104.5 -14.5t70.5 -43.5q28 -38 28 -105
q0 -52 -13.5 -120t-37 -127.5t-52.5 -85.5q-38 -34 -79.5 -48t-104.5 -14q-57 0 -105.5 14.5zM309 62.5q32 10.5 52 28.5q34 31 58.5 120t24.5 161q0 45 -15 66q-13 18 -41 28t-68 10q-41 0 -73.5 -10t-52.5 -28q-34 -31 -58.5 -120.5t-24.5 -161.5q0 -44 15 -65
q13 -18 41.5 -28.5t68.5 -10.5q41 0 73 10.5z" />
    <glyph glyph-name="uni1ED8" unicode="&#x1ed8;" horiz-adv-x="729" 
d="M433 876h92l95 -131h-63l-83 92l-117 -92h-69zM183 4q-59 19 -85 53q-43 57 -43 140q0 55 17 142.5t50 171.5t78 129q38 38 97.5 56.5t133.5 18.5q71 0 129.5 -19t84.5 -53q43 -57 43 -140q0 -55 -17 -142.5t-50 -171.5t-78 -129q-38 -38 -97 -56.5t-131 -18.5
q-73 0 -132 19zM327.5 629.5q-40.5 -13.5 -66.5 -39.5q-33 -33 -60.5 -105.5t-44 -152.5t-16.5 -130q0 -61 25 -94q18 -24 56.5 -37.5t92.5 -13.5q61 0 101.5 13.5t66.5 39.5q33 33 60.5 105.5t44 152.5t16.5 130q0 61 -25 94q-18 24 -56.5 37.5t-92.5 13.5
q-61 0 -101.5 -13.5zM230 -112q0 24 13 39t41 15q17 0 27 -8t10 -23q0 -56 -52 -56q-39 0 -39 33z" />
    <glyph glyph-name="uni1ED9" unicode="&#x1ed9;" horiz-adv-x="573" 
d="M325 735h89l81 -152h-61l-69 108l-111 -108h-71zM130.5 -0.5q-48.5 14.5 -70.5 44.5q-28 38 -28 105q0 51 13 119t36.5 127.5t53.5 86.5q38 33 80 47t105 14q56 0 104.5 -14.5t70.5 -43.5q28 -38 28 -105q0 -52 -13.5 -120t-37 -127.5t-52.5 -85.5q-38 -34 -79.5 -48
t-104.5 -14q-57 0 -105.5 14.5zM309 62.5q32 10.5 52 28.5q34 31 58.5 120t24.5 161q0 45 -15 66q-13 18 -41 28t-68 10q-41 0 -73.5 -10t-52.5 -28q-34 -31 -58.5 -120.5t-24.5 -161.5q0 -44 15 -65q13 -18 41.5 -28.5t68.5 -10.5q41 0 73 10.5zM163 -112q0 24 13 39t41 15
q17 0 27 -8t10 -23q0 -56 -52 -56q-39 0 -39 33z" />
    <glyph glyph-name="uni1EDA" unicode="&#x1eda;" horiz-adv-x="729" 
d="M494 745h-85l161 131h113zM714 650q-20 -23 -57 -25q31 -51 31 -122q0 -55 -17 -142.5t-50 -171.5t-78 -129q-38 -38 -97 -56.5t-131 -18.5q-73 0 -132 19t-85 53q-43 57 -43 140q0 55 17 142.5t50 171.5t78 129q38 38 97.5 56.5t133.5 18.5q53 0 100.5 -11t79.5 -31h17
q19 0 29 10.5t10 29.5q0 28 -16 58l67 12q16 -37 16 -72q0 -38 -20 -61zM542.5 215.5q27.5 72.5 44 152.5t16.5 130q0 61 -25 94q-18 24 -56.5 37.5t-92.5 13.5q-61 0 -101.5 -13.5t-66.5 -39.5q-33 -33 -60.5 -105.5t-44 -152.5t-16.5 -130q0 -61 25 -94q18 -24 56.5 -37.5
t92.5 -13.5q61 0 101.5 13.5t66.5 39.5q33 33 60.5 105.5z" />
    <glyph glyph-name="uni1EDB" unicode="&#x1edb;" horiz-adv-x="573" 
d="M374 583h-74l154 152h99zM562.5 488q-19.5 -21 -56.5 -21q17 -34 17 -87q0 -52 -13.5 -120t-37 -127.5t-52.5 -85.5q-38 -34 -79.5 -48t-104.5 -14q-57 0 -105.5 14.5t-70.5 44.5q-28 38 -28 105q0 51 13 119t36.5 127.5t53.5 86.5q38 33 80 47t105 14q42 0 81 -8t66 -25
h19q35 0 35 37q0 25 -14 53l61 11q14 -33 14 -66q0 -36 -19.5 -57zM419.5 211q24.5 89 24.5 161q0 45 -15 66q-13 18 -41 28t-68 10q-41 0 -73.5 -10t-52.5 -28q-34 -31 -58.5 -120.5t-24.5 -161.5q0 -44 15 -65q13 -18 41.5 -28.5t68.5 -10.5q41 0 73 10.5t52 28.5
q34 31 58.5 120z" />
    <glyph glyph-name="uni1EDC" unicode="&#x1edc;" horiz-adv-x="729" 
d="M413 745l-139 131h102l111 -131h-74zM714 650q-20 -23 -57 -25q31 -51 31 -122q0 -55 -17 -142.5t-50 -171.5t-78 -129q-38 -38 -97 -56.5t-131 -18.5q-73 0 -132 19t-85 53q-43 57 -43 140q0 55 17 142.5t50 171.5t78 129q38 38 97.5 56.5t133.5 18.5q53 0 100.5 -11
t79.5 -31h17q19 0 29 10.5t10 29.5q0 28 -16 58l67 12q16 -37 16 -72q0 -38 -20 -61zM542.5 215.5q27.5 72.5 44 152.5t16.5 130q0 61 -25 94q-18 24 -56.5 37.5t-92.5 13.5q-61 0 -101.5 -13.5t-66.5 -39.5q-33 -33 -60.5 -105.5t-44 -152.5t-16.5 -130q0 -61 25 -94
q18 -24 56.5 -37.5t92.5 -13.5q61 0 101.5 13.5t66.5 39.5q33 33 60.5 105.5z" />
    <glyph glyph-name="uni1EDD" unicode="&#x1edd;" horiz-adv-x="573" 
d="M304 583l-119 152h93l94 -152h-68zM562.5 488q-19.5 -21 -56.5 -21q17 -34 17 -87q0 -52 -13.5 -120t-37 -127.5t-52.5 -85.5q-38 -34 -79.5 -48t-104.5 -14q-57 0 -105.5 14.5t-70.5 44.5q-28 38 -28 105q0 51 13 119t36.5 127.5t53.5 86.5q38 33 80 47t105 14
q42 0 81 -8t66 -25h19q35 0 35 37q0 25 -14 53l61 11q14 -33 14 -66q0 -36 -19.5 -57zM419.5 211q24.5 89 24.5 161q0 45 -15 66q-13 18 -41 28t-68 10q-41 0 -73.5 -10t-52.5 -28q-34 -31 -58.5 -120.5t-24.5 -161.5q0 -44 15 -65q13 -18 41.5 -28.5t68.5 -10.5
q41 0 73 10.5t52 28.5q34 31 58.5 120z" />
    <glyph glyph-name="uni1EDE" unicode="&#x1ede;" horiz-adv-x="729" 
d="M416 823l-29 15q19 25 45 40.5t57 15.5q28 0 46.5 -13.5t18.5 -34.5q0 -23 -12.5 -36.5t-38.5 -30.5q-30 -20 -41 -34h-43q9 17 37 39q17 14 25.5 24.5t8.5 21.5q0 10 -7 15.5t-18 5.5q-23 0 -49 -28zM714 650q-20 -23 -57 -25q31 -51 31 -122q0 -55 -17 -142.5
t-50 -171.5t-78 -129q-38 -38 -97 -56.5t-131 -18.5q-73 0 -132 19t-85 53q-43 57 -43 140q0 55 17 142.5t50 171.5t78 129q38 38 97.5 56.5t133.5 18.5q53 0 100.5 -11t79.5 -31h17q19 0 29 10.5t10 29.5q0 28 -16 58l67 12q16 -37 16 -72q0 -38 -20 -61zM542.5 215.5
q27.5 72.5 44 152.5t16.5 130q0 61 -25 94q-18 24 -56.5 37.5t-92.5 13.5q-61 0 -101.5 -13.5t-66.5 -39.5q-33 -33 -60.5 -105.5t-44 -152.5t-16.5 -130q0 -61 25 -94q18 -24 56.5 -37.5t92.5 -13.5q61 0 101.5 13.5t66.5 39.5q33 33 60.5 105.5z" />
    <glyph glyph-name="uni1EDF" unicode="&#x1edf;" horiz-adv-x="573" 
d="M305 661l-29 15q19 25 45 40.5t57 15.5q28 0 46.5 -13.5t18.5 -34.5q0 -23 -12.5 -36.5t-38.5 -30.5q-30 -20 -41 -34h-43q9 17 37 39q17 14 25.5 24.5t8.5 21.5q0 10 -7 15.5t-18 5.5q-23 0 -49 -28zM562.5 488q-19.5 -21 -56.5 -21q17 -34 17 -87q0 -52 -13.5 -120
t-37 -127.5t-52.5 -85.5q-38 -34 -79.5 -48t-104.5 -14q-57 0 -105.5 14.5t-70.5 44.5q-28 38 -28 105q0 51 13 119t36.5 127.5t53.5 86.5q38 33 80 47t105 14q42 0 81 -8t66 -25h19q35 0 35 37q0 25 -14 53l61 11q14 -33 14 -66q0 -36 -19.5 -57zM419.5 211
q24.5 89 24.5 161q0 45 -15 66q-13 18 -41 28t-68 10q-41 0 -73.5 -10t-52.5 -28q-34 -31 -58.5 -120.5t-24.5 -161.5q0 -44 15 -65q13 -18 41.5 -28.5t68.5 -10.5q41 0 73 10.5t52 28.5q34 31 58.5 120z" />
    <glyph glyph-name="uni1EE0" unicode="&#x1ee0;" horiz-adv-x="729" 
d="M341 759h-48q8 42 17.5 62t23.5 31q21 18 57 18q24 0 44.5 -9t46.5 -26q21 -13 31.5 -18t21.5 -5q19 0 29 9q7 5 10.5 15t8.5 34h48q-8 -43 -17 -62.5t-22 -30.5q-23 -19 -58 -19q-23 0 -42 8.5t-45 25.5q-20 13 -32 19t-24 6q-20 0 -31 -10q-12 -10 -19 -48zM714 650
q-20 -23 -57 -25q31 -51 31 -122q0 -55 -17 -142.5t-50 -171.5t-78 -129q-38 -38 -97 -56.5t-131 -18.5q-73 0 -132 19t-85 53q-43 57 -43 140q0 55 17 142.5t50 171.5t78 129q38 38 97.5 56.5t133.5 18.5q53 0 100.5 -11t79.5 -31h17q19 0 29 10.5t10 29.5q0 28 -16 58
l67 12q16 -37 16 -72q0 -38 -20 -61zM542.5 215.5q27.5 72.5 44 152.5t16.5 130q0 61 -25 94q-18 24 -56.5 37.5t-92.5 13.5q-61 0 -101.5 -13.5t-66.5 -39.5q-33 -33 -60.5 -105.5t-44 -152.5t-16.5 -130q0 -61 25 -94q18 -24 56.5 -37.5t92.5 -13.5q61 0 101.5 13.5
t66.5 39.5q33 33 60.5 105.5z" />
    <glyph glyph-name="uni1EE1" unicode="&#x1ee1;" horiz-adv-x="573" 
d="M242.5 642.5q-4.5 -11.5 -9.5 -36.5h-48q9 45 18.5 65.5t22.5 31.5q22 19 58 19q24 0 44.5 -9.5t46.5 -27.5q21 -14 31.5 -19.5t21.5 -5.5q19 0 29 9q6 5 10.5 16.5t8.5 35.5h48q-8 -44 -17.5 -64.5t-22.5 -32.5q-23 -18 -58 -18q-23 0 -42 9.5t-45 26.5
q-19 13 -31.5 19.5t-24.5 6.5q-18 0 -30 -9q-6 -5 -10.5 -16.5zM562.5 488q-19.5 -21 -56.5 -21q17 -34 17 -87q0 -52 -13.5 -120t-37 -127.5t-52.5 -85.5q-38 -34 -79.5 -48t-104.5 -14q-57 0 -105.5 14.5t-70.5 44.5q-28 38 -28 105q0 51 13 119t36.5 127.5t53.5 86.5
q38 33 80 47t105 14q42 0 81 -8t66 -25h19q35 0 35 37q0 25 -14 53l61 11q14 -33 14 -66q0 -36 -19.5 -57zM419.5 211q24.5 89 24.5 161q0 45 -15 66q-13 18 -41 28t-68 10q-41 0 -73.5 -10t-52.5 -28q-34 -31 -58.5 -120.5t-24.5 -161.5q0 -44 15 -65q13 -18 41.5 -28.5
t68.5 -10.5q41 0 73 10.5t52 28.5q34 31 58.5 120z" />
    <glyph glyph-name="uni1EE2" unicode="&#x1ee2;" horiz-adv-x="729" 
d="M714 650q-20 -23 -57 -25q31 -51 31 -122q0 -55 -17 -142.5t-50 -171.5t-78 -129q-38 -38 -97 -56.5t-131 -18.5q-73 0 -132 19t-85 53q-43 57 -43 140q0 55 17 142.5t50 171.5t78 129q38 38 97.5 56.5t133.5 18.5q53 0 100.5 -11t79.5 -31h17q19 0 29 10.5t10 29.5
q0 28 -16 58l67 12q16 -37 16 -72q0 -38 -20 -61zM542.5 215.5q27.5 72.5 44 152.5t16.5 130q0 61 -25 94q-18 24 -56.5 37.5t-92.5 13.5q-61 0 -101.5 -13.5t-66.5 -39.5q-33 -33 -60.5 -105.5t-44 -152.5t-16.5 -130q0 -61 25 -94q18 -24 56.5 -37.5t92.5 -13.5
q61 0 101.5 13.5t66.5 39.5q33 33 60.5 105.5zM311 -66q10 -8 10 -23q0 -56 -52 -56q-39 0 -39 33q0 24 13 39t41 15q17 0 27 -8z" />
    <glyph glyph-name="uni1EE3" unicode="&#x1ee3;" horiz-adv-x="573" 
d="M562.5 488q-19.5 -21 -56.5 -21q17 -34 17 -87q0 -52 -13.5 -120t-37 -127.5t-52.5 -85.5q-38 -34 -79.5 -48t-104.5 -14q-57 0 -105.5 14.5t-70.5 44.5q-28 38 -28 105q0 51 13 119t36.5 127.5t53.5 86.5q38 33 80 47t105 14q42 0 81 -8t66 -25h19q35 0 35 37
q0 25 -14 53l61 11q14 -33 14 -66q0 -36 -19.5 -57zM419.5 211q24.5 89 24.5 161q0 45 -15 66q-13 18 -41 28t-68 10q-41 0 -73.5 -10t-52.5 -28q-34 -31 -58.5 -120.5t-24.5 -161.5q0 -44 15 -65q13 -18 41.5 -28.5t68.5 -10.5q41 0 73 10.5t52 28.5q34 31 58.5 120z
M244 -66q10 -8 10 -23q0 -56 -52 -56q-39 0 -39 33q0 24 13 39t41 15q17 0 27 -8z" />
    <glyph glyph-name="uni1EE4" unicode="&#x1ee4;" horiz-adv-x="743" 
d="M188.5 3q-55.5 18 -81.5 53q-27 37 -27 108q0 66 22 178l70 358h83l-70 -358q-25 -122 -25 -171q0 -42 16 -64q37 -49 145 -49q60 0 97.5 11t65.5 36q30 26 47.5 77.5t38.5 159.5l70 358h83l-70 -358q-25 -127 -46 -190t-61 -98q-41 -36 -98 -52.5t-140 -16.5
q-64 0 -119.5 18zM230 -112q0 24 13 39t41 15q17 0 27 -8t10 -23q0 -56 -52 -56q-39 0 -39 33z" />
    <glyph glyph-name="uni1EE5" unicode="&#x1ee5;" horiz-adv-x="588" 
d="M286 9.5q-57 -24.5 -110 -24.5q-42 0 -71.5 13.5t-43.5 32.5q-22 30 -22 75q0 27 5 49l72 373h78l-66 -342q-8 -42 -8 -63q0 -26 10 -41q11 -14 30 -20.5t53 -6.5q39 0 87.5 18t94.5 50l78 405h78l-102 -528h-78l14 74q-42 -40 -99 -64.5zM163 -112q0 24 13 39t41 15
q17 0 27 -8t10 -23q0 -56 -52 -56q-39 0 -39 33z" />
    <glyph glyph-name="uni1EE6" unicode="&#x1ee6;" horiz-adv-x="743" 
d="M462 745q11 14 41 34q26 17 38.5 30.5t12.5 36.5q0 21 -18.5 34.5t-46.5 13.5q-31 0 -57 -15.5t-45 -40.5l29 -15q26 28 49 28q11 0 18 -5.5t7 -15.5q0 -11 -8.5 -21.5t-25.5 -24.5q-28 -22 -37 -39h43zM188.5 3q-55.5 18 -81.5 53q-27 37 -27 108q0 66 22 178l70 358h83
l-70 -358q-25 -122 -25 -171q0 -42 16 -64q37 -49 145 -49q60 0 97.5 11t65.5 36q30 26 47.5 77.5t38.5 159.5l70 358h83l-70 -358q-25 -127 -46 -190t-61 -98q-41 -36 -98 -52.5t-140 -16.5q-64 0 -119.5 18z" />
    <glyph glyph-name="uni1EE7" unicode="&#x1ee7;" horiz-adv-x="588" 
d="M350 583q11 14 41 34q26 17 38.5 30.5t12.5 36.5q0 21 -18.5 34.5t-46.5 13.5q-31 0 -57 -15.5t-45 -40.5l29 -15q26 28 49 28q11 0 18 -5.5t7 -15.5q0 -11 -8.5 -21.5t-25.5 -24.5q-28 -22 -37 -39h43zM286 9.5q-57 -24.5 -110 -24.5q-42 0 -71.5 13.5t-43.5 32.5
q-22 30 -22 75q0 27 5 49l72 373h78l-66 -342q-8 -42 -8 -63q0 -26 10 -41q11 -14 30 -20.5t53 -6.5q39 0 87.5 18t94.5 50l78 405h78l-102 -528h-78l14 74q-42 -40 -99 -64.5z" />
    <glyph glyph-name="uni1EE8" unicode="&#x1ee8;" horiz-adv-x="743" 
d="M501 745h-85l161 131h113zM829 737q0 -42 -23.5 -65t-68.5 -21q1 0 1 -0.5v-0.5h-25l-60 -308q-25 -127 -46 -190t-61 -98q-41 -36 -98 -52.5t-140 -16.5q-64 0 -119.5 18t-81.5 53q-27 37 -27 108q0 66 22 178l70 358h83l-70 -358q-25 -122 -25 -171q0 -42 16 -64
q37 -49 145 -49q60 0 97.5 11t65.5 36q30 26 47.5 77.5t38.5 159.5l70 358h83v-1q19 0 29 10.5t10 29.5q0 28 -16 58l67 12q16 -37 16 -72z" />
    <glyph glyph-name="uni1EE9" unicode="&#x1ee9;" horiz-adv-x="588" 
d="M374 583h-74l154 152h99zM633 564q0 -38 -21.5 -59t-62.5 -19q1 0 1 -0.5v-0.5h-7l-94 -485h-78l14 74q-42 -40 -99 -64.5t-110 -24.5q-42 0 -71.5 13.5t-43.5 32.5q-22 30 -22 75q0 27 5 49l72 373h78l-66 -342q-8 -42 -8 -63q0 -26 10 -41q11 -14 30 -20.5t53 -6.5
q39 0 87.5 18t94.5 50l78 405h28v1h36q35 0 35 37q0 25 -14 53l61 11q14 -33 14 -66z" />
    <glyph glyph-name="uni1EEA" unicode="&#x1eea;" horiz-adv-x="743" 
d="M420 745l-139 131h102l111 -131h-74zM829 737q0 -42 -23.5 -65t-68.5 -21q1 0 1 -0.5v-0.5h-25l-60 -308q-25 -127 -46 -190t-61 -98q-41 -36 -98 -52.5t-140 -16.5q-64 0 -119.5 18t-81.5 53q-27 37 -27 108q0 66 22 178l70 358h83l-70 -358q-25 -122 -25 -171
q0 -42 16 -64q37 -49 145 -49q60 0 97.5 11t65.5 36q30 26 47.5 77.5t38.5 159.5l70 358h83v-1q19 0 29 10.5t10 29.5q0 28 -16 58l67 12q16 -37 16 -72z" />
    <glyph glyph-name="uni1EEB" unicode="&#x1eeb;" horiz-adv-x="588" 
d="M312 583l-119 152h93l94 -152h-68zM633 564q0 -38 -21.5 -59t-62.5 -19q1 0 1 -0.5v-0.5h-7l-94 -485h-78l14 74q-42 -40 -99 -64.5t-110 -24.5q-42 0 -71.5 13.5t-43.5 32.5q-22 30 -22 75q0 27 5 49l72 373h78l-66 -342q-8 -42 -8 -63q0 -26 10 -41q11 -14 30 -20.5
t53 -6.5q39 0 87.5 18t94.5 50l78 405h28v1h36q35 0 35 37q0 25 -14 53l61 11q14 -33 14 -66z" />
    <glyph glyph-name="uni1EEC" unicode="&#x1eec;" horiz-adv-x="743" 
d="M416 823l-29 15q19 25 45 40.5t57 15.5q28 0 46.5 -13.5t18.5 -34.5q0 -23 -12.5 -36.5t-38.5 -30.5q-30 -20 -41 -34h-43q9 17 37 39q17 14 25.5 24.5t8.5 21.5q0 10 -7 15.5t-18 5.5q-23 0 -49 -28zM829 737q0 -42 -23.5 -65t-68.5 -21q1 0 1 -0.5v-0.5h-25l-60 -308
q-25 -127 -46 -190t-61 -98q-41 -36 -98 -52.5t-140 -16.5q-64 0 -119.5 18t-81.5 53q-27 37 -27 108q0 66 22 178l70 358h83l-70 -358q-25 -122 -25 -171q0 -42 16 -64q37 -49 145 -49q60 0 97.5 11t65.5 36q30 26 47.5 77.5t38.5 159.5l70 358h83v-1q19 0 29 10.5t10 29.5
q0 28 -16 58l67 12q16 -37 16 -72z" />
    <glyph glyph-name="uni1EED" unicode="&#x1eed;" horiz-adv-x="588" 
d="M304 661l-29 15q19 25 45 40.5t57 15.5q28 0 46.5 -13.5t18.5 -34.5q0 -23 -12.5 -36.5t-38.5 -30.5q-30 -20 -41 -34h-43q9 17 37 39q17 14 25.5 24.5t8.5 21.5q0 10 -7 15.5t-18 5.5q-23 0 -49 -28zM633 564q0 -38 -21.5 -59t-62.5 -19q1 0 1 -0.5v-0.5h-7l-94 -485
h-78l14 74q-42 -40 -99 -64.5t-110 -24.5q-42 0 -71.5 13.5t-43.5 32.5q-22 30 -22 75q0 27 5 49l72 373h78l-66 -342q-8 -42 -8 -63q0 -26 10 -41q11 -14 30 -20.5t53 -6.5q39 0 87.5 18t94.5 50l78 405h28v1h36q35 0 35 37q0 25 -14 53l61 11q14 -33 14 -66z" />
    <glyph glyph-name="uni1EEE" unicode="&#x1eee;" horiz-adv-x="743" 
d="M348 759h-48q8 42 17.5 62t23.5 31q21 18 57 18q24 0 44.5 -9t46.5 -26q21 -13 31.5 -18t21.5 -5q19 0 29 9q7 5 10.5 15t8.5 34h48q-8 -43 -17 -62.5t-22 -30.5q-23 -19 -58 -19q-23 0 -42 8.5t-45 25.5q-20 13 -32 19t-24 6q-20 0 -31 -10q-12 -10 -19 -48zM829 737
q0 -42 -23.5 -65t-68.5 -21q1 0 1 -0.5v-0.5h-25l-60 -308q-25 -127 -46 -190t-61 -98q-41 -36 -98 -52.5t-140 -16.5q-64 0 -119.5 18t-81.5 53q-27 37 -27 108q0 66 22 178l70 358h83l-70 -358q-25 -122 -25 -171q0 -42 16 -64q37 -49 145 -49q60 0 97.5 11t65.5 36
q30 26 47.5 77.5t38.5 159.5l70 358h83v-1q19 0 29 10.5t10 29.5q0 28 -16 58l67 12q16 -37 16 -72z" />
    <glyph glyph-name="uni1EEF" unicode="&#x1eef;" horiz-adv-x="600" 
d="M242.5 642.5q-4.5 -11.5 -9.5 -36.5h-48q9 45 18.5 65.5t22.5 31.5q22 19 58 19q24 0 44.5 -9.5t46.5 -27.5q21 -14 31.5 -19.5t21.5 -5.5q19 0 29 9q6 5 10.5 16.5t8.5 35.5h48q-8 -44 -17.5 -64.5t-22.5 -32.5q-23 -18 -58 -18q-23 0 -42 9.5t-45 26.5
q-19 13 -31.5 19.5t-24.5 6.5q-18 0 -30 -9q-6 -5 -10.5 -16.5zM633 564q0 -38 -21.5 -59t-62.5 -19q1 0 1 -0.5v-0.5h-7l-94 -485h-78l14 74q-42 -40 -99 -64.5t-110 -24.5q-42 0 -71.5 13.5t-43.5 32.5q-22 30 -22 75q0 27 5 49l72 373h78l-66 -342q-8 -42 -8 -63
q0 -26 10 -41q11 -14 30 -20.5t53 -6.5q39 0 87.5 18t94.5 50l78 405h28v1h36q35 0 35 37q0 25 -14 53l61 11q14 -33 14 -66z" />
    <glyph glyph-name="uni1EF0" unicode="&#x1ef0;" horiz-adv-x="743" 
d="M829 737q0 -42 -23.5 -65t-68.5 -21q1 0 1 -0.5v-0.5h-25l-60 -308q-25 -127 -46 -190t-61 -98q-41 -36 -98 -52.5t-140 -16.5q-64 0 -119.5 18t-81.5 53q-27 37 -27 108q0 66 22 178l70 358h83l-70 -358q-25 -122 -25 -171q0 -42 16 -64q37 -49 145 -49q60 0 97.5 11
t65.5 36q30 26 47.5 77.5t38.5 159.5l70 358h83v-1q19 0 29 10.5t10 29.5q0 28 -16 58l67 12q16 -37 16 -72zM311 -66q10 -8 10 -23q0 -56 -52 -56q-39 0 -39 33q0 24 13 39t41 15q17 0 27 -8z" />
    <glyph glyph-name="uni1EF1" unicode="&#x1ef1;" horiz-adv-x="588" 
d="M633 564q0 -38 -21.5 -59t-62.5 -19q1 0 1 -0.5v-0.5h-7l-94 -485h-78l14 74q-42 -40 -99 -64.5t-110 -24.5q-42 0 -71.5 13.5t-43.5 32.5q-22 30 -22 75q0 27 5 49l72 373h78l-66 -342q-8 -42 -8 -63q0 -26 10 -41q11 -14 30 -20.5t53 -6.5q39 0 87.5 18t94.5 50l78 405
h28v1h36q35 0 35 37q0 25 -14 53l61 11q14 -33 14 -66zM244 -66q10 -8 10 -23q0 -56 -52 -56q-39 0 -39 33q0 24 13 39t41 15q17 0 27 -8z" />
    <glyph glyph-name="Ygrave" unicode="&#x1ef2;" horiz-adv-x="661" 
d="M402 745l-139 131h102l111 -131h-74zM172.5 473.5q-42.5 109.5 -60.5 226.5h82q16 -92 53.5 -194t83.5 -180q76 77 153 179t130 195h88q-64 -117 -150 -227.5t-192 -222.5l-48 -250h-83l48 252q-62 112 -104.5 221.5z" />
    <glyph glyph-name="ygrave" unicode="&#x1ef3;" horiz-adv-x="539" 
d="M304 583l-119 152h93l94 -152h-68zM-28 -201l12 68q23 -8 45 -8q28 0 47 13.5t49 56.5q32 44 53 76q-34 110 -62 249t-41 274h78q9 -104 31 -222t48 -217q130 209 234 439h82q-79 -171 -171.5 -331t-179.5 -281q-34 -50 -58.5 -76.5t-50.5 -38t-62 -11.5q-31 0 -54 9z
" />
    <glyph glyph-name="uni1EF4" unicode="&#x1ef4;" horiz-adv-x="661" 
d="M172.5 473.5q-42.5 109.5 -60.5 226.5h82q16 -92 53.5 -194t83.5 -180q76 77 153 179t130 195h88q-64 -117 -150 -227.5t-192 -222.5l-48 -250h-83l48 252q-62 112 -104.5 221.5zM214 -112q0 24 13 39t41 15q17 0 27 -8t10 -23q0 -56 -52 -56q-39 0 -39 33z" />
    <glyph glyph-name="uni1EF5" unicode="&#x1ef5;" horiz-adv-x="539" 
d="M-28 -201l12 68q23 -8 45 -8q28 0 47 13.5t49 56.5q32 44 53 76q-34 110 -62 249t-41 274h78q9 -104 31 -222t48 -217q130 209 234 439h82q-79 -171 -171.5 -331t-179.5 -281q-34 -50 -58.5 -76.5t-50.5 -38t-62 -11.5q-31 0 -54 9zM184 -184q0 24 13 39t41 15
q17 0 27 -8t10 -23q0 -56 -52 -56q-39 0 -39 33z" />
    <glyph glyph-name="uni1EF6" unicode="&#x1ef6;" horiz-adv-x="661" 
d="M426 745q11 14 41 34q26 17 38.5 30.5t12.5 36.5q0 21 -18.5 34.5t-46.5 13.5q-31 0 -57 -15.5t-45 -40.5l29 -15q26 28 49 28q11 0 18 -5.5t7 -15.5q0 -11 -8.5 -21.5t-25.5 -24.5q-28 -22 -37 -39h43zM172.5 473.5q-42.5 109.5 -60.5 226.5h82q16 -92 53.5 -194
t83.5 -180q76 77 153 179t130 195h88q-64 -117 -150 -227.5t-192 -222.5l-48 -250h-83l48 252q-62 112 -104.5 221.5z" />
    <glyph glyph-name="uni1EF7" unicode="&#x1ef7;" horiz-adv-x="539" 
d="M328 583q11 14 41 34q26 17 38.5 30.5t12.5 36.5q0 21 -18.5 34.5t-46.5 13.5q-31 0 -57 -15.5t-45 -40.5l29 -15q26 28 49 28q11 0 18 -5.5t7 -15.5q0 -11 -8.5 -21.5t-25.5 -24.5q-28 -22 -37 -39h43zM-28 -201l12 68q23 -8 45 -8q28 0 47 13.5t49 56.5q32 44 53 76
q-34 110 -62 249t-41 274h78q9 -104 31 -222t48 -217q130 209 234 439h82q-79 -171 -171.5 -331t-179.5 -281q-34 -50 -58.5 -76.5t-50.5 -38t-62 -11.5q-31 0 -54 9z" />
    <glyph glyph-name="uni1EF8" unicode="&#x1ef8;" horiz-adv-x="661" 
d="M272.5 821q9.5 20 23.5 31q21 18 57 18q24 0 44.5 -9t46.5 -26q21 -13 31.5 -18t21.5 -5q19 0 29 9q7 5 10.5 15t8.5 34h48q-8 -43 -17 -62.5t-22 -30.5q-23 -19 -58 -19q-23 0 -42 8.5t-45 25.5q-20 13 -32 19t-24 6q-20 0 -31 -10q-12 -10 -19 -48h-48q8 42 17.5 62z
M172.5 473.5q-42.5 109.5 -60.5 226.5h82q16 -92 53.5 -194t83.5 -180q76 77 153 179t130 195h88q-64 -117 -150 -227.5t-192 -222.5l-48 -250h-83l48 252q-62 112 -104.5 221.5z" />
    <glyph glyph-name="uni1EF9" unicode="&#x1ef9;" horiz-adv-x="539" 
d="M185.5 671.5q9.5 20.5 22.5 31.5q22 19 58 19q24 0 44.5 -9.5t46.5 -27.5q21 -14 31.5 -19.5t21.5 -5.5q19 0 29 9q6 5 10.5 16.5t8.5 35.5h48q-8 -44 -17.5 -64.5t-22.5 -32.5q-23 -18 -58 -18q-23 0 -42 9.5t-45 26.5q-19 13 -31.5 19.5t-24.5 6.5q-18 0 -30 -9
q-6 -5 -10.5 -16.5t-9.5 -36.5h-48q9 45 18.5 65.5zM-28 -201l12 68q23 -8 45 -8q28 0 47 13.5t49 56.5q32 44 53 76q-34 110 -62 249t-41 274h78q9 -104 31 -222t48 -217q130 209 234 439h82q-79 -171 -171.5 -331t-179.5 -281q-34 -50 -58.5 -76.5t-50.5 -38t-62 -11.5
q-31 0 -54 9z" />
    <glyph glyph-name="endash" unicode="&#x2013;" horiz-adv-x="470" 
d="M456 240h-470l11 58h470z" />
    <glyph glyph-name="emdash" unicode="&#x2014;" horiz-adv-x="940" 
d="M926 240h-940l11 58h940z" />
    <glyph glyph-name="quoteleft" unicode="&#x2018;" horiz-adv-x="255" 
d="M86 464l136 236h53l-116 -236h-73z" />
    <glyph glyph-name="quoteright" unicode="&#x2019;" horiz-adv-x="255" 
d="M275 700l-135 -236h-54l116 236h73z" />
    <glyph glyph-name="quotesinglbase" unicode="&#x201a;" horiz-adv-x="255" 
d="M149 94l-135 -236h-53l116 236h72z" />
    <glyph glyph-name="quotedblleft" unicode="&#x201c;" horiz-adv-x="414" 
d="M86 464l136 236h53l-116 -236h-73zM245 464l136 236h53l-116 -236h-73z" />
    <glyph glyph-name="quotedblright" unicode="&#x201d;" horiz-adv-x="414" 
d="M275 700l-135 -236h-54l116 236h73zM434 700l-135 -236h-54l116 236h73z" />
    <glyph glyph-name="quotedblbase" unicode="&#x201e;" horiz-adv-x="414" 
d="M149 94l-135 -236h-53l116 236h72zM308 94l-135 -236h-53l116 236h72z" />
    <glyph glyph-name="dagger" unicode="&#x2020;" horiz-adv-x="348" 
d="M176 173h-58l66 339h-109l10 53h110l26 135h58l-26 -135h109l-10 -53h-110z" />
    <glyph glyph-name="daggerdbl" unicode="&#x2021;" horiz-adv-x="348" 
d="M176 173h-58l26 135h-109l10 53h110l29 151h-109l10 53h110l26 135h58l-26 -135h109l-10 -53h-110l-29 -151h109l-10 -53h-110z" />
    <glyph glyph-name="bullet" unicode="&#x2022;" horiz-adv-x="256" 
d="M194 294q0 -52 -19.5 -76t-58.5 -24q-70 0 -70 51q0 99 78 99q70 0 70 -50z" />
    <glyph glyph-name="ellipsis" unicode="&#x2026;" horiz-adv-x="646" 
d="M122 58q0 -32 -13.5 -48t-38.5 -16q-41 0 -41 32q0 64 53 64q40 0 40 -32zM321 58q0 -32 -13.5 -48t-38.5 -16q-41 0 -41 32q0 64 53 64q40 0 40 -32zM520 58q0 -32 -13.5 -48t-38.5 -16q-41 0 -41 32q0 64 53 64q40 0 40 -32z" />
    <glyph glyph-name="perthousand" unicode="&#x2030;" horiz-adv-x="1106" 
d="M344 599q0 -33 -9.5 -94t-28.5 -118.5t-45 -81.5q-37 -33 -106 -33q-32 0 -59.5 8.5t-38.5 24.5q-19 24 -19 77q0 33 9.5 94t28.5 118.5t45 81.5q38 33 106 33q32 0 59.5 -8.5t38.5 -24.5q19 -24 19 -77zM171 0h-72l540 700h70zM252.5 403.5q15.5 46.5 25 101.5t9.5 90
q0 31 -9 43q-13 19 -55 19q-40 0 -62 -19q-16 -14 -31.5 -60t-25 -101t-9.5 -90q0 -32 9 -44q13 -19 55 -19q40 0 62 19q16 14 31.5 60.5zM770 319q0 -33 -9.5 -94t-28.5 -118.5t-45 -81.5q-37 -33 -106 -33q-32 0 -59.5 8.5t-38.5 24.5q-19 24 -19 77q0 33 9.5 94
t28.5 118.5t45 81.5q38 33 106 33q32 0 59.5 -8.5t38.5 -24.5q19 -24 19 -77zM1083 319q0 -33 -9.5 -94t-28.5 -118.5t-45 -81.5q-37 -33 -106 -33q-32 0 -59.5 8.5t-38.5 24.5q-19 24 -19 77q0 33 9.5 94t28.5 118.5t45 81.5q38 33 106 33q32 0 59.5 -8.5t38.5 -24.5
q19 -24 19 -77zM678.5 123.5q15.5 46.5 25 101.5t9.5 90q0 31 -9 43q-13 19 -55 19q-40 0 -62 -19q-16 -14 -31.5 -60t-25 -101t-9.5 -90q0 -32 9 -44q13 -19 55 -19q40 0 62 19q16 14 31.5 60.5zM991.5 123.5q15.5 46.5 25 101.5t9.5 90q0 31 -9 43q-13 19 -55 19
q-40 0 -62 -19q-16 -14 -31.5 -60t-25 -101t-9.5 -90q0 -32 9 -44q13 -19 55 -19q40 0 62 19q16 14 31.5 60.5z" />
    <glyph glyph-name="guilsinglleft" unicode="&#x2039;" horiz-adv-x="255" 
d="M184 474h72l-166 -216l76 -197h-62l-83 207z" />
    <glyph glyph-name="guilsinglright" unicode="&#x203a;" horiz-adv-x="255" 
d="M54 61h-72l166 216l-76 197h62l83 -207z" />
    <glyph glyph-name="fraction" unicode="&#x2044;" horiz-adv-x="168" 
d="M-141 0h-72l540 700h70z" />
    <glyph glyph-name="uni2070" unicode="&#x2070;" horiz-adv-x="312" 
d="M361 689q0 -33 -9.5 -94t-28.5 -118.5t-45 -81.5q-37 -33 -106 -33q-32 0 -59.5 8.5t-38.5 24.5q-19 24 -19 77q0 33 9.5 94t28.5 118.5t45 81.5q38 33 106 33q32 0 59.5 -8.5t38.5 -24.5q19 -24 19 -77zM269.5 493.5q15.5 46.5 25 101.5t9.5 90q0 31 -9 43
q-13 19 -55 19q-40 0 -62 -19q-16 -14 -31.5 -60t-25 -101t-9.5 -90q0 -32 9 -44q13 -19 55 -19q40 0 62 19q16 14 31.5 60.5z" />
    <glyph glyph-name="uni2074" unicode="&#x2074;" horiz-adv-x="310" 
d="M262 370h-57l21 108h-182l7 38l241 274h51l-51 -264h52l-10 -48h-51zM126 526h109l32 163z" />
    <glyph glyph-name="uni2075" unicode="&#x2075;" horiz-adv-x="311" 
d="M45 378l9 48q22 -8 44.5 -11.5t54.5 -3.5q36 0 52.5 4t29.5 15t22 34t9 44q0 19 -9 32q-10 14 -46.5 19.5t-114.5 5.5l3 16l37 192h1l3 17h221l-9 -49h-168l-25 -127q60 -2 95 -11t50 -26q20 -23 20 -56q0 -35 -12 -70.5t-35 -57.5q-20 -18 -50 -25t-73 -7q-72 0 -109 17
z" />
    <glyph glyph-name="uni2076" unicode="&#x2076;" horiz-adv-x="311" 
d="M113 369.5q-27 8.5 -40 26.5q-20 26 -20 62q0 20 5 43q9 43 29.5 81t70.5 89l117 119h75l-153 -150l-4 -4q14 2 22 2q71 0 95 -33q19 -26 19 -61q0 -40 -14 -84t-39 -66q-21 -18 -43 -25.5t-58 -7.5q-35 0 -62 8.5zM179 410q20 0 33 4.5t24 15.5q12 12 23 46t11 61
q0 24 -9 36q-15 20 -51 20q-37 0 -60 -20q-14 -12 -25.5 -46t-11.5 -62q0 -25 9 -36q14 -19 57 -19z" />
    <glyph glyph-name="uni2077" unicode="&#x2077;" horiz-adv-x="311" 
d="M302 741h-193l9 49h261l-8 -39l-268 -381h-64z" />
    <glyph glyph-name="uni2078" unicode="&#x2078;" horiz-adv-x="310" 
d="M65 396q-17 24 -17 52q0 33 13 65.5t33 49.5q22 18 50 23q-20 7 -33 23q-14 19 -14 48t12 60.5t33 50.5q18 15 41 22t56 7q38 0 62.5 -7.5t38.5 -25.5q16 -22 16 -53q0 -30 -11.5 -60.5t-28.5 -45.5q-21 -18 -44 -23q26 -8 37 -23q15 -20 15 -49q0 -32 -12.5 -65.5
t-32.5 -50.5q-19 -17 -44.5 -25t-60.5 -8q-82 0 -109 35zM288 657.5q8 25.5 8 49.5q0 16 -7 26q-13 17 -49 17q-37 0 -55 -17q-13 -10 -21.5 -32.5t-8.5 -49.5q0 -18 8 -29q6 -9 17.5 -12.5t30.5 -3.5q20 0 33 3.5t24 12.5q12 10 20 35.5zM257 463q9 24 9 49q0 18 -9 31
q-12 18 -54 18q-41 0 -62 -18q-13 -13 -22.5 -34t-9.5 -48q0 -20 10 -33q13 -18 54 -18q39 0 62 18q13 11 22 35z" />
    <glyph glyph-name="uni2079" unicode="&#x2079;" horiz-adv-x="311" 
d="M216 520l4 4q-14 -2 -22 -2q-71 0 -95 33q-19 26 -19 61q0 40 14 84t39 66q21 18 43 25.5t58 7.5q35 0 62 -8.5t40 -26.5q20 -26 20 -62q0 -20 -5 -43q-9 -43 -29.5 -81t-70.5 -89l-117 -119h-75zM234 750q-20 0 -33 -4.5t-24 -15.5q-12 -12 -23 -46t-11 -61q0 -24 9 -36
q15 -20 51 -20q37 0 60 20q14 12 25.5 46t11.5 62q0 26 -9 36q-14 19 -57 19z" />
    <glyph glyph-name="uni2080" unicode="&#x2080;" horiz-adv-x="312" 
d="M273 229q0 -33 -9.5 -94t-28.5 -118.5t-45 -81.5q-37 -33 -106 -33q-32 0 -59.5 8.5t-38.5 24.5q-19 24 -19 77q0 33 9.5 94t28.5 118.5t45 81.5q38 33 106 33q32 0 59.5 -8.5t38.5 -24.5q19 -24 19 -77zM181.5 33.5q15.5 46.5 25 101.5t9.5 90q0 31 -9 43q-13 19 -55 19
q-40 0 -62 -19q-16 -14 -31.5 -60t-25 -101t-9.5 -90q0 -32 9 -44q13 -19 55 -19q40 0 62 19q16 14 31.5 60.5z" />
    <glyph glyph-name="uni2081" unicode="&#x2081;" horiz-adv-x="311" 
d="M150 253l-131 -90l14 68l143 99h46l-81 -420h-57z" />
    <glyph glyph-name="uni2082" unicode="&#x2082;" horiz-adv-x="312" 
d="M-43 -51l161 141q47 42 62 66t23 61q3 15 3 24q0 17 -9 30q-14 18 -68 18q-46 0 -103 -19l9 49q27 11 47 15.5t53 4.5q37 0 69 -10t45 -28q14 -20 14 -44q0 -8 -4 -36q-8 -50 -28 -81.5t-71 -76.5l-118 -104h169l-9 -49h-252z" />
    <glyph glyph-name="uni2083" unicode="&#x2083;" horiz-adv-x="311" 
d="M-46 -82l9 48q40 -15 108 -15q53 0 76 19q12 10 21.5 32t9.5 44q0 20 -10 33q-9 13 -41.5 18.5t-99.5 5.5l7 40l156 138h-169l9 49h249l-7 -39l-157 -143q75 -8 100 -36q20 -22 20 -58q0 -32 -13 -66t-35 -54q-20 -18 -50.5 -25.5t-73.5 -7.5q-72 0 -109 17z" />
    <glyph glyph-name="uni2084" unicode="&#x2084;" horiz-adv-x="310" 
d="M174 -90h-57l21 108h-182l7 38l241 274h51l-51 -264h52l-10 -48h-51zM38 66h109l32 163z" />
    <glyph glyph-name="uni2085" unicode="&#x2085;" horiz-adv-x="311" 
d="M-43 -82l9 48q22 -8 44.5 -11.5t54.5 -3.5q36 0 52.5 4t29.5 15t22 34t9 44q0 19 -9 32q-10 14 -46.5 19.5t-114.5 5.5l3 16l37 192h1l3 17h221l-9 -49h-168l-25 -127q60 -2 95 -11t50 -26q20 -23 20 -56q0 -35 -12 -70.5t-35 -57.5q-20 -18 -50 -25t-73 -7
q-72 0 -109 17z" />
    <glyph glyph-name="uni2086" unicode="&#x2086;" horiz-adv-x="311" 
d="M25 -90.5q-27 8.5 -40 26.5q-20 26 -20 62q0 20 5 43q9 43 29.5 81t70.5 89l117 119h75l-153 -150l-4 -4q14 2 22 2q71 0 95 -33q19 -26 19 -61q0 -40 -14 -84t-39 -66q-21 -18 -43 -25.5t-58 -7.5q-35 0 -62 8.5zM91 -50q20 0 33 4.5t24 15.5q12 12 23 46t11 61
q0 24 -9 36q-15 20 -51 20q-37 0 -60 -20q-14 -12 -25.5 -46t-11.5 -62q0 -25 9 -36q14 -19 57 -19z" />
    <glyph glyph-name="uni2087" unicode="&#x2087;" horiz-adv-x="311" 
d="M214 281h-193l9 49h261l-8 -39l-268 -381h-64z" />
    <glyph glyph-name="uni2088" unicode="&#x2088;" horiz-adv-x="310" 
d="M-23 -64q-17 24 -17 52q0 33 13 65.5t33 49.5q22 18 50 23q-20 7 -33 23q-14 19 -14 48t12 60.5t33 50.5q18 15 41 22t56 7q38 0 62.5 -7.5t38.5 -25.5q16 -22 16 -53q0 -30 -11.5 -60.5t-28.5 -45.5q-21 -18 -44 -23q26 -8 37 -23q15 -20 15 -49q0 -32 -12.5 -65.5
t-32.5 -50.5q-19 -17 -44.5 -25t-60.5 -8q-82 0 -109 35zM200 197.5q8 25.5 8 49.5q0 16 -7 26q-13 17 -49 17q-37 0 -55 -17q-13 -10 -21.5 -32.5t-8.5 -49.5q0 -18 8 -29q6 -9 17.5 -12.5t30.5 -3.5q20 0 33 3.5t24 12.5q12 10 20 35.5zM169 3q9 24 9 49q0 18 -9 31
q-12 18 -54 18q-41 0 -62 -18q-13 -13 -22.5 -34t-9.5 -48q0 -20 10 -33q13 -18 54 -18q39 0 62 18q13 11 22 35z" />
    <glyph glyph-name="uni2089" unicode="&#x2089;" horiz-adv-x="311" 
d="M128 60l4 4q-14 -2 -22 -2q-71 0 -95 33q-19 26 -19 61q0 40 14 84t39 66q21 18 43 25.5t58 7.5q35 0 62 -8.5t40 -26.5q20 -26 20 -62q0 -20 -5 -43q-9 -43 -29.5 -81t-70.5 -89l-117 -119h-75zM146 290q-20 0 -33 -4.5t-24 -15.5q-12 -12 -23 -46t-11 -61q0 -24 9 -36
q15 -20 51 -20q37 0 60 20q14 12 25.5 46t11.5 62q0 26 -9 36q-14 19 -57 19z" />
    <glyph glyph-name="Euro" unicode="&#x20ac;" 
d="M281 -15q-55 0 -99.5 13t-64.5 39q-29 37 -29 120q0 28 5 83h-85l12 62h81q9 55 18 98h-80l12 61h82q41 153 94 200q31 27 76.5 40.5t98.5 13.5q93 0 138 -22l-12 -66q-60 19 -117 19q-40 0 -73 -9.5t-52 -26.5q-36 -31 -68 -149h247l-11 -61h-252q-13 -59 -19 -98h251
l-11 -62h-249q-5 -52 -5 -82q0 -49 15 -70q25 -34 111 -34q65 0 129 18l-12 -65q-52 -22 -131 -22z" />
    <glyph glyph-name="uni2116" unicode="&#x2116;" horiz-adv-x="1008" 
d="M765.5 369.5q-29.5 8.5 -42.5 27.5q-17 23 -17 63q0 55 18 115t46 86q22 20 49.5 28t64.5 8q35 0 64 -8.5t43 -27.5q16 -23 16 -63q0 -52 -18 -113.5t-45 -87.5q-23 -20 -50 -28t-64 -8q-35 0 -64.5 8.5zM903 431q20 18 34 67.5t14 89.5q0 28 -10 39q-15 22 -60 22
q-46 0 -71 -22q-19 -17 -33 -68t-14 -92q0 -24 9 -36q16 -21 62 -21q45 0 69 21zM112 0h-77l118 609h64l260 -478l93 478h75l-118 -609h-63l-261 474zM929 246h-255l10 50h255z" />
    <glyph glyph-name="trademark" unicode="&#x2122;" horiz-adv-x="881" 
d="M215 280h-57l72 370h-147l10 50h352l-10 -50h-148zM475 280h-55l82 420h43l104 -202l181 202h52l-82 -420h-57l61 313l-169 -187l-99 189z" />
    <glyph glyph-name="estimated" unicode="&#x212e;" horiz-adv-x="765" 
d="M649 97q-50 -52 -116 -81.5t-139 -29.5q-97 0 -179.5 49.5t-130.5 133.5t-48 183t48 182.5t130.5 132t179.5 48.5q96 0 178 -49t130 -132t48 -182q0 -10 -1 -16h-591v-176q42 -55 103.5 -86.5t132.5 -31.5q90 0 162 47t106 126h63q-26 -66 -76 -118zM261.5 628.5
q-61.5 -30.5 -103.5 -83.5v-155h470v155q-42 53 -103 83.5t-131 30.5q-71 0 -132.5 -30.5z" />
    <glyph glyph-name="partialdiff" unicode="&#x2202;" horiz-adv-x="510" 
d="M298.5 -1q-37.5 -14 -96.5 -14q-115 0 -160 57q-31 43 -31 101q0 28 8 71q12 62 31 104.5t50 70.5q32 28 70 41.5t94 13.5q99 0 141 -52q7 55 7 97t-7.5 68.5t-21.5 46.5q-13 18 -39.5 28.5t-62.5 10.5q-66 0 -140 -29l12 67q64 34 141 34q52 0 95.5 -17t64.5 -47
q20 -29 30.5 -63t10.5 -87q0 -92 -35 -254l-7 -33q-11 -55 -32.5 -99.5t-52.5 -72.5q-32 -29 -69.5 -43zM310 93q40 37 58 121q6 33 6 57q0 42 -16 64q-25 35 -91 35q-65 0 -105 -35t-58 -121q-6 -34 -6 -59q0 -41 15 -63q24 -35 92 -35q64 0 105 36z" />
    <glyph glyph-name="product" unicode="&#x220f;" horiz-adv-x="769" 
d="M258 628l-160 -823h-83l174 895h543l-174 -895h-83l160 823h-377z" />
    <glyph glyph-name="summation" unicode="&#x2211;" horiz-adv-x="630" 
d="M-32 -137l372 411l-211 369l12 57h505l-14 -73h-404l208 -367l-345 -381h418l-13 -73h-538z" />
    <glyph glyph-name="minus" unicode="&#x2212;" 
d="M60 294h383l-11 -59h-383z" />
    <glyph glyph-name="radical" unicode="&#x221a;" 
d="M47 319l11 59h111l32 -281l274 603h67l-329 -700h-56l-40 319h-70z" />
    <glyph glyph-name="infinity" unicode="&#x221e;" horiz-adv-x="510" 
d="M272 153q-22 21 -34 57q-27 -37 -57.5 -57.5t-73.5 -20.5q-52 0 -73 29q-19 25 -19 64q0 47 16 86t42 61q15 13 34.5 18.5t49.5 5.5q41 0 63.5 -20.5t34.5 -56.5q27 36 57.5 56.5t73.5 20.5q51 0 72 -29q19 -24 19 -64q0 -50 -16 -87t-42 -59q-15 -13 -35 -19t-49 -6
q-41 0 -63 21zM388 197q17 14 26.5 41.5t9.5 55.5q0 24 -10 38q-11 14 -40 14q-31 0 -52.5 -21t-49.5 -64q11 -39 26 -58.5t46 -19.5q28 0 44 14zM171.5 204.5q22.5 21.5 49.5 63.5q-11 38 -26 57.5t-46 19.5q-28 0 -44 -14q-16 -13 -26 -42t-10 -56q0 -23 10 -36
q10 -14 38 -14q32 0 54.5 21.5z" />
    <glyph glyph-name="integral" unicode="&#x222b;" 
d="M-16 -199l13 68q24 -9 60 -9q37 0 57 18q11 10 19.5 32t18.5 73l112 573q14 69 27 105t34 54q19 17 46.5 26t58.5 9q51 0 81 -11l-13 -69q-23 10 -60 10t-57 -18q-11 -10 -19 -31.5t-18 -74.5l-112 -573q-13 -66 -26.5 -103t-34.5 -55q-20 -18 -48 -27t-59 -9
q-51 0 -80 12z" />
    <glyph glyph-name="approxequal" unicode="&#x2248;" horiz-adv-x="510" 
d="M296.5 290.5q-20.5 6.5 -45.5 19.5q-23 12 -41.5 18.5t-44.5 6.5q-54 0 -105 -44l12 62q27 23 49.5 32t54.5 9q26 0 44.5 -6t42.5 -18q25 -13 45 -19.5t49 -6.5q57 0 104 43l-12 -62q-26 -22 -49 -31.5t-54 -9.5q-29 0 -49.5 6.5zM267.5 139.5q-20.5 6.5 -45.5 19.5
q-23 12 -41.5 18.5t-44.5 6.5q-54 0 -105 -44l12 62q27 23 49.5 32t54.5 9q26 0 44.5 -6t41.5 -18q25 -13 45 -19.5t49 -6.5q57 0 105 43l-12 -62q-26 -22 -49 -31.5t-54 -9.5q-29 0 -49.5 6.5z" />
    <glyph glyph-name="notequal" unicode="&#x2260;" 
d="M86 59l-44 34l56 58h-65l11 59h111l105 109h-195l11 59h240l90 93l45 -34l-57 -59h65l-11 -59h-111l-105 -109h195l-11 -59h-241z" />
    <glyph glyph-name="lessequal" unicode="&#x2264;" 
d="M67 349l415 141l-13 -64l-333 -112l289 -113l-10 -56l-360 141zM26 120h384l-12 -59h-383z" />
    <glyph glyph-name="greaterequal" unicode="&#x2265;" horiz-adv-x="512" 
d="M373 322l-289 112l10 56l360 -141l-12 -63l-415 -141l12 64zM405 120l-11 -59h-383l11 59h383z" />
    <glyph glyph-name="lozenge" unicode="&#x25ca;" 
d="M305 700h54l83 -350l-219 -350h-54l-85 350zM319 626l-172 -281l61 -272l173 281z" />
    <glyph glyph-name="uniF6BE" unicode="&#xf6be;" horiz-adv-x="237" 
d="M-151 -194l11 63q14 -6 31.5 -10.5t33.5 -4.5q35 0 52 15q12 11 20 36t20 88l104 535h78l-104 -535q-15 -78 -29 -114.5t-36 -58.5q-30 -30 -101 -30q-42 0 -80 16z" />
    <glyph glyph-name="uniF6C3" unicode="&#xf6c3;" horiz-adv-x="0" 
d="M-293 -55h100l-166 -140h-74z" />
    <glyph glyph-name="grave.case" horiz-adv-x="469" 
d="M360 745l-139 131h102l111 -131h-74z" />
    <glyph glyph-name="acute.case" horiz-adv-x="469" 
d="M361 876h113l-189 -131h-85z" />
    <glyph glyph-name="hungarumlaut.case" horiz-adv-x="471" 
d="M285 876h94l-161 -131h-76zM453 876h95l-161 -131h-73z" />
    <glyph glyph-name="circumflex.case" horiz-adv-x="471" 
d="M304 876h92l95 -131h-63l-83 92l-117 -92h-69z" />
    <glyph glyph-name="caron.case" horiz-adv-x="471" 
d="M239 876l83 -92l117 92h69l-145 -131h-92l-95 131h63z" />
    <glyph glyph-name="breve.case" horiz-adv-x="469" 
d="M364 783.5q17 4.5 30 14.5q14 12 21 28.5t13 48.5h62q-8 -41 -19 -65.5t-33 -42.5q-39 -32 -126 -32q-83 0 -108 32q-17 21 -17 53q0 18 7 55h55q-6 -28 -6 -44q0 -21 11 -33q8 -10 23.5 -14.5t42.5 -4.5t44 4.5z" />
    <glyph glyph-name="ring.case" horiz-adv-x="469" 
d="M394 905.5q16 -5.5 26 -18.5q12 -18 12 -38q0 -12 -3 -26q-8 -45 -30 -64q-14 -13 -33 -18.5t-47 -5.5q-29 0 -45 5.5t-26 18.5q-13 17 -13 40q0 11 3 24q10 46 31 64q14 13 33 18.5t48 5.5q28 0 44 -5.5zM351 772q10 3 18 11q8 7 12.5 16t7.5 24q2 8 2 20q0 14 -5 20
q-6 8 -15 11t-26 3q-18 0 -28 -3t-18 -11q-9 -7 -13 -15.5t-8 -24.5q-2 -14 -2 -18q0 -13 6 -22q6 -8 15 -11t27 -3q17 0 27 3z" />
    <glyph glyph-name="tilde.case" horiz-adv-x="471" 
d="M182.5 821q9.5 20 23.5 31q21 18 57 18q24 0 44.5 -9t46.5 -26q21 -13 31.5 -18t21.5 -5q19 0 29 9q7 5 10.5 15t8.5 34h48q-8 -43 -17 -62.5t-22 -30.5q-23 -19 -58 -19q-23 0 -42 8.5t-45 25.5q-20 13 -32 19t-24 6q-20 0 -31 -10q-12 -10 -19 -48h-48q8 42 17.5 62z
" />
    <glyph glyph-name="dotaccent.case" horiz-adv-x="469" 
d="M363 786.5q-12 -10.5 -36 -10.5q-38 0 -38 27q0 5 2 15q4 22 16 32.5t37 10.5q20 0 28.5 -7t8.5 -22q0 -9 -1 -14q-5 -21 -17 -31.5z" />
    <glyph glyph-name="dieresis.case" horiz-adv-x="470" 
d="M233 776q-36 0 -36 29q0 4 2 14q8 42 51 42q35 0 35 -30q0 -8 -1 -13q-9 -42 -51 -42zM417 776q-36 0 -36 29q0 4 2 14q8 42 51 42q35 0 35 -30q0 -8 -1 -13q-9 -42 -51 -42z" />
    <glyph glyph-name="macron.case" horiz-adv-x="471" 
d="M459 792h-259l9 52h259z" />
    <glyph glyph-name="caron.alt" horiz-adv-x="471" 
d="M318 735h86l-130 -152h-60z" />
    <glyph glyph-name="uni0326.alt" horiz-adv-x="0" 
d="M-197 583h-99l179 152h74z" />
    <glyph glyph-name="germandbls.cap" horiz-adv-x="1208" 
d="M12 22l12 67q49 -15 98.5 -22t109.5 -7q59 0 103 10t65 29q20 18 31 53t11 71q0 24 -8 37q-9 13 -37.5 23.5t-93.5 29.5q-78 22 -125.5 41t-66.5 44q-16 20 -16 64q0 54 18.5 110t46.5 81q33 29 94 44t135 15q116 0 193 -34l-12 -67q-46 16 -90 22.5t-98 6.5
q-60 0 -102 -9t-66 -30q-16 -14 -26.5 -49t-10.5 -66q0 -27 8 -36q12 -17 48 -30.5t107 -35.5q74 -23 113.5 -38.5t53.5 -34.5q18 -24 18 -70q0 -57 -17.5 -111.5t-54.5 -86.5q-63 -55 -230 -55q-138 0 -211 34zM616 22l12 67q49 -15 98.5 -22t109.5 -7q59 0 103 10t65 29
q20 18 31 53t11 71q0 24 -8 37q-9 13 -37.5 23.5t-93.5 29.5q-78 22 -125.5 41t-66.5 44q-16 20 -16 64q0 54 18.5 110t46.5 81q33 29 94 44t135 15q116 0 193 -34l-12 -67q-46 16 -90 22.5t-98 6.5q-60 0 -102 -9t-66 -30q-16 -14 -26.5 -49t-10.5 -66q0 -27 8 -36
q12 -17 48 -30.5t107 -35.5q74 -23 113.5 -38.5t53.5 -34.5q18 -24 18 -70q0 -57 -17.5 -111.5t-54.5 -86.5q-63 -55 -230 -55q-138 0 -211 34z" />
    <glyph glyph-name="i.trk" horiz-adv-x="235" 
d="M149 696q0 24 13 39t41 15q17 0 27 -8t10 -23q0 -56 -52 -56q-39 0 -39 33zM199 528l-102 -528h-78l102 528h78z" />
    <glyph glyph-name="exclamdown.case" horiz-adv-x="255" 
d="M242 674q0 -32 -13.5 -48t-38.5 -16q-41 0 -41 32q0 64 53 64q40 0 40 -32zM26 0l104 483h64l-85 -483h-83z" />
    <glyph glyph-name="questiondown.case" horiz-adv-x="451" 
d="M332 642q0 32 13.5 48t38.5 16q41 0 41 -32q0 -64 -53 -64q-40 0 -40 32zM353 349q-104 -26 -146 -43.5t-63 -36.5q-18 -16 -32.5 -57.5t-14.5 -74.5t15 -54q23 -30 103 -30q64 0 154 18l-12 -67q-72 -19 -152 -19q-52 0 -93 13t-61 39q-26 37 -26 91q0 49 19.5 104.5
t48.5 80.5q27 23 64.5 40.5t135.5 44.5l20 94h67z" />
    <glyph glyph-name="hyphen.case" horiz-adv-x="256" 
d="M233 327h-205l11 58h205z" />
    <glyph glyph-name="guilsinglleft.case" horiz-adv-x="255" 
d="M200 561h72l-166 -216l76 -197h-62l-83 207z" />
    <glyph glyph-name="guilsinglright.case" horiz-adv-x="255" 
d="M70 148h-72l166 216l-76 197h62l83 -207z" />
    <glyph glyph-name="guillemotleft.case" horiz-adv-x="435" 
d="M200 561h72l-166 -216l76 -197h-62l-83 207zM381 561h72l-166 -216l76 -197h-62l-83 207z" />
    <glyph glyph-name="guillemotright.case" horiz-adv-x="430" 
d="M70 148h-72l166 216l-76 197h62l83 -207zM245 148h-72l166 216l-76 197h62l83 -207z" />
    <glyph glyph-name="parenleft.case" horiz-adv-x="367" 
d="M141.5 545.5q62.5 138.5 175.5 231.5h71q-241 -231 -241 -538q0 -84 20 -155t58 -142h-68q-38 65 -58 136t-20 156q0 173 62.5 311.5z" />
    <glyph glyph-name="parenright.case" horiz-adv-x="367" 
d="M243.5 176.5q-62.5 -138.5 -175.5 -231.5h-71q241 231 241 538q0 84 -20 155t-58 142h68q38 -65 58 -136t20 -156q0 -173 -62.5 -311.5z" />
    <glyph glyph-name="braceleft.case" horiz-adv-x="365" 
d="M97 395q18 4 31 16q12 11 22 32t19 70l11 54q15 73 29.5 110t39.5 58q51 45 179 45l-12 -58q-89 0 -122 -29q-16 -15 -27.5 -43t-22.5 -83l-10 -53q-18 -95 -41 -120q-11 -11 -24 -18.5t-38 -13.5q17 -10 26 -19t16 -22q10 -20 10 -44q0 -19 -8 -65l-10 -53
q-11 -60 -11 -85q0 -26 11 -42q21 -29 111 -29l-11 -58q-59 0 -97 11.5t-57 36.5q-12 15 -17 31t-5 39q0 33 12 96l10 54q8 40 8 66q0 22 -9 35q-9 11 -25.5 15t-56.5 4l11 58q40 0 58 4z" />
    <glyph glyph-name="braceright.case" horiz-adv-x="365" 
d="M287 330q-18 -4 -31 -16q-12 -11 -22 -32t-19 -70l-11 -54q-15 -73 -29.5 -110t-39.5 -58q-51 -45 -179 -45l12 58q89 0 122 29q16 15 27.5 43t22.5 83l10 53q18 95 41 120q11 11 24 18.5t38 13.5q-17 10 -26 19t-16 22q-10 20 -10 44q0 19 8 65l10 53q11 60 11 85
q0 26 -11 42q-21 29 -111 29l11 58q59 0 97 -11.5t57 -36.5q12 -15 17 -31t5 -39q0 -33 -12 -96l-10 -54q-8 -40 -8 -66q0 -22 9 -35q9 -11 25.5 -15t56.5 -4l-11 -58q-40 0 -58 -4z" />
    <glyph glyph-name="bracketleft.case" horiz-adv-x="342" 
d="M405 780l-12 -58h-156l-141 -719h157l-11 -58h-222l163 835h222z" />
    <glyph glyph-name="bracketright.case" horiz-adv-x="342" 
d="M123 3l141 719h-157l12 58h222l-163 -835h-222l11 58h156z" />
    <glyph glyph-name="endash.case" horiz-adv-x="470" 
d="M472 327h-470l11 58h470z" />
    <glyph glyph-name="emdash.case" horiz-adv-x="940" 
d="M942 327h-940l11 58h940z" />
    <glyph glyph-name="bullet.case" horiz-adv-x="256" 
d="M210 381q0 -52 -19.5 -76t-58.5 -24q-70 0 -70 51q0 99 78 99q70 0 70 -50z" />
    <glyph glyph-name="periodcentered.case" horiz-adv-x="256" 
d="M183 372q0 -32 -13.5 -48t-38.5 -16q-41 0 -41 32q0 64 53 64q40 0 40 -32z" />
    <glyph glyph-name="at.case" horiz-adv-x="906" 
d="M294.5 -50q-82.5 25 -132.5 75t-80 134.5t-31 200.5q0 114 32 198.5t84 136.5q51 51 129.5 75.5t177.5 24.5q98 0 176.5 -24.5t129.5 -75.5q49 -50 77.5 -115t28.5 -154q0 -83 -20.5 -145.5t-53.5 -97.5q-24 -25 -57 -38.5t-69 -13.5q-48 0 -83.5 18t-47.5 59
q-35 -34 -80 -55.5t-87 -21.5q-39 0 -68.5 14t-45.5 40q-20 30 -20 88q0 41 10 88q12 61 32 106.5t42 65.5q48 45 128 45q39 0 76 -17t59 -45l10 50h73l-60 -283q-4 -17 -4 -34q0 -34 19.5 -50t50.5 -16q54 0 89 39q22 24 36.5 80.5t14.5 123.5q0 75 -24.5 135t-63.5 99
q-42 42 -114 63t-154 21t-154.5 -21t-114.5 -63q-41 -41 -69.5 -121t-28.5 -179q0 -100 26.5 -179t67.5 -119q42 -42 116 -64t164 -22q160 0 278 44v-46q-121 -49 -275 -49q-107 0 -189.5 25zM551 255q0 10 4 34l36 179q-48 44 -112 44q-55 0 -86 -26q-15 -14 -30 -45.5
t-26 -79.5q-10 -46 -10 -82q0 -41 12 -55q21 -28 72 -28q57 0 140 59z" />
    <glyph glyph-name="zeroslash" horiz-adv-x="510" 
d="M106.5 -1.5q-46.5 13.5 -65.5 39.5q-28 38 -28 118q0 73 18 179.5t50.5 198.5t73.5 128q30 26 73 39.5t94 13.5q49 0 95 -13.5t66 -39.5q30 -40 30 -126q0 -74 -19.5 -180t-53 -196t-71.5 -122q-30 -26 -73 -39.5t-95 -13.5q-48 0 -94.5 13.5zM267.5 64q28.5 9 45.5 24
q27 23 55 104.5t46 179.5t18 164q0 56 -16 76q-12 15 -36.5 24t-59.5 9t-63 -9t-45 -24q-28 -25 -55 -109t-44.5 -183t-17.5 -161q0 -53 14 -71q12 -15 36.5 -24t58.5 -9q35 0 63.5 9zM309 364q0 -32 -13.5 -48t-38.5 -16q-41 0 -41 32q0 64 53 64q40 0 40 -32z" />
    <glyph glyph-name="currency.lp" 
d="M238 183q-64 0 -93 24l-51 -46l-38 42l60 54q-2 16 -2 25q0 41 10.5 87.5t27.5 79.5l-38 50l43 41l35 -45q36 24 100 24q61 0 92 -23l51 45l37 -42l-60 -53q3 -12 3 -26q0 -39 -10.5 -87t-27.5 -82l37 -49l-43 -42l-35 46q-37 -23 -98 -23zM311 253q20 18 34 67.5
t14 89.5q0 28 -10 39q-15 22 -60 22q-46 0 -71 -22q-19 -17 -33 -68t-14 -92q0 -24 9 -36q16 -21 62 -21q45 0 69 21z" />
    <glyph glyph-name="dollar.lp" 
d="M61.5 3.5q-44.5 9.5 -72.5 24.5l13 68q87 -31 174 -34l51 265q-55 18 -89.5 34t-48.5 38q-17 22 -17 61q0 50 17 108t42 83q60 55 179 58l16 81h63l-16 -82q89 -6 144 -33l-12 -67q-69 26 -146 29l-50 -255q54 -18 86 -32.5t43 -31.5q18 -28 18 -66q0 -55 -19 -117.5
t-47 -87.5q-49 -48 -165 -55l-15 -79h-63l15 79q-56 2 -100.5 11.5zM250 401l46 236q-72 -6 -106 -38q-14 -13 -24.5 -49.5t-10.5 -67.5q0 -23 6 -34q14 -20 89 -47zM342 287q-20 9 -55 21l-48 -243q69 7 95 33q16 17 28.5 58t12.5 75q0 27 -7 37q-6 10 -26 19z" />
    <glyph glyph-name="Euro.lp" 
d="M281 -15q-55 0 -99.5 13t-64.5 39q-29 37 -29 120q0 28 5 83h-85l12 62h81q9 55 18 98h-80l12 61h82q41 153 94 200q31 27 76.5 40.5t98.5 13.5q93 0 138 -22l-12 -66q-60 19 -117 19q-40 0 -73 -9.5t-52 -26.5q-36 -31 -68 -149h247l-11 -61h-252q-13 -59 -19 -98h251
l-11 -62h-249q-5 -52 -5 -82q0 -49 15 -70q25 -34 111 -34q65 0 129 18l-12 -65q-52 -22 -131 -22z" />
    </font>
</defs>
</svg>
